<svg width="441" height="852" viewBox="0 0 441 852" fill="none" xmlns="http://www.w3.org/2000/svg">
<g clip-path="url(#clip0_230_2963)">
<rect width="441" height="852" fill="white"/>
<line x1="0.00226755" y1="203.5" x2="441.002" y2="205.5" stroke="black"/>
<path d="M53.464 168.768H57.112V169.856H53.464V168.768ZM56.36 164.8H57.688V175.392H56.36V164.8ZM48.456 177.84H58.088V178.928H48.456V177.84ZM48.456 174.464H49.784V178.4H48.456V174.464ZM49.48 166.592H50.568V167.76C50.568 170.384 48.936 172.656 46.52 173.552L45.832 172.496C47.992 171.728 49.48 169.808 49.48 167.76V166.592ZM49.736 166.592H50.808V167.744C50.808 169.616 52.216 171.44 54.312 172.176L53.64 173.216C51.288 172.368 49.736 170.192 49.736 167.744V166.592ZM46.248 165.968H53.976V167.04H46.248V165.968ZM66.0868 170.496H68.8228V171.584H66.0868V170.496ZM63.1428 168.48H64.1668V169.232C64.1668 172.112 62.9668 175.024 60.8548 176.288L60.0708 175.28C62.0228 174.144 63.1428 171.6 63.1428 169.232V168.48ZM63.3828 168.48H64.4068V169.232C64.4068 171.536 65.5588 173.92 67.5108 174.976L66.7588 175.968C64.6308 174.784 63.3828 172.048 63.3828 169.232V168.48ZM60.4708 167.44H67.0788V168.544H60.4708V167.44ZM63.1428 165.296H64.4228V168.288H63.1428V165.296ZM71.1908 164.784H72.4708V179.248H71.1908V164.784ZM68.2948 165.12H69.5428V178.512H68.2948V165.12Z" fill="#545F71"/>
<path d="M110.176 165.608H112.304V173.864H110.176V165.608ZM111.712 168.824H114.272V170.568H111.712V168.824ZM105.92 166.456H108.192C108.192 170.392 105.728 173.064 101.312 174.216L100.48 172.536C104.112 171.624 105.92 169.736 105.92 167.512V166.456ZM101.184 166.456H107.2V168.136H101.184V166.456ZM102.688 174.456H112.304V180.264H102.688V174.456ZM110.208 176.136H104.784V178.584H110.208V176.136ZM118.367 166.744H120.095V168.904C120.095 172.568 118.815 176.008 116.015 177.384L114.735 175.672C117.231 174.504 118.367 171.656 118.367 168.904V166.744ZM118.799 166.744H120.495V168.904C120.495 171.56 121.551 174.264 123.919 175.416L122.639 177.112C119.967 175.752 118.799 172.456 118.799 168.904V166.744ZM124.511 165.608H126.655V180.424H124.511V165.608ZM126.175 171.304H128.799V173.08H126.175V171.304ZM134.206 166.584C136.542 166.584 138.286 168.104 138.286 170.232C138.286 172.376 136.542 173.896 134.206 173.896C131.886 173.896 130.11 172.376 130.11 170.232C130.11 168.104 131.886 166.584 134.206 166.584ZM134.206 168.408C133.07 168.408 132.206 169.08 132.206 170.232C132.206 171.4 133.07 172.072 134.206 172.072C135.342 172.072 136.206 171.4 136.206 170.232C136.206 169.08 135.342 168.408 134.206 168.408ZM139.678 165.592H141.806V180.456H139.678V165.592ZM129.758 177.448L129.502 175.736C132.11 175.736 135.742 175.704 138.862 175.24L139.022 176.776C135.806 177.416 132.318 177.448 129.758 177.448ZM156.755 165.608H158.883V173H156.755V165.608ZM158.019 168.44H160.835V170.184H158.019V168.44ZM147.651 166.296H154.707V172.456H147.651V166.296ZM152.611 167.96H149.747V170.792H152.611V167.96ZM149.091 173.592H158.883V177.656H151.235V179.416H149.123V176.12H156.787V175.224H149.091V173.592ZM149.123 178.6H159.315V180.264H149.123V178.6Z" fill="#545F71"/>
<path d="M193.656 172.96H194.984V176.56H193.656V172.96ZM194.328 165.728C197.384 165.728 199.576 167.216 199.576 169.52C199.576 171.824 197.384 173.312 194.328 173.312C191.272 173.312 189.064 171.824 189.064 169.52C189.064 167.216 191.272 165.728 194.328 165.728ZM194.328 166.784C192.024 166.784 190.344 167.872 190.344 169.52C190.344 171.168 192.024 172.256 194.328 172.256C196.616 172.256 198.296 171.168 198.296 169.52C198.296 167.872 196.616 166.784 194.328 166.784ZM187.8 176.304H200.904V177.408H187.8V176.304ZM203.959 168.224H213.767V169.312H203.959V168.224ZM202.183 170.704H215.303V171.792H202.183V170.704ZM203.959 164.992H205.255V168.72H203.959V164.992ZM203.815 173.088H213.639V176.48H205.159V178.352H203.847V175.488H212.311V174.112H203.815V173.088ZM203.847 178.016H214.119V179.056H203.847V178.016ZM230.554 164.768H231.898V179.248H230.554V164.768ZM231.53 170.64H234.202V171.744H231.53V170.64ZM226.858 166.336H228.154C228.154 170.448 226.266 174.16 221.594 176.512L220.858 175.488C224.858 173.456 226.858 170.368 226.858 166.544V166.336ZM221.53 166.336H227.546V167.424H221.53V166.336ZM238.728 166.336H239.816V167.504C239.816 170.16 238.216 172.384 235.784 173.264L235.112 172.208C237.288 171.44 238.728 169.568 238.728 167.504V166.336ZM238.968 166.336H240.056V167.488C240.056 169.376 241.432 171.072 243.56 171.776L242.92 172.816C240.504 172.016 238.968 169.952 238.968 167.488V166.336ZM235.512 165.856H243.24V166.944H235.512V165.856ZM245.064 164.784H246.392V173.504H245.064V164.784ZM246.024 168.448H248.536V169.568H246.024V168.448ZM241.784 173.888C244.728 173.888 246.536 174.864 246.536 176.544C246.536 178.24 244.728 179.216 241.784 179.216C238.84 179.216 237.032 178.24 237.032 176.544C237.032 174.864 238.84 173.888 241.784 173.888ZM241.784 174.96C239.64 174.96 238.328 175.536 238.328 176.544C238.328 177.568 239.64 178.176 241.784 178.176C243.928 178.176 245.24 177.568 245.24 176.544C245.24 175.536 243.928 174.96 241.784 174.96ZM259.611 169.072H260.923V171.28H259.611V169.072ZM259.419 165.664H260.587V166.112C260.587 168.288 257.899 169.68 254.859 169.968L254.427 168.96C257.035 168.752 259.419 167.632 259.419 166.112V165.664ZM259.995 165.664H261.147V166.112C261.147 167.616 263.531 168.752 266.139 168.96L265.707 169.968C262.683 169.68 259.995 168.288 259.995 166.112V165.664ZM254.939 165.232H265.643V166.272H254.939V165.232ZM254.955 173.76H265.611V174.816H254.955V173.76ZM253.739 170.784H266.859V171.856H253.739V170.784ZM260.283 175.52C263.067 175.52 264.619 176.176 264.619 177.424C264.619 178.688 263.067 179.328 260.283 179.328C257.499 179.328 255.931 178.688 255.931 177.424C255.931 176.176 257.499 175.52 260.283 175.52ZM260.283 176.432C258.363 176.432 257.291 176.768 257.291 177.424C257.291 178.08 258.363 178.416 260.283 178.416C262.187 178.416 263.275 178.08 263.275 177.424C263.275 176.768 262.187 176.432 260.283 176.432ZM259.627 172.432H260.939V174.432H259.627V172.432ZM272.186 165.632C274.362 165.632 275.962 167.024 275.962 169.04C275.962 171.056 274.362 172.448 272.186 172.448C270.01 172.448 268.41 171.056 268.41 169.04C268.41 167.024 270.01 165.632 272.186 165.632ZM272.186 166.752C270.746 166.752 269.706 167.68 269.706 169.04C269.706 170.4 270.746 171.328 272.186 171.328C273.626 171.328 274.666 170.4 274.666 169.04C274.666 167.68 273.626 166.752 272.186 166.752ZM278.042 164.784H279.37V173.024H278.042V164.784ZM279.002 168.24H281.514V169.344H279.002V168.24ZM271.61 173.664H272.634V174.448C272.634 176.352 271.466 178.272 269.386 179.072L268.714 178.08C270.538 177.408 271.61 175.84 271.61 174.448V173.664ZM271.898 173.664H272.89V174.448C272.89 175.92 273.738 177.488 275.498 178.192L274.922 179.2C272.826 178.384 271.898 176.384 271.898 174.448V173.664ZM276.954 173.664H277.946V174.448C277.946 176.16 277.002 178.32 274.922 179.2L274.346 178.192C276.09 177.408 276.954 175.712 276.954 174.448V173.664ZM277.21 173.664H278.25V174.448C278.25 175.952 279.306 177.456 281.13 178.08L280.474 179.072C278.362 178.304 277.21 176.464 277.21 174.448V173.664ZM283.369 172.144H284.457C287.129 172.144 288.825 172.048 290.793 171.664L290.921 172.752C288.905 173.136 287.177 173.232 284.457 173.232H283.369V172.144ZM283.369 165.968H289.993V167.056H284.681V172.48H283.369V165.968ZM293.113 164.784H294.441V175.344H293.113V164.784ZM289.065 168.784H293.417V169.856H289.065V168.784ZM285.193 177.936H294.825V179.024H285.193V177.936ZM285.193 174.56H286.521V178.56H285.193V174.56ZM305.179 165.312C307.339 165.312 308.923 166.624 308.923 168.528C308.923 170.416 307.339 171.728 305.179 171.728C303.035 171.728 301.451 170.416 301.451 168.528C301.451 166.624 303.035 165.312 305.179 165.312ZM305.179 166.4C303.787 166.4 302.731 167.28 302.731 168.528C302.731 169.776 303.787 170.64 305.179 170.64C306.587 170.64 307.627 169.776 307.627 168.528C307.627 167.28 306.587 166.4 305.179 166.4ZM311.643 164.784H312.987V172.192H311.643V164.784ZM303.627 172.896H312.987V176.416H304.955V178.592H303.659V175.424H311.675V173.968H303.627V172.896ZM303.659 178H313.467V179.056H303.659V178Z" fill="#545F71"/>
<path d="M343.464 165.376H353.192V170.304H343.464V165.376ZM351.88 166.448H344.76V169.232H351.88V166.448ZM341.784 172.112H354.856V173.184H341.784V172.112ZM347.672 170.016H348.984V172.512H347.672V170.016ZM343.24 174.672H353.24V179.248H351.912V175.76H343.24V174.672ZM359.815 172.624H361.143V176.752H359.815V172.624ZM364.279 172.624H365.591V176.752H364.279V172.624ZM356.199 176.4H369.303V177.504H356.199V176.4ZM357.335 166.112H368.071V167.2H357.335V166.112ZM357.367 171.904H368.055V172.976H357.367V171.904ZM359.591 166.992H360.919V172.128H359.591V166.992ZM364.519 166.992H365.831V172.128H364.519V166.992ZM379.273 166.364V178H377.864V167.841H377.796L374.955 169.727V168.295L377.864 166.364H379.273Z" fill="#545F71"/>
<path d="M409.464 165.376H419.192V170.304H409.464V165.376ZM417.88 166.448H410.76V169.232H417.88V166.448ZM407.784 172.112H420.856V173.184H407.784V172.112ZM413.672 170.016H414.984V172.512H413.672V170.016ZM409.24 174.672H419.24V179.248H417.912V175.76H409.24V174.672ZM425.815 172.624H427.143V176.752H425.815V172.624ZM430.279 172.624H431.591V176.752H430.279V172.624ZM422.199 176.4H435.303V177.504H422.199V176.4ZM423.335 166.112H434.071V167.2H423.335V166.112ZM423.367 171.904H434.055V172.976H423.367V171.904ZM425.591 166.992H426.919V172.128H425.591V166.992ZM430.519 166.992H431.831V172.128H430.519V166.992ZM441.182 178V176.977L445.023 172.773C445.474 172.28 445.845 171.852 446.137 171.489C446.428 171.121 446.644 170.777 446.784 170.455C446.928 170.129 447 169.788 447 169.432C447 169.023 446.902 168.669 446.705 168.369C446.512 168.07 446.246 167.839 445.909 167.676C445.572 167.513 445.193 167.432 444.773 167.432C444.326 167.432 443.936 167.525 443.603 167.71C443.273 167.892 443.017 168.148 442.835 168.477C442.657 168.807 442.568 169.193 442.568 169.636H441.228C441.228 168.955 441.385 168.356 441.699 167.841C442.013 167.326 442.442 166.924 442.983 166.636C443.529 166.348 444.14 166.205 444.818 166.205C445.5 166.205 446.104 166.348 446.631 166.636C447.157 166.924 447.57 167.312 447.87 167.801C448.169 168.29 448.318 168.833 448.318 169.432C448.318 169.86 448.241 170.278 448.085 170.688C447.934 171.093 447.669 171.545 447.29 172.045C446.915 172.542 446.394 173.148 445.728 173.864L443.114 176.659V176.75H448.523V178H441.182Z" fill="#545F71"/>
<circle cx="61" cy="288" r="19.25" stroke="#222222" stroke-linecap="round"/>
<circle cx="54.7501" cy="281.75" r="2.08333" fill="#222222" stroke="#222222" stroke-linecap="round"/>
<circle cx="67.2501" cy="281.75" r="2.08333" fill="#222222" stroke="#222222" stroke-linecap="round"/>
<path d="M67.25 295.291C67.25 298.168 64.4518 300.5 61 300.5C57.5482 300.5 54.75 298.168 54.75 295.291C54.75 292.415 57.5482 290.083 61 290.083C64.4518 290.083 67.25 292.415 67.25 295.291Z" fill="#222222"/>
<path d="M40.9824 319.091V330H39.0062V321.014H38.9423L36.3908 322.644V320.833L39.1021 319.091H40.9824ZM43.4523 330V328.572L47.2396 324.86C47.6018 324.494 47.9036 324.169 48.1451 323.885C48.3866 323.601 48.5677 323.326 48.6884 323.059C48.8092 322.793 48.8695 322.509 48.8695 322.207C48.8695 321.863 48.7914 321.568 48.6352 321.323C48.4789 321.074 48.2641 320.882 47.9906 320.748C47.7172 320.613 47.4065 320.545 47.0585 320.545C46.6998 320.545 46.3855 320.62 46.1156 320.769C45.8457 320.914 45.6362 321.122 45.4871 321.392C45.3415 321.662 45.2687 321.983 45.2687 322.356H43.3884C43.3884 321.664 43.5464 321.062 43.8624 320.55C44.1785 320.039 44.6135 319.643 45.1675 319.363C45.725 319.082 46.3642 318.942 47.0851 318.942C47.8166 318.942 48.4594 319.078 49.0134 319.352C49.5673 319.625 49.997 320 50.3024 320.476C50.6114 320.952 50.7658 321.495 50.7658 322.106C50.7658 322.514 50.6877 322.915 50.5315 323.31C50.3752 323.704 50.1 324.141 49.7058 324.62C49.3152 325.099 48.7665 325.68 48.0599 326.362L46.1795 328.274V328.349H50.931V330H43.4523ZM56.0142 317.85C58.1292 317.85 59.7192 319.17 59.7192 321.03C59.7192 322.875 58.1292 324.195 56.0142 324.195C53.8992 324.195 52.3092 322.875 52.3092 321.03C52.3092 319.17 53.8992 317.85 56.0142 317.85ZM56.0142 319.47C54.9942 319.47 54.2292 320.04 54.2292 321.03C54.2292 322.02 54.9942 322.59 56.0142 322.59C57.0342 322.59 57.7842 322.02 57.7842 321.03C57.7842 320.04 57.0342 319.47 56.0142 319.47ZM61.6392 317.445H63.6492V324.39H61.6392V317.445ZM54.3792 324.96H63.6492V328.77H56.3592V330.45H54.4092V327.33H61.6692V326.505H54.3792V324.96ZM54.4092 329.64H63.9942V331.185H54.4092V329.64ZM70.07 332.317V318.782H73.9212V320.263H71.9237V330.842H73.9212V332.317H70.07ZM76.1071 324.315H85.8721V325.89H76.1071V324.315ZM74.6371 328.2H87.2071V329.805H74.6371V328.2ZM79.9171 325.11H81.9121V328.905H79.9171V325.11ZM76.1071 318.39H85.7521V319.98H78.1321V324.915H76.1071V318.39ZM77.5171 321.33H85.4371V322.89H77.5171V321.33ZM91.7716 318.782V332.317H87.9204V330.842H89.9179V320.263H87.9204V318.782H91.7716Z" fill="black"/>
<rect x="113" y="305" width="293" height="308" rx="20" fill="#D9D9D9"/>
<path d="M122.182 275.445H124.177V283.185H122.182V275.445ZM123.622 278.46H126.022V280.095H123.622V278.46ZM118.192 276.24H120.322C120.322 279.93 118.012 282.435 113.872 283.515L113.092 281.94C116.497 281.085 118.192 279.315 118.192 277.23V276.24ZM113.752 276.24H119.392V277.815H113.752V276.24ZM115.162 283.74H124.177V289.185H115.162V283.74ZM122.212 285.315H117.127V287.61H122.212V285.315ZM129.861 276.51H131.481V278.535C131.481 281.97 130.281 285.195 127.656 286.485L126.456 284.88C128.796 283.785 129.861 281.115 129.861 278.535V276.51ZM130.266 276.51H131.856V278.535C131.856 281.025 132.846 283.56 135.066 284.64L133.866 286.23C131.361 284.955 130.266 281.865 130.266 278.535V276.51ZM135.621 275.445H137.631V289.335H135.621V275.445ZM137.181 280.785H139.641V282.45H137.181V280.785ZM144.71 276.36C146.9 276.36 148.535 277.785 148.535 279.78C148.535 281.79 146.9 283.215 144.71 283.215C142.535 283.215 140.87 281.79 140.87 279.78C140.87 277.785 142.535 276.36 144.71 276.36ZM144.71 278.07C143.645 278.07 142.835 278.7 142.835 279.78C142.835 280.875 143.645 281.505 144.71 281.505C145.775 281.505 146.585 280.875 146.585 279.78C146.585 278.7 145.775 278.07 144.71 278.07ZM149.84 275.43H151.835V289.365H149.84V275.43ZM140.54 286.545L140.3 284.94C142.745 284.94 146.15 284.91 149.075 284.475L149.225 285.915C146.21 286.515 142.94 286.545 140.54 286.545ZM166.099 275.445H168.094V282.375H166.099V275.445ZM167.284 278.1H169.924V279.735H167.284V278.1ZM157.564 276.09H164.179V281.865H157.564V276.09ZM162.214 277.65H159.529V280.305H162.214V277.65ZM158.914 282.93H168.094V286.74H160.924V288.39H158.944V285.3H166.129V284.46H158.914V282.93ZM158.944 287.625H168.499V289.185H158.944V287.625Z" fill="black"/>
<path d="M40.9824 669.091V680H39.0062V671.014H38.9423L36.3908 672.644V670.833L39.1021 669.091H40.9824ZM43.4523 680V678.572L47.2396 674.86C47.6018 674.494 47.9036 674.169 48.1451 673.885C48.3866 673.601 48.5677 673.326 48.6884 673.059C48.8092 672.793 48.8695 672.509 48.8695 672.207C48.8695 671.863 48.7914 671.568 48.6352 671.323C48.4789 671.074 48.2641 670.882 47.9906 670.748C47.7172 670.613 47.4065 670.545 47.0585 670.545C46.6998 670.545 46.3855 670.62 46.1156 670.769C45.8457 670.914 45.6362 671.122 45.4871 671.392C45.3415 671.662 45.2687 671.983 45.2687 672.356H43.3884C43.3884 671.664 43.5464 671.062 43.8624 670.55C44.1785 670.039 44.6135 669.643 45.1675 669.363C45.725 669.082 46.3642 668.942 47.0851 668.942C47.8166 668.942 48.4594 669.078 49.0134 669.352C49.5673 669.625 49.997 670 50.3024 670.476C50.6114 670.952 50.7658 671.495 50.7658 672.106C50.7658 672.514 50.6877 672.915 50.5315 673.31C50.3752 673.704 50.1 674.141 49.7058 674.62C49.3152 675.099 48.7665 675.68 48.0599 676.362L46.1795 678.274V678.349H50.931V680H43.4523ZM56.0142 667.85C58.1292 667.85 59.7192 669.17 59.7192 671.03C59.7192 672.875 58.1292 674.195 56.0142 674.195C53.8992 674.195 52.3092 672.875 52.3092 671.03C52.3092 669.17 53.8992 667.85 56.0142 667.85ZM56.0142 669.47C54.9942 669.47 54.2292 670.04 54.2292 671.03C54.2292 672.02 54.9942 672.59 56.0142 672.59C57.0342 672.59 57.7842 672.02 57.7842 671.03C57.7842 670.04 57.0342 669.47 56.0142 669.47ZM61.6392 667.445H63.6492V674.39H61.6392V667.445ZM54.3792 674.96H63.6492V678.77H56.3592V680.45H54.4092V677.33H61.6692V676.505H54.3792V674.96ZM54.4092 679.64H63.9942V681.185H54.4092V679.64ZM70.07 682.317V668.782H73.9212V670.263H71.9237V680.842H73.9212V682.317H70.07ZM76.1071 674.315H85.8721V675.89H76.1071V674.315ZM74.6371 678.2H87.2071V679.805H74.6371V678.2ZM79.9171 675.11H81.9121V678.905H79.9171V675.11ZM76.1071 668.39H85.7521V669.98H78.1321V674.915H76.1071V668.39ZM77.5171 671.33H85.4371V672.89H77.5171V671.33ZM91.7716 668.782V682.317H87.9204V680.842H89.9179V670.263H87.9204V668.782H91.7716Z" fill="black"/>
<rect x="113" y="655" width="293" height="308" rx="20" fill="#D9D9D9"/>
<path d="M122.182 625.445H124.177V633.185H122.182V625.445ZM123.622 628.46H126.022V630.095H123.622V628.46ZM118.192 626.24H120.322C120.322 629.93 118.012 632.435 113.872 633.515L113.092 631.94C116.497 631.085 118.192 629.315 118.192 627.23V626.24ZM113.752 626.24H119.392V627.815H113.752V626.24ZM115.162 633.74H124.177V639.185H115.162V633.74ZM122.212 635.315H117.127V637.61H122.212V635.315ZM129.861 626.51H131.481V628.535C131.481 631.97 130.281 635.195 127.656 636.485L126.456 634.88C128.796 633.785 129.861 631.115 129.861 628.535V626.51ZM130.266 626.51H131.856V628.535C131.856 631.025 132.846 633.56 135.066 634.64L133.866 636.23C131.361 634.955 130.266 631.865 130.266 628.535V626.51ZM135.621 625.445H137.631V639.335H135.621V625.445ZM137.181 630.785H139.641V632.45H137.181V630.785ZM144.71 626.36C146.9 626.36 148.535 627.785 148.535 629.78C148.535 631.79 146.9 633.215 144.71 633.215C142.535 633.215 140.87 631.79 140.87 629.78C140.87 627.785 142.535 626.36 144.71 626.36ZM144.71 628.07C143.645 628.07 142.835 628.7 142.835 629.78C142.835 630.875 143.645 631.505 144.71 631.505C145.775 631.505 146.585 630.875 146.585 629.78C146.585 628.7 145.775 628.07 144.71 628.07ZM149.84 625.43H151.835V639.365H149.84V625.43ZM140.54 636.545L140.3 634.94C142.745 634.94 146.15 634.91 149.075 634.475L149.225 635.915C146.21 636.515 142.94 636.545 140.54 636.545ZM166.099 625.445H168.094V632.375H166.099V625.445ZM167.284 628.1H169.924V629.735H167.284V628.1ZM157.564 626.09H164.179V631.865H157.564V626.09ZM162.214 627.65H159.529V630.305H162.214V627.65ZM158.914 632.93H168.094V636.74H160.924V638.39H158.944V635.3H166.129V634.46H158.914V632.93ZM158.944 637.625H168.499V639.185H158.944V637.625Z" fill="black"/>
<mask id="path-17-inside-1_230_2963" fill="white">
<path d="M104 83C104 78.5817 107.582 75 112 75H346C350.418 75 354 78.5817 354 83V123H104V83Z"/>
</mask>
<path d="M104 83C104 78.5817 107.582 75 112 75H346C350.418 75 354 78.5817 354 83V123H104V83Z" fill="white"/>
<path d="M104 75H354H104ZM354 124H104V122H354V124ZM104 123V75V123ZM354 75V123V75Z" fill="#EEF1F4" mask="url(#path-17-inside-1_230_2963)"/>
<path d="M117.034 105V103.477L121.074 99.517C121.46 99.1269 121.782 98.7803 122.04 98.4773C122.297 98.1742 122.491 97.8807 122.619 97.5966C122.748 97.3125 122.812 97.0095 122.812 96.6875C122.812 96.3201 122.729 96.0057 122.562 95.7443C122.396 95.4792 122.167 95.2746 121.875 95.1307C121.583 94.9867 121.252 94.9148 120.881 94.9148C120.498 94.9148 120.163 94.9943 119.875 95.1534C119.587 95.3087 119.364 95.5303 119.205 95.8182C119.049 96.1061 118.972 96.4489 118.972 96.8466H116.966C116.966 96.108 117.134 95.4659 117.472 94.9205C117.809 94.375 118.273 93.9527 118.864 93.6534C119.458 93.3542 120.14 93.2045 120.909 93.2045C121.689 93.2045 122.375 93.3504 122.966 93.642C123.557 93.9337 124.015 94.3333 124.341 94.8409C124.67 95.3485 124.835 95.928 124.835 96.5795C124.835 97.0152 124.752 97.4432 124.585 97.8636C124.419 98.2841 124.125 98.75 123.705 99.2614C123.288 99.7727 122.703 100.392 121.949 101.119L119.943 103.159V103.239H125.011V105H117.034ZM130.953 105.222C130.017 105.222 129.214 104.985 128.544 104.511C127.877 104.034 127.364 103.347 127.004 102.449C126.648 101.547 126.47 100.462 126.47 99.1932C126.474 97.9242 126.653 96.8447 127.01 95.9545C127.369 95.0606 127.883 94.3788 128.549 93.9091C129.22 93.4394 130.021 93.2045 130.953 93.2045C131.885 93.2045 132.686 93.4394 133.356 93.9091C134.027 94.3788 134.54 95.0606 134.896 95.9545C135.256 96.8485 135.436 97.928 135.436 99.1932C135.436 100.466 135.256 101.553 134.896 102.455C134.54 103.352 134.027 104.038 133.356 104.511C132.689 104.985 131.888 105.222 130.953 105.222ZM130.953 103.443C131.68 103.443 132.254 103.085 132.674 102.369C133.099 101.65 133.311 100.591 133.311 99.1932C133.311 98.2689 133.214 97.4924 133.021 96.8636C132.828 96.2348 132.555 95.7614 132.203 95.4432C131.85 95.1212 131.434 94.9602 130.953 94.9602C130.229 94.9602 129.657 95.3201 129.237 96.0398C128.816 96.7557 128.604 97.8068 128.6 99.1932C128.597 100.121 128.689 100.902 128.879 101.534C129.072 102.167 129.345 102.644 129.697 102.966C130.049 103.284 130.468 103.443 130.953 103.443ZM137.003 105V103.477L141.043 99.517C141.43 99.1269 141.752 98.7803 142.009 98.4773C142.267 98.1742 142.46 97.8807 142.589 97.5966C142.717 97.3125 142.782 97.0095 142.782 96.6875C142.782 96.3201 142.699 96.0057 142.532 95.7443C142.365 95.4792 142.136 95.2746 141.844 95.1307C141.553 94.9867 141.221 94.9148 140.85 94.9148C140.467 94.9148 140.132 94.9943 139.844 95.1534C139.556 95.3087 139.333 95.5303 139.174 95.8182C139.019 96.1061 138.941 96.4489 138.941 96.8466H136.935C136.935 96.108 137.104 95.4659 137.441 94.9205C137.778 94.375 138.242 93.9527 138.833 93.6534C139.428 93.3542 140.11 93.2045 140.878 93.2045C141.659 93.2045 142.344 93.3504 142.935 93.642C143.526 93.9337 143.985 94.3333 144.31 94.8409C144.64 95.3485 144.805 95.928 144.805 96.5795C144.805 97.0152 144.721 97.4432 144.555 97.8636C144.388 98.2841 144.094 98.75 143.674 99.2614C143.257 99.7727 142.672 100.392 141.918 101.119L139.913 103.159V103.239H144.981V105H137.003ZM146.161 102.841V101.165L151.098 93.3636H152.496V95.75H151.644L148.32 101.017V101.108H155.212V102.841H146.161ZM151.712 105V102.33L151.735 101.58V93.3636H153.723V105H151.712ZM160.47 105V93.3636H167.924V95.1307H162.578V98.2898H167.413V100.057H162.578V105H160.47ZM172.657 105.17C171.782 105.17 171.026 104.989 170.39 104.625C169.757 104.258 169.27 103.739 168.929 103.068C168.589 102.394 168.418 101.6 168.418 100.688C168.418 99.7898 168.589 99.0019 168.929 98.3239C169.274 97.642 169.755 97.1117 170.373 96.733C170.99 96.3504 171.715 96.1591 172.549 96.1591C173.087 96.1591 173.594 96.2462 174.071 96.4205C174.553 96.5909 174.977 96.8561 175.344 97.2159C175.715 97.5758 176.007 98.0341 176.219 98.5909C176.431 99.1439 176.537 99.803 176.537 100.568V101.199H169.384V99.8125H174.566C174.562 99.4186 174.477 99.0682 174.31 98.7614C174.143 98.4508 173.91 98.2064 173.611 98.0284C173.316 97.8504 172.971 97.7614 172.577 97.7614C172.157 97.7614 171.787 97.8636 171.469 98.0682C171.151 98.2689 170.903 98.5341 170.725 98.8636C170.551 99.1894 170.462 99.5473 170.458 99.9375V101.148C170.458 101.655 170.551 102.091 170.736 102.455C170.922 102.814 171.181 103.091 171.515 103.284C171.848 103.473 172.238 103.568 172.685 103.568C172.984 103.568 173.255 103.527 173.498 103.443C173.74 103.356 173.95 103.229 174.128 103.062C174.306 102.896 174.441 102.689 174.532 102.443L176.452 102.659C176.331 103.167 176.1 103.61 175.759 103.989C175.422 104.364 174.99 104.655 174.464 104.864C173.937 105.068 173.335 105.17 172.657 105.17ZM178.048 105V93.3636H180.105V97.7159H180.19C180.296 97.5038 180.446 97.2784 180.639 97.0398C180.832 96.7973 181.094 96.5909 181.423 96.4205C181.753 96.2462 182.173 96.1591 182.685 96.1591C183.359 96.1591 183.967 96.3314 184.509 96.6761C185.054 97.017 185.486 97.5227 185.804 98.1932C186.126 98.8598 186.287 99.678 186.287 100.648C186.287 101.606 186.13 102.42 185.815 103.091C185.501 103.761 185.073 104.273 184.531 104.625C183.99 104.977 183.376 105.153 182.69 105.153C182.19 105.153 181.776 105.07 181.446 104.903C181.117 104.737 180.851 104.536 180.651 104.301C180.454 104.062 180.3 103.837 180.19 103.625H180.071V105H178.048ZM180.065 100.636C180.065 101.201 180.145 101.695 180.304 102.119C180.467 102.544 180.7 102.875 181.003 103.114C181.31 103.348 181.681 103.466 182.117 103.466C182.571 103.466 182.952 103.345 183.259 103.102C183.565 102.856 183.796 102.521 183.952 102.097C184.111 101.669 184.19 101.182 184.19 100.636C184.19 100.095 184.113 99.6136 183.957 99.1932C183.802 98.7727 183.571 98.4432 183.264 98.2045C182.957 97.9659 182.575 97.8466 182.117 97.8466C181.677 97.8466 181.304 97.9621 180.997 98.1932C180.69 98.4242 180.457 98.7481 180.298 99.1648C180.143 99.5814 180.065 100.072 180.065 100.636ZM187.716 105V96.2727H189.71V97.7273H189.801C189.96 97.2235 190.233 96.8352 190.619 96.5625C191.009 96.286 191.454 96.1477 191.954 96.1477C192.068 96.1477 192.195 96.1534 192.335 96.1648C192.479 96.1723 192.598 96.1856 192.693 96.2045V98.0966C192.606 98.0663 192.467 98.0398 192.278 98.017C192.092 97.9905 191.913 97.9773 191.738 97.9773C191.363 97.9773 191.026 98.0587 190.727 98.2216C190.431 98.3807 190.199 98.6023 190.028 98.8864C189.858 99.1705 189.772 99.4981 189.772 99.8693V105H187.716ZM199.302 101.33V96.2727H201.359V105H199.364V103.449H199.273C199.076 103.937 198.753 104.337 198.302 104.648C197.855 104.958 197.304 105.114 196.648 105.114C196.076 105.114 195.571 104.987 195.131 104.733C194.696 104.475 194.355 104.102 194.109 103.614C193.862 103.121 193.739 102.527 193.739 101.83V96.2727H195.796V101.511C195.796 102.064 195.948 102.504 196.251 102.83C196.554 103.155 196.951 103.318 197.444 103.318C197.747 103.318 198.04 103.244 198.325 103.097C198.609 102.949 198.842 102.729 199.023 102.438C199.209 102.142 199.302 101.773 199.302 101.33ZM205.665 105.176C205.112 105.176 204.614 105.078 204.171 104.881C203.731 104.68 203.383 104.384 203.125 103.994C202.871 103.604 202.745 103.123 202.745 102.551C202.745 102.059 202.836 101.652 203.017 101.33C203.199 101.008 203.447 100.75 203.762 100.557C204.076 100.364 204.43 100.218 204.824 100.119C205.222 100.017 205.633 99.9432 206.057 99.8977C206.568 99.8447 206.983 99.7973 207.301 99.7557C207.62 99.7102 207.851 99.642 207.995 99.5511C208.142 99.4564 208.216 99.3106 208.216 99.1136V99.0795C208.216 98.6515 208.089 98.3201 207.836 98.0852C207.582 97.8504 207.216 97.733 206.739 97.733C206.235 97.733 205.836 97.8428 205.54 98.0625C205.248 98.2822 205.051 98.5417 204.949 98.8409L203.029 98.5682C203.18 98.0379 203.43 97.5947 203.779 97.2386C204.127 96.8788 204.553 96.6098 205.057 96.4318C205.561 96.25 206.118 96.1591 206.728 96.1591C207.148 96.1591 207.567 96.2083 207.983 96.3068C208.4 96.4053 208.781 96.5682 209.125 96.7955C209.47 97.0189 209.746 97.3239 209.955 97.7102C210.167 98.0966 210.273 98.5795 210.273 99.1591V105H208.296V103.801H208.228C208.103 104.044 207.926 104.271 207.699 104.483C207.476 104.691 207.193 104.86 206.853 104.989C206.515 105.114 206.12 105.176 205.665 105.176ZM206.199 103.665C206.612 103.665 206.97 103.583 207.273 103.42C207.576 103.254 207.809 103.034 207.972 102.761C208.139 102.489 208.222 102.191 208.222 101.869V100.841C208.157 100.894 208.048 100.943 207.892 100.989C207.741 101.034 207.57 101.074 207.381 101.108C207.192 101.142 207.004 101.172 206.818 101.199C206.633 101.225 206.472 101.248 206.336 101.267C206.029 101.309 205.754 101.377 205.512 101.472C205.269 101.566 205.078 101.699 204.938 101.869C204.798 102.036 204.728 102.252 204.728 102.517C204.728 102.896 204.866 103.182 205.142 103.375C205.419 103.568 205.771 103.665 206.199 103.665ZM212.021 105V96.2727H214.016V97.7273H214.106C214.266 97.2235 214.538 96.8352 214.925 96.5625C215.315 96.286 215.76 96.1477 216.26 96.1477C216.373 96.1477 216.5 96.1534 216.641 96.1648C216.784 96.1723 216.904 96.1856 216.998 96.2045V98.0966C216.911 98.0663 216.773 98.0398 216.584 98.017C216.398 97.9905 216.218 97.9773 216.044 97.9773C215.669 97.9773 215.332 98.0587 215.033 98.2216C214.737 98.3807 214.504 98.6023 214.334 98.8864C214.163 99.1705 214.078 99.4981 214.078 99.8693V105H212.021ZM219.589 108.273C219.309 108.273 219.049 108.25 218.811 108.205C218.576 108.163 218.388 108.114 218.248 108.057L218.725 106.455C219.025 106.542 219.292 106.583 219.526 106.58C219.761 106.576 219.968 106.502 220.146 106.358C220.328 106.218 220.481 105.983 220.606 105.653L220.782 105.182L217.617 96.2727H219.799L221.811 102.864H221.901L223.919 96.2727H226.106L222.612 106.057C222.449 106.519 222.233 106.915 221.964 107.244C221.695 107.578 221.365 107.831 220.975 108.006C220.589 108.184 220.127 108.273 219.589 108.273Z" fill="#545F71"/>
<path d="M326 96L330 92L334 96M334 102L330 106L326 102" stroke="#545F71" stroke-width="2" stroke-linecap="round" stroke-linejoin="round"/>
</g>
<defs>
<clipPath id="clip0_230_2963">
<rect width="441" height="852" fill="white"/>
</clipPath>
</defs>
</svg>
