<svg width="31" height="28" viewBox="0 0 31 28" fill="none" xmlns="http://www.w3.org/2000/svg">
<path d="M28.7423 11.7934H6.59312L13.3723 3.4199C13.6893 3.02769 13.8418 2.52206 13.7963 2.01422C13.7508 1.50638 13.5109 1.03794 13.1296 0.711949C12.7482 0.385961 12.2565 0.229127 11.7626 0.275949C11.2688 0.322771 10.8133 0.569414 10.4963 0.961619L1.15854 12.4848C1.09572 12.5765 1.03954 12.6727 0.990461 12.7729C0.990461 12.8689 0.990462 12.9265 0.859733 13.0226C0.775083 13.2428 0.730761 13.4772 0.729004 13.7139C0.730761 13.9507 0.775083 14.1851 0.859733 14.4053C0.859733 14.5014 0.859732 14.559 0.990461 14.655C1.03954 14.7551 1.09572 14.8514 1.15854 14.9431L10.4963 26.4663C10.6719 26.6831 10.8918 26.8574 11.1403 26.9769C11.3889 27.0964 11.66 27.1581 11.9343 27.1577C12.3707 27.1585 12.7936 27.0023 13.1296 26.7159C13.3187 26.5547 13.475 26.3567 13.5896 26.1333C13.7041 25.9098 13.7747 25.6653 13.7973 25.4138C13.8198 25.1622 13.7939 24.9086 13.721 24.6674C13.6481 24.4261 13.5296 24.2021 13.3723 24.008L6.59312 15.6345H28.7423C29.2376 15.6345 29.7126 15.4321 30.0629 15.072C30.4131 14.7118 30.6098 14.2233 30.6098 13.7139C30.6098 13.2046 30.4131 12.7161 30.0629 12.3559C29.7126 11.9958 29.2376 11.7934 28.7423 11.7934Z" fill="white"/>
</svg>
