<svg width="428" height="926" viewBox="0 0 428 926" fill="none" xmlns="http://www.w3.org/2000/svg">
<rect width="428" height="926" fill="white"/>
<path d="M135.896 142.182H141.585L147.594 156.841H147.849L153.858 142.182H159.547V164H155.072V149.799H154.891L149.245 163.893H146.198L140.552 149.746H140.371V164H135.896V142.182ZM166.064 170.136C165.489 170.136 164.949 170.09 164.445 169.998C163.948 169.913 163.536 169.803 163.209 169.668L164.232 166.28C164.764 166.443 165.244 166.532 165.67 166.546C166.103 166.56 166.476 166.461 166.789 166.248C167.108 166.035 167.367 165.673 167.566 165.161L167.833 164.469L161.963 147.636H166.735L170.123 159.653H170.294L173.713 147.636H178.518L172.158 165.768C171.852 166.649 171.437 167.416 170.911 168.07C170.393 168.73 169.736 169.238 168.941 169.593C168.145 169.955 167.186 170.136 166.064 170.136ZM187.869 164V142.182H196.477C198.132 142.182 199.542 142.498 200.706 143.13C201.871 143.755 202.759 144.625 203.37 145.74C203.988 146.848 204.297 148.126 204.297 149.575C204.297 151.024 203.984 152.303 203.359 153.411C202.734 154.518 201.828 155.381 200.642 155.999C199.463 156.617 198.036 156.926 196.36 156.926H190.873V153.229H195.614C196.502 153.229 197.233 153.077 197.809 152.771C198.391 152.459 198.824 152.029 199.108 151.482C199.4 150.928 199.545 150.293 199.545 149.575C199.545 148.851 199.4 148.219 199.108 147.679C198.824 147.132 198.391 146.71 197.809 146.411C197.226 146.106 196.488 145.953 195.593 145.953H192.482V164H187.869ZM207.208 164V147.636H211.607V150.491H211.778C212.076 149.476 212.577 148.709 213.28 148.19C213.983 147.665 214.793 147.402 215.709 147.402C215.936 147.402 216.181 147.416 216.444 147.445C216.707 147.473 216.938 147.512 217.137 147.562V151.589C216.923 151.525 216.629 151.468 216.252 151.418C215.876 151.369 215.531 151.344 215.219 151.344C214.551 151.344 213.955 151.489 213.429 151.781C212.911 152.065 212.499 152.462 212.193 152.974C211.895 153.485 211.746 154.075 211.746 154.742V164H207.208ZM226.115 164.32C224.46 164.32 223.029 163.968 221.821 163.265C220.621 162.555 219.694 161.567 219.041 160.303C218.387 159.032 218.061 157.558 218.061 155.882C218.061 154.192 218.387 152.714 219.041 151.45C219.694 150.179 220.621 149.192 221.821 148.489C223.029 147.778 224.46 147.423 226.115 147.423C227.77 147.423 229.197 147.778 230.397 148.489C231.605 149.192 232.535 150.179 233.189 151.45C233.842 152.714 234.169 154.192 234.169 155.882C234.169 157.558 233.842 159.032 233.189 160.303C232.535 161.567 231.605 162.555 230.397 163.265C229.197 163.968 227.77 164.32 226.115 164.32ZM226.136 160.804C226.889 160.804 227.517 160.591 228.022 160.165C228.526 159.732 228.906 159.142 229.162 158.396C229.424 157.651 229.556 156.802 229.556 155.85C229.556 154.898 229.424 154.05 229.162 153.304C228.906 152.558 228.526 151.969 228.022 151.536C227.517 151.102 226.889 150.886 226.136 150.886C225.376 150.886 224.737 151.102 224.218 151.536C223.707 151.969 223.32 152.558 223.057 153.304C222.801 154.05 222.674 154.898 222.674 155.85C222.674 156.802 222.801 157.651 223.057 158.396C223.32 159.142 223.707 159.732 224.218 160.165C224.737 160.591 225.376 160.804 226.136 160.804ZM245.919 147.636V151.045H235.82V147.636H245.919ZM238.132 164V146.454C238.132 145.268 238.363 144.284 238.824 143.503C239.293 142.722 239.932 142.136 240.742 141.745C241.551 141.354 242.471 141.159 243.501 141.159C244.197 141.159 244.833 141.212 245.408 141.319C245.99 141.425 246.424 141.521 246.708 141.607L245.898 145.016C245.721 144.959 245.5 144.906 245.238 144.856C244.982 144.806 244.719 144.781 244.449 144.781C243.782 144.781 243.316 144.938 243.054 145.25C242.791 145.555 242.659 145.985 242.659 146.539V164H238.132ZM248.692 164V147.636H253.23V164H248.692ZM250.972 145.527C250.297 145.527 249.718 145.303 249.235 144.856C248.759 144.401 248.521 143.858 248.521 143.226C248.521 142.601 248.759 142.065 249.235 141.617C249.718 141.163 250.297 140.935 250.972 140.935C251.646 140.935 252.222 141.163 252.698 141.617C253.181 142.065 253.422 142.601 253.422 143.226C253.422 143.858 253.181 144.401 252.698 144.856C252.222 145.303 251.646 145.527 250.972 145.527ZM261.404 142.182V164H256.866V142.182H261.404ZM272.497 164.32C270.814 164.32 269.365 163.979 268.15 163.297C266.943 162.608 266.013 161.635 265.359 160.378C264.706 159.114 264.379 157.619 264.379 155.893C264.379 154.21 264.706 152.732 265.359 151.461C266.013 150.19 266.932 149.199 268.118 148.489C269.312 147.778 270.711 147.423 272.316 147.423C273.395 147.423 274.4 147.597 275.331 147.945C276.268 148.286 277.085 148.801 277.781 149.49C278.484 150.179 279.031 151.045 279.422 152.089C279.812 153.126 280.008 154.341 280.008 155.733V156.979H266.19V154.167H275.736C275.736 153.513 275.594 152.935 275.309 152.43C275.025 151.926 274.631 151.532 274.127 151.248C273.63 150.957 273.051 150.811 272.39 150.811C271.702 150.811 271.091 150.971 270.558 151.29C270.032 151.603 269.621 152.026 269.322 152.558C269.024 153.084 268.871 153.67 268.864 154.316V156.99C268.864 157.8 269.013 158.499 269.312 159.089C269.617 159.678 270.047 160.133 270.601 160.452C271.155 160.772 271.812 160.932 272.572 160.932C273.076 160.932 273.537 160.861 273.956 160.719C274.376 160.577 274.734 160.364 275.032 160.08C275.331 159.795 275.558 159.447 275.714 159.036L279.912 159.312C279.699 160.321 279.262 161.202 278.601 161.955C277.948 162.7 277.103 163.283 276.066 163.702C275.036 164.114 273.846 164.32 272.497 164.32Z" fill="#454B60"/>
<path fill-rule="evenodd" clip-rule="evenodd" d="M343.6 404.6V412C343.6 413.9 342.1 415.5 340.1 415.5H325.5C323.6 415.5 322 413.9 322 412V397.4C322 395.4 323.6 393.9 325.5 393.9H332.8C333 393.9 333.2 394.1 333.2 394.3C333.2 394.5 333 394.7 332.8 394.7H325.5C324 394.7 322.8 395.9 322.8 397.4V412C322.8 413.5 324 414.7 325.5 414.7H340.1C341.6 414.7 342.8 413.5 342.8 412V404.6C342.8 404.4 343 404.3 343.2 404.3C343.4 404.3 343.6 404.4 343.6 404.6ZM346.2 395.9L344.2 398L333.9 408.2C333.833 408.266 333.733 408.333 333.6 408.4L328.9 409.3C328.833 409.3 328.8 409.3 328.8 409.3C328.4 409.3 328.1 409 328.2 408.6L329.1 403.9C329.167 403.766 329.233 403.667 329.3 403.6L340.5 392.3L341.6 391.3C341.9 391 342.3 390.8 342.8 390.8C343.2 390.8 343.7 391 344 391.3L346.2 393.5C346.9 394.2 346.9 395.3 346.2 395.9V395.9ZM342.8 398.2L339.3 394.7L329.9 404.1L329 408.5L333.4 407.6L342.8 398.2ZM345.7 394L343.5 391.8C343.3 391.6 343.067 391.5 342.8 391.5C342.533 391.5 342.3 391.6 342.1 391.8L339.8 394.1L343.4 397.7L345.7 395.4C346.1 395 346.1 394.4 345.7 394V394Z" fill="#454B60"/>
<path fill-rule="evenodd" clip-rule="evenodd" d="M343.5 467.8V475.2C343.5 477.1 341.9 478.7 340 478.7H325.3C323.4 478.7 321.9 477.1 321.9 475.2V460.6C321.9 458.6 323.4 457.1 325.3 457.1H332.7C332.9 457.1 333.1 457.3 333.1 457.5C333.1 457.7 332.9 457.9 332.7 457.9H325.3C323.9 457.9 322.6 459.1 322.6 460.6V475.2C322.6 476.7 323.9 477.9 325.3 477.9H340C341.5 477.9 342.7 476.7 342.7 475.2V467.8C342.7 467.6 342.9 467.5 343.1 467.5C343.3 467.5 343.5 467.6 343.5 467.8ZM346.1 459.1L344 461.2L333.8 471.4C333.733 471.467 333.633 471.533 333.5 471.6L328.7 472.5C328.7 472.5 328.667 472.5 328.6 472.5C328.3 472.5 328 472.2 328.1 471.8L329 467.1C329 466.967 329.067 466.867 329.2 466.8L340.4 455.5L341.4 454.5C341.8 454.2 342.2 454 342.7 454C343.1 454 343.5 454.2 343.9 454.5L346.1 456.7C346.7 457.4 346.7 458.5 346.1 459.1V459.1ZM342.7 461.4L339.1 457.9L329.8 467.3L328.9 471.7L333.3 470.8L342.7 461.4ZM345.5 457.2L343.4 455C343.2 454.8 342.967 454.7 342.7 454.7C342.433 454.7 342.2 454.8 342 455L339.7 457.3L343.2 460.9L345.5 458.6C345.9 458.2 345.9 457.6 345.5 457.2V457.2Z" fill="#454B60"/>
<path fill-rule="evenodd" clip-rule="evenodd" d="M343.5 533.6V541C343.5 542.9 341.9 544.5 340 544.5H325.3C323.4 544.5 321.9 542.9 321.9 541V526.3C321.9 524.4 323.4 522.9 325.3 522.9H332.7C332.9 522.9 333.1 523 333.1 523.2C333.1 523.5 332.9 523.6 332.7 523.6H325.3C323.9 523.6 322.6 524.8 322.6 526.3V541C322.6 542.5 323.9 543.7 325.3 543.7H340C341.5 543.7 342.7 542.5 342.7 541V533.6C342.7 533.4 342.9 533.2 343.1 533.2C343.3 533.2 343.5 533.4 343.5 533.6ZM346.1 524.9L344 526.9L333.8 537.2C333.733 537.266 333.633 537.3 333.5 537.3L328.7 538.3C328.7 538.3 328.667 538.3 328.6 538.3C328.3 538.3 328 538 328.1 537.6L329 532.8C329 532.733 329.067 532.633 329.2 532.5L340.4 521.3L341.4 520.3C341.8 519.9 342.2 519.8 342.7 519.8C343.1 519.8 343.5 519.9 343.9 520.3L346.1 522.5C346.7 523.1 346.7 524.2 346.1 524.9V524.9ZM342.7 527.2L339.1 523.7L329.8 533L328.9 537.5L333.3 536.6L342.7 527.2ZM345.5 523L343.4 520.8C343.2 520.6 342.967 520.5 342.7 520.5C342.433 520.5 342.2 520.6 342 520.8L339.7 523.1L343.2 526.6L345.5 524.3C345.9 524 345.9 523.3 345.5 523V523Z" fill="#454B60"/>
<path fill-rule="evenodd" clip-rule="evenodd" d="M343.5 602.301V609.601C343.5 611.501 341.9 613.101 340 613.101H325.3C323.4 613.101 321.9 611.501 321.9 609.601V595C321.9 593 323.4 591.5 325.3 591.5H332.7C332.9 591.5 333.1 591.7 333.1 591.9C333.1 592.1 332.9 592.301 332.7 592.301H325.3C323.9 592.301 322.6 593.5 322.6 595V609.601C322.6 611.101 323.9 612.301 325.3 612.301H340C341.5 612.301 342.7 611.101 342.7 609.601V602.301C342.7 602.001 342.9 601.9 343.1 601.9C343.3 601.9 343.5 602.001 343.5 602.301ZM346.1 593.5L344 595.601L333.8 605.801C333.733 605.867 333.633 605.934 333.5 606L328.7 606.9C328.7 606.9 328.667 606.9 328.6 606.9C328.3 606.9 328 606.6 328.1 606.2L329 601.5C329 601.367 329.067 601.267 329.2 601.2L340.4 589.9L341.4 588.9C341.8 588.6 342.2 588.4 342.7 588.4C343.1 588.4 343.5 588.6 343.9 588.9L346.1 591.101C346.7 591.801 346.7 592.9 346.1 593.5V593.5ZM342.7 595.9L339.1 592.301L329.8 601.7L328.9 606.101L333.3 605.2L342.7 595.9ZM345.5 591.7L343.4 589.5C343.2 589.3 342.967 589.2 342.7 589.2C342.433 589.2 342.2 589.3 342 589.5L339.7 591.801L343.2 595.4L345.5 593.101C345.9 592.701 345.9 592.1 345.5 591.7V591.7Z" fill="#454B60"/>
<path fill-rule="evenodd" clip-rule="evenodd" d="M343.5 675.6V683C343.5 684.9 341.9 686.5 340 686.5H325.3C323.4 686.5 321.9 684.9 321.9 683V668.4C321.9 666.4 323.4 664.9 325.3 664.9H332.7C332.9 664.9 333.1 665.1 333.1 665.3C333.1 665.5 332.9 665.7 332.7 665.7H325.3C323.9 665.7 322.6 666.9 322.6 668.4V683C322.6 684.5 323.9 685.7 325.3 685.7H340C341.5 685.7 342.7 684.5 342.7 683V675.6C342.7 675.4 342.9 675.3 343.1 675.3C343.3 675.3 343.5 675.4 343.5 675.6ZM346.1 666.9L344 669L333.8 679.2C333.733 679.266 333.633 679.333 333.5 679.4L328.7 680.3C328.7 680.3 328.667 680.3 328.6 680.3C328.3 680.3 328 680 328.1 679.6L329 674.9C329 674.766 329.067 674.667 329.2 674.6L340.4 663.3L341.4 662.3C341.8 662 342.2 661.8 342.7 661.8C343.1 661.8 343.5 662 343.9 662.3L346.1 664.5C346.7 665.2 346.7 666.3 346.1 666.9V666.9ZM342.7 669.2L339.1 665.7L329.8 675.1L328.9 679.5L333.3 678.6L342.7 669.2ZM345.5 665L343.4 662.8C343.2 662.6 342.967 662.5 342.7 662.5C342.433 662.5 342.2 662.6 342 662.8L339.7 665.1L343.2 668.7L345.5 666.4C345.9 666 345.9 665.4 345.5 665V665Z" fill="#454B60"/>
<path fill-rule="evenodd" clip-rule="evenodd" d="M343.5 739.1V746.5C343.5 748.4 341.9 749.9 340 749.9H325.3C323.4 749.9 321.9 748.4 321.9 746.5V731.8C321.9 729.9 323.4 728.3 325.3 728.3H332.7C332.9 728.3 333.1 728.5 333.1 728.7C333.1 728.9 332.9 729.1 332.7 729.1H325.3C323.9 729.1 322.6 730.3 322.6 731.8V746.5C322.6 748 323.9 749.2 325.3 749.2H340C341.5 749.2 342.7 748 342.7 746.5V739.1C342.7 738.9 342.9 738.7 343.1 738.7C343.3 738.7 343.5 738.9 343.5 739.1ZM346.1 730.4L344 732.4L333.8 742.6C333.733 742.734 333.633 742.8 333.5 742.8L328.7 743.8C328.7 743.8 328.667 743.8 328.6 743.8C328.3 743.8 328 743.4 328.1 743.1L329 738.3C329 738.167 329.067 738.067 329.2 738L340.4 726.8L341.4 725.7C341.8 725.4 342.2 725.2 342.7 725.2C343.1 725.2 343.5 725.4 343.9 725.7L346.1 727.9C346.7 728.6 346.7 729.7 346.1 730.4V730.4ZM342.7 732.7L339.1 729.1L329.8 738.5L328.9 742.9L333.3 742.1L342.7 732.7ZM345.5 728.4L343.4 726.3C343.2 726.1 342.967 726 342.7 726C342.433 726 342.2 726.1 342 726.3L339.7 728.6L343.2 732.1L345.5 729.8C345.9 729.4 345.9 728.8 345.5 728.4V728.4Z" fill="#454B60"/>
<path d="M70.3999 433.6H357.9" stroke="#454B60" stroke-width="2"/>
<path d="M73.2 496.8H360.8" stroke="#454B60" stroke-width="2"/>
<path d="M73.2 562.6H360.8" stroke="#454B60" stroke-width="2"/>
<path d="M73.2 636.7H360.8" stroke="#454B60" stroke-width="2"/>
<path d="M73.2 703.1H360.8" stroke="#454B60" stroke-width="2"/>
<path d="M73.2 766.5H360.8" stroke="#454B60" stroke-width="2"/>
<path d="M84.2955 400.955V415.5H82.5909L74.6648 404.08H74.5227V415.5H72.7614V400.955H74.4659L82.4205 412.403H82.5625V400.955H84.2955ZM90.8029 415.756C90.1116 415.756 89.4843 415.625 88.9208 415.365C88.3574 415.1 87.9099 414.719 87.5785 414.222C87.247 413.72 87.0813 413.114 87.0813 412.403C87.0813 411.778 87.2044 411.272 87.4506 410.884C87.6969 410.491 88.0259 410.183 88.4379 409.96C88.8498 409.738 89.3043 409.572 89.8015 409.463C90.3034 409.349 90.8076 409.259 91.3143 409.193C91.9772 409.108 92.5146 409.044 92.9265 409.001C93.3432 408.954 93.6462 408.876 93.8356 408.767C94.0297 408.658 94.1268 408.469 94.1268 408.199V408.142C94.1268 407.441 93.935 406.897 93.5515 406.509C93.1727 406.12 92.5974 405.926 91.8256 405.926C91.0254 405.926 90.3981 406.101 89.9435 406.452C89.489 406.802 89.1694 407.176 88.9847 407.574L87.3938 407.006C87.6779 406.343 88.0567 405.827 88.5302 405.457C89.0084 405.083 89.5292 404.823 90.0927 404.676C90.6609 404.525 91.2196 404.449 91.7688 404.449C92.1192 404.449 92.5217 404.491 92.9762 404.577C93.4355 404.657 93.8782 404.825 94.3043 405.081C94.7352 405.337 95.0927 405.723 95.3768 406.239C95.6609 406.755 95.8029 407.446 95.8029 408.312V415.5H94.1268V414.023H94.0415C93.9279 414.259 93.7385 414.513 93.4734 414.783C93.2082 415.053 92.8555 415.282 92.4151 415.472C91.9748 415.661 91.4374 415.756 90.8029 415.756ZM91.0586 414.25C91.7215 414.25 92.2802 414.12 92.7347 413.859C93.194 413.599 93.5397 413.263 93.7717 412.851C94.0084 412.439 94.1268 412.006 94.1268 411.551V410.017C94.0558 410.102 93.8995 410.18 93.658 410.251C93.4213 410.318 93.1467 410.377 92.8342 410.429C92.5264 410.476 92.2257 410.519 91.9322 410.557C91.6433 410.59 91.409 410.618 91.229 410.642C90.7934 410.699 90.3862 410.791 90.0075 410.919C89.6334 411.042 89.3304 411.229 89.0984 411.48C88.8711 411.726 88.7575 412.062 88.7575 412.489C88.7575 413.071 88.9729 413.511 89.4038 413.81C89.8394 414.103 90.391 414.25 91.0586 414.25ZM98.8622 415.5V404.591H100.482V406.295H100.624C100.851 405.713 101.218 405.261 101.724 404.939C102.231 404.612 102.839 404.449 103.55 404.449C104.269 404.449 104.868 404.612 105.347 404.939C105.83 405.261 106.206 405.713 106.476 406.295H106.589C106.869 405.732 107.288 405.285 107.847 404.953C108.405 404.617 109.075 404.449 109.857 404.449C110.832 404.449 111.63 404.754 112.25 405.365C112.87 405.971 113.18 406.916 113.18 408.199V415.5H111.504V408.199C111.504 407.394 111.284 406.819 110.844 406.473C110.403 406.127 109.885 405.955 109.288 405.955C108.521 405.955 107.927 406.187 107.506 406.651C107.084 407.11 106.874 407.692 106.874 408.398V415.5H105.169V408.028C105.169 407.408 104.968 406.909 104.565 406.53C104.163 406.146 103.644 405.955 103.01 405.955C102.574 405.955 102.167 406.071 101.788 406.303C101.414 406.535 101.111 406.857 100.879 407.268C100.652 407.676 100.538 408.147 100.538 408.682V415.5H98.8622ZM120.819 415.727C119.768 415.727 118.861 415.495 118.099 415.031C117.341 414.562 116.756 413.909 116.344 413.071C115.937 412.228 115.734 411.248 115.734 410.131C115.734 409.013 115.937 408.028 116.344 407.176C116.756 406.319 117.329 405.652 118.063 405.173C118.802 404.69 119.664 404.449 120.648 404.449C121.217 404.449 121.778 404.544 122.332 404.733C122.886 404.922 123.39 405.23 123.844 405.656C124.299 406.078 124.661 406.636 124.931 407.332C125.201 408.028 125.336 408.885 125.336 409.903V410.614H116.927V409.165H123.631C123.631 408.549 123.508 408 123.262 407.517C123.021 407.034 122.675 406.653 122.225 406.374C121.78 406.094 121.254 405.955 120.648 405.955C119.981 405.955 119.403 406.12 118.915 406.452C118.433 406.778 118.061 407.205 117.8 407.73C117.54 408.256 117.41 408.819 117.41 409.42V410.386C117.41 411.21 117.552 411.909 117.836 412.482C118.125 413.05 118.525 413.483 119.036 413.781C119.548 414.075 120.142 414.222 120.819 414.222C121.259 414.222 121.657 414.16 122.012 414.037C122.372 413.909 122.682 413.72 122.942 413.469C123.203 413.213 123.404 412.896 123.546 412.517L125.165 412.972C124.995 413.521 124.709 414.004 124.306 414.42C123.904 414.832 123.406 415.154 122.815 415.386C122.223 415.614 121.558 415.727 120.819 415.727Z" fill="#454B60"/>
<path d="M80.7159 467.591C80.6307 466.871 80.285 466.312 79.679 465.915C79.0729 465.517 78.3295 465.318 77.4489 465.318C76.8049 465.318 76.2415 465.422 75.7585 465.631C75.2803 465.839 74.9063 466.125 74.6364 466.49C74.3712 466.855 74.2386 467.269 74.2386 467.733C74.2386 468.121 74.331 468.455 74.5156 468.734C74.705 469.009 74.9465 469.239 75.2401 469.423C75.5336 469.603 75.8414 469.752 76.1634 469.871C76.4853 469.984 76.7812 470.077 77.0511 470.148L78.5284 470.545C78.9072 470.645 79.3286 470.782 79.7926 470.957C80.2614 471.133 80.7088 471.372 81.1349 471.675C81.5658 471.973 81.9209 472.357 82.2003 472.825C82.4796 473.294 82.6193 473.869 82.6193 474.551C82.6193 475.337 82.4134 476.047 82.0014 476.682C81.5942 477.316 80.9976 477.821 80.2116 478.195C79.4304 478.569 78.4811 478.756 77.3636 478.756C76.322 478.756 75.42 478.588 74.6577 478.251C73.9001 477.915 73.3035 477.446 72.8679 476.845C72.437 476.244 72.1932 475.545 72.1364 474.75H73.9545C74.0019 475.299 74.1866 475.754 74.5085 476.114C74.8352 476.469 75.2472 476.734 75.7443 476.909C76.2462 477.08 76.786 477.165 77.3636 477.165C78.036 477.165 78.6397 477.056 79.1747 476.838C79.7098 476.616 80.1335 476.308 80.446 475.915C80.7585 475.517 80.9148 475.053 80.9148 474.523C80.9148 474.04 80.7798 473.647 80.5099 473.344C80.2401 473.041 79.8849 472.795 79.4446 472.605C79.0043 472.416 78.5284 472.25 78.017 472.108L76.2273 471.597C75.0909 471.27 74.1913 470.804 73.5284 470.197C72.8655 469.591 72.5341 468.798 72.5341 467.818C72.5341 467.004 72.7543 466.294 73.1946 465.688C73.6397 465.077 74.2363 464.603 74.9844 464.267C75.7372 463.926 76.5777 463.756 77.5057 463.756C78.4432 463.756 79.2765 463.924 80.0057 464.26C80.7348 464.591 81.3125 465.046 81.7386 465.624C82.1695 466.201 82.3968 466.857 82.4205 467.591H80.7159ZM92.163 474.04V467.591H93.8391V478.5H92.163V476.653H92.0494C91.7937 477.207 91.396 477.679 90.8562 478.067C90.3164 478.45 89.6346 478.642 88.8107 478.642C88.1289 478.642 87.5228 478.493 86.9925 478.195C86.4622 477.892 86.0456 477.437 85.7425 476.831C85.4395 476.22 85.288 475.451 85.288 474.523V467.591H86.9641V474.409C86.9641 475.205 87.1867 475.839 87.6317 476.312C88.0816 476.786 88.6545 477.023 89.3505 477.023C89.7672 477.023 90.1909 476.916 90.6218 476.703C91.0574 476.49 91.422 476.163 91.7156 475.723C92.0138 475.283 92.163 474.722 92.163 474.04ZM96.9091 478.5V467.591H98.5284V469.239H98.642C98.8409 468.699 99.2008 468.261 99.7216 467.925C100.242 467.589 100.83 467.42 101.483 467.42C101.606 467.42 101.76 467.423 101.945 467.428C102.129 467.432 102.269 467.439 102.364 467.449V469.153C102.307 469.139 102.177 469.118 101.973 469.089C101.774 469.056 101.563 469.04 101.341 469.04C100.811 469.04 100.337 469.151 99.9205 469.374C99.5085 469.591 99.1818 469.894 98.9403 470.283C98.7036 470.666 98.5852 471.104 98.5852 471.597V478.5H96.9091ZM106.027 471.938V478.5H104.35V467.591H105.97V469.295H106.112C106.368 468.741 106.756 468.296 107.277 467.96C107.797 467.619 108.47 467.449 109.294 467.449C110.032 467.449 110.679 467.6 111.233 467.903C111.787 468.202 112.217 468.656 112.525 469.267C112.833 469.873 112.987 470.64 112.987 471.568V478.5H111.311V471.682C111.311 470.825 111.088 470.157 110.643 469.679C110.198 469.196 109.587 468.955 108.811 468.955C108.276 468.955 107.797 469.071 107.376 469.303C106.959 469.535 106.63 469.873 106.389 470.318C106.147 470.763 106.027 471.303 106.027 471.938ZM119.26 478.756C118.569 478.756 117.941 478.625 117.378 478.365C116.814 478.1 116.367 477.719 116.036 477.222C115.704 476.72 115.538 476.114 115.538 475.403C115.538 474.778 115.661 474.272 115.908 473.884C116.154 473.491 116.483 473.183 116.895 472.96C117.307 472.738 117.761 472.572 118.259 472.463C118.76 472.349 119.265 472.259 119.771 472.193C120.434 472.108 120.972 472.044 121.384 472.001C121.8 471.954 122.103 471.876 122.293 471.767C122.487 471.658 122.584 471.469 122.584 471.199V471.142C122.584 470.441 122.392 469.897 122.009 469.509C121.63 469.12 121.054 468.926 120.283 468.926C119.482 468.926 118.855 469.101 118.401 469.452C117.946 469.802 117.626 470.176 117.442 470.574L115.851 470.006C116.135 469.343 116.514 468.827 116.987 468.457C117.465 468.083 117.986 467.823 118.55 467.676C119.118 467.525 119.677 467.449 120.226 467.449C120.576 467.449 120.979 467.491 121.433 467.577C121.893 467.657 122.335 467.825 122.761 468.081C123.192 468.337 123.55 468.723 123.834 469.239C124.118 469.755 124.26 470.446 124.26 471.312V478.5H122.584V477.023H122.499C122.385 477.259 122.196 477.513 121.93 477.783C121.665 478.053 121.313 478.282 120.872 478.472C120.432 478.661 119.894 478.756 119.26 478.756ZM119.516 477.25C120.179 477.25 120.737 477.12 121.192 476.859C121.651 476.599 121.997 476.263 122.229 475.851C122.465 475.439 122.584 475.006 122.584 474.551V473.017C122.513 473.102 122.357 473.18 122.115 473.251C121.878 473.318 121.604 473.377 121.291 473.429C120.983 473.476 120.683 473.519 120.389 473.557C120.1 473.59 119.866 473.618 119.686 473.642C119.25 473.699 118.843 473.791 118.464 473.919C118.09 474.042 117.787 474.229 117.555 474.48C117.328 474.726 117.214 475.062 117.214 475.489C117.214 476.071 117.43 476.511 117.861 476.81C118.296 477.103 118.848 477.25 119.516 477.25ZM127.319 478.5V467.591H128.939V469.295H129.081C129.308 468.713 129.675 468.261 130.181 467.939C130.688 467.612 131.297 467.449 132.007 467.449C132.726 467.449 133.325 467.612 133.804 467.939C134.287 468.261 134.663 468.713 134.933 469.295H135.047C135.326 468.732 135.745 468.285 136.304 467.953C136.862 467.617 137.532 467.449 138.314 467.449C139.289 467.449 140.087 467.754 140.707 468.365C141.327 468.971 141.637 469.916 141.637 471.199V478.5H139.961V471.199C139.961 470.394 139.741 469.819 139.301 469.473C138.86 469.127 138.342 468.955 137.745 468.955C136.978 468.955 136.384 469.187 135.963 469.651C135.541 470.11 135.331 470.692 135.331 471.398V478.5H133.626V471.028C133.626 470.408 133.425 469.909 133.022 469.53C132.62 469.146 132.101 468.955 131.467 468.955C131.031 468.955 130.624 469.071 130.245 469.303C129.871 469.535 129.568 469.857 129.336 470.268C129.109 470.676 128.995 471.147 128.995 471.682V478.5H127.319ZM149.276 478.727C148.225 478.727 147.318 478.495 146.556 478.031C145.798 477.562 145.213 476.909 144.801 476.071C144.394 475.228 144.191 474.248 144.191 473.131C144.191 472.013 144.394 471.028 144.801 470.176C145.213 469.319 145.786 468.652 146.52 468.173C147.259 467.69 148.121 467.449 149.105 467.449C149.674 467.449 150.235 467.544 150.789 467.733C151.343 467.922 151.847 468.23 152.301 468.656C152.756 469.078 153.118 469.636 153.388 470.332C153.658 471.028 153.793 471.885 153.793 472.903V473.614H145.384V472.165H152.088C152.088 471.549 151.965 471 151.719 470.517C151.478 470.034 151.132 469.653 150.682 469.374C150.237 469.094 149.712 468.955 149.105 468.955C148.438 468.955 147.86 469.12 147.373 469.452C146.89 469.778 146.518 470.205 146.257 470.73C145.997 471.256 145.867 471.819 145.867 472.42V473.386C145.867 474.21 146.009 474.909 146.293 475.482C146.582 476.05 146.982 476.483 147.493 476.781C148.005 477.075 148.599 477.222 149.276 477.222C149.716 477.222 150.114 477.16 150.469 477.037C150.829 476.909 151.139 476.72 151.4 476.469C151.66 476.213 151.861 475.896 152.003 475.517L153.623 475.972C153.452 476.521 153.166 477.004 152.763 477.42C152.361 477.832 151.864 478.154 151.272 478.386C150.68 478.614 150.015 478.727 149.276 478.727Z" fill="#454B60"/>
<path d="M82.3068 524.955H84.0682V534.585C84.0682 535.58 83.8338 536.467 83.3651 537.249C82.901 538.025 82.2453 538.638 81.3977 539.088C80.5502 539.533 79.5559 539.756 78.4148 539.756C77.2737 539.756 76.2794 539.533 75.4318 539.088C74.5843 538.638 73.9261 538.025 73.4574 537.249C72.9934 536.467 72.7614 535.58 72.7614 534.585V524.955H74.5227V534.443C74.5227 535.153 74.679 535.786 74.9915 536.339C75.304 536.889 75.7491 537.322 76.3267 537.639C76.9091 537.952 77.6051 538.108 78.4148 538.108C79.2244 538.108 79.9205 537.952 80.5028 537.639C81.0852 537.322 81.5303 536.889 81.8381 536.339C82.1506 535.786 82.3068 535.153 82.3068 534.443V524.955ZM95.0856 531.034L93.5799 531.46C93.4852 531.209 93.3455 530.965 93.1609 530.729C92.9809 530.487 92.7347 530.288 92.4222 530.132C92.1097 529.976 91.7096 529.898 91.2219 529.898C90.5543 529.898 89.998 530.052 89.5529 530.359C89.1126 530.662 88.8924 531.048 88.8924 531.517C88.8924 531.934 89.0439 532.263 89.3469 532.504C89.65 532.746 90.1235 532.947 90.7674 533.108L92.3867 533.506C93.3621 533.742 94.0889 534.105 94.5671 534.592C95.0453 535.075 95.2844 535.698 95.2844 536.46C95.2844 537.085 95.1045 537.644 94.7447 538.136C94.3896 538.629 93.8924 539.017 93.2532 539.301C92.614 539.585 91.8706 539.727 91.0231 539.727C89.9104 539.727 88.9895 539.486 88.2603 539.003C87.5311 538.52 87.0695 537.814 86.8754 536.886L88.4663 536.489C88.6178 537.076 88.9042 537.516 89.3256 537.81C89.7518 538.103 90.3081 538.25 90.9947 538.25C91.7759 538.25 92.3962 538.084 92.8555 537.753C93.3195 537.417 93.5515 537.014 93.5515 536.545C93.5515 536.167 93.4189 535.849 93.1538 535.594C92.8886 535.333 92.4814 535.139 91.9322 535.011L90.114 534.585C89.1149 534.348 88.381 533.982 87.9123 533.484C87.4483 532.982 87.2163 532.355 87.2163 531.602C87.2163 530.987 87.3891 530.442 87.7347 529.969C88.0851 529.495 88.561 529.124 89.1623 528.854C89.7683 528.584 90.4549 528.449 91.2219 528.449C92.3015 528.449 93.149 528.686 93.7646 529.159C94.3848 529.633 94.8252 530.258 95.0856 531.034ZM102.381 539.727C101.33 539.727 100.424 539.495 99.6612 539.031C98.9036 538.562 98.3189 537.909 97.907 537.071C97.4998 536.228 97.2962 535.248 97.2962 534.131C97.2962 533.013 97.4998 532.028 97.907 531.176C98.3189 530.319 98.8918 529.652 99.6257 529.173C100.364 528.69 101.226 528.449 102.211 528.449C102.779 528.449 103.34 528.544 103.894 528.733C104.448 528.922 104.952 529.23 105.407 529.656C105.862 530.078 106.224 530.636 106.494 531.332C106.763 532.028 106.898 532.885 106.898 533.903V534.614H98.4893V533.165H105.194C105.194 532.549 105.071 532 104.825 531.517C104.583 531.034 104.237 530.653 103.788 530.374C103.343 530.094 102.817 529.955 102.211 529.955C101.543 529.955 100.966 530.12 100.478 530.452C99.995 530.778 99.6233 531.205 99.3629 531.73C99.1025 532.256 98.9723 532.819 98.9723 533.42V534.386C98.9723 535.21 99.1143 535.909 99.3984 536.482C99.6873 537.05 100.087 537.483 100.599 537.781C101.11 538.075 101.704 538.222 102.381 538.222C102.822 538.222 103.219 538.16 103.575 538.037C103.934 537.909 104.245 537.72 104.505 537.469C104.765 537.213 104.967 536.896 105.109 536.517L106.728 536.972C106.558 537.521 106.271 538.004 105.869 538.42C105.466 538.832 104.969 539.154 104.377 539.386C103.785 539.614 103.12 539.727 102.381 539.727ZM109.448 539.5V528.591H111.067V530.239H111.181C111.38 529.699 111.74 529.261 112.261 528.925C112.781 528.589 113.369 528.42 114.022 528.42C114.145 528.42 114.299 528.423 114.484 528.428C114.668 528.432 114.808 528.439 114.903 528.449V530.153C114.846 530.139 114.716 530.118 114.512 530.089C114.313 530.056 114.103 530.04 113.88 530.04C113.35 530.04 112.876 530.151 112.46 530.374C112.048 530.591 111.721 530.894 111.479 531.283C111.243 531.666 111.124 532.104 111.124 532.597V539.5H109.448ZM118.566 532.938V539.5H116.89V528.591H118.509V530.295H118.651C118.907 529.741 119.295 529.296 119.816 528.96C120.337 528.619 121.009 528.449 121.833 528.449C122.571 528.449 123.218 528.6 123.772 528.903C124.326 529.202 124.757 529.656 125.064 530.267C125.372 530.873 125.526 531.64 125.526 532.568V539.5H123.85V532.682C123.85 531.825 123.627 531.157 123.182 530.679C122.737 530.196 122.126 529.955 121.35 529.955C120.815 529.955 120.337 530.071 119.915 530.303C119.498 530.535 119.169 530.873 118.928 531.318C118.686 531.763 118.566 532.303 118.566 532.938ZM131.799 539.756C131.108 539.756 130.48 539.625 129.917 539.365C129.353 539.1 128.906 538.719 128.575 538.222C128.243 537.72 128.077 537.114 128.077 536.403C128.077 535.778 128.201 535.272 128.447 534.884C128.693 534.491 129.022 534.183 129.434 533.96C129.846 533.738 130.3 533.572 130.798 533.463C131.299 533.349 131.804 533.259 132.31 533.193C132.973 533.108 133.511 533.044 133.923 533.001C134.339 532.954 134.642 532.876 134.832 532.767C135.026 532.658 135.123 532.469 135.123 532.199V532.142C135.123 531.441 134.931 530.897 134.548 530.509C134.169 530.12 133.594 529.926 132.822 529.926C132.022 529.926 131.394 530.101 130.94 530.452C130.485 530.802 130.165 531.176 129.981 531.574L128.39 531.006C128.674 530.343 129.053 529.827 129.526 529.457C130.004 529.083 130.525 528.823 131.089 528.676C131.657 528.525 132.216 528.449 132.765 528.449C133.115 528.449 133.518 528.491 133.972 528.577C134.432 528.657 134.874 528.825 135.3 529.081C135.731 529.337 136.089 529.723 136.373 530.239C136.657 530.755 136.799 531.446 136.799 532.312V539.5H135.123V538.023H135.038C134.924 538.259 134.735 538.513 134.469 538.783C134.204 539.053 133.852 539.282 133.411 539.472C132.971 539.661 132.433 539.756 131.799 539.756ZM132.055 538.25C132.718 538.25 133.276 538.12 133.731 537.859C134.19 537.599 134.536 537.263 134.768 536.851C135.004 536.439 135.123 536.006 135.123 535.551V534.017C135.052 534.102 134.896 534.18 134.654 534.251C134.417 534.318 134.143 534.377 133.83 534.429C133.522 534.476 133.222 534.519 132.928 534.557C132.639 534.59 132.405 534.618 132.225 534.642C131.79 534.699 131.382 534.791 131.004 534.919C130.629 535.042 130.326 535.229 130.094 535.48C129.867 535.726 129.754 536.062 129.754 536.489C129.754 537.071 129.969 537.511 130.4 537.81C130.835 538.103 131.387 538.25 132.055 538.25ZM139.858 539.5V528.591H141.478V530.295H141.62C141.847 529.713 142.214 529.261 142.721 528.939C143.227 528.612 143.836 528.449 144.546 528.449C145.266 528.449 145.864 528.612 146.343 528.939C146.826 529.261 147.202 529.713 147.472 530.295H147.586C147.865 529.732 148.284 529.285 148.843 528.953C149.401 528.617 150.071 528.449 150.853 528.449C151.828 528.449 152.626 528.754 153.246 529.365C153.866 529.971 154.176 530.916 154.176 532.199V539.5H152.5V532.199C152.5 531.394 152.28 530.819 151.84 530.473C151.4 530.127 150.881 529.955 150.284 529.955C149.517 529.955 148.923 530.187 148.502 530.651C148.08 531.11 147.87 531.692 147.87 532.398V539.5H146.165V532.028C146.165 531.408 145.964 530.909 145.561 530.53C145.159 530.146 144.641 529.955 144.006 529.955C143.57 529.955 143.163 530.071 142.784 530.303C142.41 530.535 142.107 530.857 141.875 531.268C141.648 531.676 141.534 532.147 141.534 532.682V539.5H139.858ZM161.815 539.727C160.764 539.727 159.857 539.495 159.095 539.031C158.337 538.562 157.752 537.909 157.341 537.071C156.933 536.228 156.73 535.248 156.73 534.131C156.73 533.013 156.933 532.028 157.341 531.176C157.752 530.319 158.325 529.652 159.059 529.173C159.798 528.69 160.66 528.449 161.645 528.449C162.213 528.449 162.774 528.544 163.328 528.733C163.882 528.922 164.386 529.23 164.841 529.656C165.295 530.078 165.657 530.636 165.927 531.332C166.197 532.028 166.332 532.885 166.332 533.903V534.614H157.923V533.165H164.627C164.627 532.549 164.504 532 164.258 531.517C164.017 531.034 163.671 530.653 163.221 530.374C162.776 530.094 162.251 529.955 161.645 529.955C160.977 529.955 160.399 530.12 159.912 530.452C159.429 530.778 159.057 531.205 158.797 531.73C158.536 532.256 158.406 532.819 158.406 533.42V534.386C158.406 535.21 158.548 535.909 158.832 536.482C159.121 537.05 159.521 537.483 160.032 537.781C160.544 538.075 161.138 538.222 161.815 538.222C162.255 538.222 162.653 538.16 163.008 538.037C163.368 537.909 163.678 537.72 163.939 537.469C164.199 537.213 164.4 536.896 164.542 536.517L166.162 536.972C165.991 537.521 165.705 538.004 165.302 538.42C164.9 538.832 164.403 539.154 163.811 539.386C163.219 539.614 162.554 539.727 161.815 539.727Z" fill="#454B60"/>
<path d="M72.7614 607.5V592.955H77.6761C78.8172 592.955 79.75 593.161 80.4744 593.572C81.2036 593.98 81.7434 594.531 82.0938 595.227C82.4441 595.923 82.6193 596.7 82.6193 597.557C82.6193 598.414 82.4441 599.193 82.0938 599.893C81.7481 600.594 81.2131 601.153 80.4886 601.57C79.7642 601.982 78.8362 602.188 77.7045 602.188H74.1818V600.625H77.6477C78.429 600.625 79.0563 600.49 79.5298 600.22C80.0033 599.95 80.3466 599.586 80.5597 599.126C80.7775 598.662 80.8864 598.139 80.8864 597.557C80.8864 596.974 80.7775 596.454 80.5597 595.994C80.3466 595.535 80.0009 595.175 79.5227 594.915C79.0445 594.65 78.41 594.517 77.6193 594.517H74.5227V607.5H72.7614ZM88.4396 607.756C87.7483 607.756 87.121 607.625 86.5575 607.365C85.9941 607.1 85.5466 606.719 85.2152 606.222C84.8838 605.72 84.718 605.114 84.718 604.403C84.718 603.778 84.8411 603.272 85.0874 602.884C85.3336 602.491 85.6626 602.183 86.0746 601.96C86.4865 601.738 86.9411 601.572 87.4382 601.463C87.9401 601.349 88.4444 601.259 88.951 601.193C89.6139 601.108 90.1513 601.044 90.5632 601.001C90.9799 600.954 91.2829 600.876 91.4723 600.767C91.6664 600.658 91.7635 600.469 91.7635 600.199V600.142C91.7635 599.441 91.5717 598.897 91.1882 598.509C90.8094 598.12 90.2341 597.926 89.4624 597.926C88.6622 597.926 88.0348 598.101 87.5803 598.452C87.1257 598.802 86.8061 599.176 86.6214 599.574L85.0305 599.006C85.3146 598.343 85.6934 597.827 86.1669 597.457C86.6451 597.083 87.166 596.823 87.7294 596.676C88.2976 596.525 88.8563 596.449 89.4055 596.449C89.7559 596.449 90.1584 596.491 90.6129 596.577C91.0722 596.657 91.5149 596.825 91.9411 597.081C92.3719 597.337 92.7294 597.723 93.0135 598.239C93.2976 598.755 93.4396 599.446 93.4396 600.312V607.5H91.7635V606.023H91.6783C91.5646 606.259 91.3752 606.513 91.1101 606.783C90.8449 607.053 90.4922 607.282 90.0518 607.472C89.6115 607.661 89.0741 607.756 88.4396 607.756ZM88.6953 606.25C89.3582 606.25 89.9169 606.12 90.3714 605.859C90.8307 605.599 91.1764 605.263 91.4084 604.851C91.6451 604.439 91.7635 604.006 91.7635 603.551V602.017C91.6925 602.102 91.5362 602.18 91.2947 602.251C91.058 602.318 90.7834 602.377 90.4709 602.429C90.1631 602.476 89.8625 602.519 89.5689 602.557C89.2801 602.59 89.0457 602.618 88.8658 602.642C88.4302 602.699 88.023 602.791 87.6442 602.919C87.2701 603.042 86.9671 603.229 86.7351 603.48C86.5078 603.726 86.3942 604.062 86.3942 604.489C86.3942 605.071 86.6096 605.511 87.0405 605.81C87.4761 606.103 88.0277 606.25 88.6953 606.25ZM104.226 599.034L102.721 599.46C102.626 599.209 102.486 598.965 102.301 598.729C102.122 598.487 101.875 598.288 101.563 598.132C101.25 597.976 100.85 597.898 100.363 597.898C99.695 597.898 99.1386 598.052 98.6935 598.359C98.2532 598.662 98.033 599.048 98.033 599.517C98.033 599.934 98.1845 600.263 98.4876 600.504C98.7906 600.746 99.2641 600.947 99.908 601.108L101.527 601.506C102.503 601.742 103.23 602.105 103.708 602.592C104.186 603.075 104.425 603.698 104.425 604.46C104.425 605.085 104.245 605.644 103.885 606.136C103.53 606.629 103.033 607.017 102.394 607.301C101.755 607.585 101.011 607.727 100.164 607.727C99.051 607.727 98.1301 607.486 97.4009 607.003C96.6718 606.52 96.2101 605.814 96.016 604.886L97.6069 604.489C97.7584 605.076 98.0449 605.516 98.4663 605.81C98.8924 606.103 99.4487 606.25 100.135 606.25C100.917 606.25 101.537 606.084 101.996 605.753C102.46 605.417 102.692 605.014 102.692 604.545C102.692 604.167 102.56 603.849 102.294 603.594C102.029 603.333 101.622 603.139 101.073 603.011L99.2546 602.585C98.2556 602.348 97.5217 601.982 97.0529 601.484C96.5889 600.982 96.3569 600.355 96.3569 599.602C96.3569 598.987 96.5297 598.442 96.8754 597.969C97.2257 597.495 97.7016 597.124 98.3029 596.854C98.909 596.584 99.5955 596.449 100.363 596.449C101.442 596.449 102.29 596.686 102.905 597.159C103.525 597.633 103.966 598.258 104.226 599.034ZM114.675 599.034L113.17 599.46C113.075 599.209 112.935 598.965 112.751 598.729C112.571 598.487 112.325 598.288 112.012 598.132C111.7 597.976 111.299 597.898 110.812 597.898C110.144 597.898 109.588 598.052 109.143 598.359C108.702 598.662 108.482 599.048 108.482 599.517C108.482 599.934 108.634 600.263 108.937 600.504C109.24 600.746 109.713 600.947 110.357 601.108L111.977 601.506C112.952 601.742 113.679 602.105 114.157 602.592C114.635 603.075 114.874 603.698 114.874 604.46C114.874 605.085 114.694 605.644 114.335 606.136C113.979 606.629 113.482 607.017 112.843 607.301C112.204 607.585 111.46 607.727 110.613 607.727C109.5 607.727 108.579 607.486 107.85 607.003C107.121 606.52 106.659 605.814 106.465 604.886L108.056 604.489C108.208 605.076 108.494 605.516 108.915 605.81C109.342 606.103 109.898 606.25 110.585 606.25C111.366 606.25 111.986 606.084 112.445 605.753C112.909 605.417 113.141 605.014 113.141 604.545C113.141 604.167 113.009 603.849 112.744 603.594C112.478 603.333 112.071 603.139 111.522 603.011L109.704 602.585C108.705 602.348 107.971 601.982 107.502 601.484C107.038 600.982 106.806 600.355 106.806 599.602C106.806 598.987 106.979 598.442 107.325 597.969C107.675 597.495 108.151 597.124 108.752 596.854C109.358 596.584 110.045 596.449 110.812 596.449C111.891 596.449 112.739 596.686 113.354 597.159C113.975 597.633 114.415 598.258 114.675 599.034ZM119.869 607.5L116.545 596.591H118.306L120.664 604.943H120.778L123.108 596.591H124.897L127.199 604.915H127.312L129.67 596.591H131.431L128.108 607.5H126.46L124.074 599.119H123.903L121.517 607.5H119.869ZM137.708 607.727C136.723 607.727 135.859 607.493 135.116 607.024C134.377 606.555 133.799 605.9 133.383 605.057C132.971 604.214 132.765 603.229 132.765 602.102C132.765 600.966 132.971 599.974 133.383 599.126C133.799 598.279 134.377 597.621 135.116 597.152C135.859 596.683 136.723 596.449 137.708 596.449C138.693 596.449 139.555 596.683 140.293 597.152C141.037 597.621 141.614 598.279 142.026 599.126C142.443 599.974 142.651 600.966 142.651 602.102C142.651 603.229 142.443 604.214 142.026 605.057C141.614 605.9 141.037 606.555 140.293 607.024C139.555 607.493 138.693 607.727 137.708 607.727ZM137.708 606.222C138.456 606.222 139.072 606.03 139.555 605.646C140.038 605.263 140.395 604.759 140.627 604.134C140.859 603.509 140.975 602.831 140.975 602.102C140.975 601.373 140.859 600.694 140.627 600.064C140.395 599.434 140.038 598.925 139.555 598.537C139.072 598.149 138.456 597.955 137.708 597.955C136.96 597.955 136.344 598.149 135.862 598.537C135.379 598.925 135.021 599.434 134.789 600.064C134.557 600.694 134.441 601.373 134.441 602.102C134.441 602.831 134.557 603.509 134.789 604.134C135.021 604.759 135.379 605.263 135.862 605.646C136.344 606.03 136.96 606.222 137.708 606.222ZM145.21 607.5V596.591H146.829V598.239H146.943C147.142 597.699 147.502 597.261 148.022 596.925C148.543 596.589 149.13 596.42 149.784 596.42C149.907 596.42 150.061 596.423 150.245 596.428C150.43 596.432 150.57 596.439 150.664 596.449V598.153C150.608 598.139 150.477 598.118 150.274 598.089C150.075 598.056 149.864 598.04 149.642 598.04C149.111 598.04 148.638 598.151 148.221 598.374C147.809 598.591 147.483 598.894 147.241 599.283C147.004 599.666 146.886 600.104 146.886 600.597V607.5H145.21ZM156.439 607.727C155.529 607.727 154.727 607.498 154.031 607.038C153.335 606.574 152.79 605.921 152.397 605.078C152.004 604.231 151.808 603.229 151.808 602.074C151.808 600.928 152.004 599.934 152.397 599.091C152.79 598.248 153.337 597.597 154.038 597.138C154.739 596.679 155.548 596.449 156.467 596.449C157.177 596.449 157.738 596.567 158.15 596.804C158.567 597.036 158.884 597.301 159.102 597.599C159.324 597.893 159.497 598.134 159.62 598.324H159.762V592.955H161.439V607.5H159.819V605.824H159.62C159.497 606.023 159.322 606.274 159.095 606.577C158.868 606.875 158.543 607.143 158.122 607.379C157.7 607.611 157.139 607.727 156.439 607.727ZM156.666 606.222C157.338 606.222 157.906 606.046 158.37 605.696C158.834 605.341 159.187 604.851 159.429 604.226C159.67 603.596 159.791 602.869 159.791 602.045C159.791 601.231 159.672 600.518 159.436 599.908C159.199 599.292 158.849 598.814 158.385 598.473C157.921 598.127 157.348 597.955 156.666 597.955C155.956 597.955 155.364 598.137 154.89 598.501C154.422 598.861 154.069 599.351 153.832 599.972C153.6 600.587 153.484 601.278 153.484 602.045C153.484 602.822 153.602 603.527 153.839 604.162C154.081 604.792 154.436 605.294 154.904 605.668C155.378 606.037 155.965 606.222 156.666 606.222Z" fill="#454B60"/>
<path d="M72.7614 680.5V665.955H81.5398V667.517H74.5227V672.432H81.0852V673.994H74.5227V678.938H81.6534V680.5H72.7614ZM84.4872 680.5V669.591H86.1065V671.295H86.2486C86.4759 670.713 86.8428 670.261 87.3494 669.939C87.8561 669.612 88.4645 669.449 89.1747 669.449C89.8944 669.449 90.4934 669.612 90.9716 669.939C91.4545 670.261 91.831 670.713 92.1009 671.295H92.2145C92.4938 670.732 92.9129 670.285 93.4716 669.953C94.0303 669.617 94.7003 669.449 95.4815 669.449C96.4569 669.449 97.2547 669.754 97.875 670.365C98.4953 670.971 98.8054 671.916 98.8054 673.199V680.5H97.1293V673.199C97.1293 672.394 96.9091 671.819 96.4688 671.473C96.0284 671.127 95.5099 670.955 94.9134 670.955C94.1463 670.955 93.5521 671.187 93.1307 671.651C92.7093 672.11 92.4986 672.692 92.4986 673.398V680.5H90.794V673.028C90.794 672.408 90.5928 671.909 90.1903 671.53C89.7879 671.146 89.2694 670.955 88.6349 670.955C88.1993 670.955 87.7921 671.071 87.4134 671.303C87.0393 671.535 86.7363 671.857 86.5043 672.268C86.277 672.676 86.1634 673.147 86.1634 673.682V680.5H84.4872ZM105.08 680.756C104.389 680.756 103.762 680.625 103.198 680.365C102.635 680.1 102.187 679.719 101.856 679.222C101.524 678.72 101.359 678.114 101.359 677.403C101.359 676.778 101.482 676.272 101.728 675.884C101.974 675.491 102.303 675.183 102.715 674.96C103.127 674.738 103.582 674.572 104.079 674.463C104.581 674.349 105.085 674.259 105.592 674.193C106.254 674.108 106.792 674.044 107.204 674.001C107.621 673.954 107.924 673.876 108.113 673.767C108.307 673.658 108.404 673.469 108.404 673.199V673.142C108.404 672.441 108.212 671.897 107.829 671.509C107.45 671.12 106.875 670.926 106.103 670.926C105.303 670.926 104.675 671.101 104.221 671.452C103.766 671.802 103.447 672.176 103.262 672.574L101.671 672.006C101.955 671.343 102.334 670.827 102.808 670.457C103.286 670.083 103.807 669.823 104.37 669.676C104.938 669.525 105.497 669.449 106.046 669.449C106.397 669.449 106.799 669.491 107.254 669.577C107.713 669.657 108.156 669.825 108.582 670.081C109.013 670.337 109.37 670.723 109.654 671.239C109.938 671.755 110.08 672.446 110.08 673.312V680.5H108.404V679.023H108.319C108.205 679.259 108.016 679.513 107.751 679.783C107.486 680.053 107.133 680.282 106.692 680.472C106.252 680.661 105.715 680.756 105.08 680.756ZM105.336 679.25C105.999 679.25 106.558 679.12 107.012 678.859C107.471 678.599 107.817 678.263 108.049 677.851C108.286 677.439 108.404 677.006 108.404 676.551V675.017C108.333 675.102 108.177 675.18 107.935 675.251C107.699 675.318 107.424 675.377 107.112 675.429C106.804 675.476 106.503 675.519 106.21 675.557C105.921 675.59 105.686 675.618 105.506 675.642C105.071 675.699 104.664 675.791 104.285 675.919C103.911 676.042 103.608 676.229 103.376 676.48C103.148 676.726 103.035 677.062 103.035 677.489C103.035 678.071 103.25 678.511 103.681 678.81C104.117 679.103 104.668 679.25 105.336 679.25ZM113.14 680.5V669.591H114.816V680.5H113.14ZM113.992 667.773C113.665 667.773 113.383 667.661 113.147 667.439C112.915 667.216 112.799 666.949 112.799 666.636C112.799 666.324 112.915 666.056 113.147 665.834C113.383 665.611 113.665 665.5 113.992 665.5C114.319 665.5 114.598 665.611 114.83 665.834C115.067 666.056 115.185 666.324 115.185 666.636C115.185 666.949 115.067 667.216 114.83 667.439C114.598 667.661 114.319 667.773 113.992 667.773ZM119.562 665.955V680.5H117.886V665.955H119.562ZM129.081 680.5H127.234L132.575 665.955H134.393L139.734 680.5H137.887L133.541 668.256H133.427L129.081 680.5ZM129.762 674.818H137.206V676.381H129.762V674.818ZM145.892 680.727C144.983 680.727 144.18 680.498 143.484 680.038C142.788 679.574 142.243 678.921 141.85 678.078C141.458 677.231 141.261 676.229 141.261 675.074C141.261 673.928 141.458 672.934 141.85 672.091C142.243 671.248 142.79 670.597 143.491 670.138C144.192 669.679 145.002 669.449 145.92 669.449C146.63 669.449 147.191 669.567 147.603 669.804C148.02 670.036 148.337 670.301 148.555 670.599C148.778 670.893 148.95 671.134 149.074 671.324H149.216V665.955H150.892V680.5H149.272V678.824H149.074C148.95 679.023 148.775 679.274 148.548 679.577C148.321 679.875 147.996 680.143 147.575 680.379C147.154 680.611 146.592 680.727 145.892 680.727ZM146.119 679.222C146.791 679.222 147.359 679.046 147.824 678.696C148.288 678.341 148.64 677.851 148.882 677.226C149.123 676.596 149.244 675.869 149.244 675.045C149.244 674.231 149.126 673.518 148.889 672.908C148.652 672.292 148.302 671.814 147.838 671.473C147.374 671.127 146.801 670.955 146.119 670.955C145.409 670.955 144.817 671.137 144.343 671.501C143.875 671.861 143.522 672.351 143.285 672.972C143.053 673.587 142.937 674.278 142.937 675.045C142.937 675.822 143.056 676.527 143.292 677.162C143.534 677.792 143.889 678.294 144.358 678.668C144.831 679.037 145.418 679.222 146.119 679.222ZM158.314 680.727C157.404 680.727 156.602 680.498 155.906 680.038C155.21 679.574 154.665 678.921 154.272 678.078C153.879 677.231 153.683 676.229 153.683 675.074C153.683 673.928 153.879 672.934 154.272 672.091C154.665 671.248 155.212 670.597 155.913 670.138C156.614 669.679 157.423 669.449 158.342 669.449C159.052 669.449 159.613 669.567 160.025 669.804C160.442 670.036 160.759 670.301 160.977 670.599C161.199 670.893 161.372 671.134 161.495 671.324H161.637V665.955H163.314V680.5H161.694V678.824H161.495C161.372 679.023 161.197 679.274 160.97 679.577C160.743 679.875 160.418 680.143 159.997 680.379C159.575 680.611 159.014 680.727 158.314 680.727ZM158.541 679.222C159.213 679.222 159.781 679.046 160.245 678.696C160.709 678.341 161.062 677.851 161.304 677.226C161.545 676.596 161.666 675.869 161.666 675.045C161.666 674.231 161.547 673.518 161.311 672.908C161.074 672.292 160.724 671.814 160.26 671.473C159.796 671.127 159.223 670.955 158.541 670.955C157.831 670.955 157.239 671.137 156.765 671.501C156.297 671.861 155.944 672.351 155.707 672.972C155.475 673.587 155.359 674.278 155.359 675.045C155.359 675.822 155.477 676.527 155.714 677.162C155.956 677.792 156.311 678.294 156.779 678.668C157.253 679.037 157.84 679.222 158.541 679.222ZM166.616 680.5V669.591H168.235V671.239H168.349C168.548 670.699 168.908 670.261 169.429 669.925C169.949 669.589 170.537 669.42 171.19 669.42C171.313 669.42 171.467 669.423 171.652 669.428C171.836 669.432 171.976 669.439 172.071 669.449V671.153C172.014 671.139 171.884 671.118 171.68 671.089C171.481 671.056 171.27 671.04 171.048 671.04C170.518 671.04 170.044 671.151 169.627 671.374C169.216 671.591 168.889 671.894 168.647 672.283C168.411 672.666 168.292 673.104 168.292 673.597V680.5H166.616ZM178.299 680.727C177.248 680.727 176.342 680.495 175.579 680.031C174.822 679.562 174.237 678.909 173.825 678.071C173.418 677.228 173.214 676.248 173.214 675.131C173.214 674.013 173.418 673.028 173.825 672.176C174.237 671.319 174.81 670.652 175.544 670.173C176.282 669.69 177.144 669.449 178.129 669.449C178.697 669.449 179.258 669.544 179.812 669.733C180.366 669.922 180.87 670.23 181.325 670.656C181.779 671.078 182.142 671.636 182.412 672.332C182.681 673.028 182.816 673.885 182.816 674.903V675.614H174.407V674.165H181.112C181.112 673.549 180.989 673 180.743 672.517C180.501 672.034 180.155 671.653 179.706 671.374C179.261 671.094 178.735 670.955 178.129 670.955C177.461 670.955 176.884 671.12 176.396 671.452C175.913 671.778 175.541 672.205 175.281 672.73C175.02 673.256 174.89 673.819 174.89 674.42V675.386C174.89 676.21 175.032 676.909 175.316 677.482C175.605 678.05 176.005 678.483 176.517 678.781C177.028 679.075 177.622 679.222 178.299 679.222C178.74 679.222 179.137 679.16 179.493 679.037C179.852 678.909 180.163 678.72 180.423 678.469C180.683 678.213 180.885 677.896 181.027 677.517L182.646 677.972C182.475 678.521 182.189 679.004 181.787 679.42C181.384 679.832 180.887 680.154 180.295 680.386C179.703 680.614 179.038 680.727 178.299 680.727ZM193.093 672.034L191.588 672.46C191.493 672.209 191.353 671.965 191.169 671.729C190.989 671.487 190.743 671.288 190.43 671.132C190.118 670.976 189.717 670.898 189.23 670.898C188.562 670.898 188.006 671.052 187.561 671.359C187.12 671.662 186.9 672.048 186.9 672.517C186.9 672.934 187.052 673.263 187.355 673.504C187.658 673.746 188.131 673.947 188.775 674.108L190.395 674.506C191.37 674.742 192.097 675.105 192.575 675.592C193.053 676.075 193.292 676.698 193.292 677.46C193.292 678.085 193.112 678.644 192.752 679.136C192.397 679.629 191.9 680.017 191.261 680.301C190.622 680.585 189.878 680.727 189.031 680.727C187.918 680.727 186.997 680.486 186.268 680.003C185.539 679.52 185.077 678.814 184.883 677.886L186.474 677.489C186.626 678.076 186.912 678.516 187.333 678.81C187.76 679.103 188.316 679.25 189.002 679.25C189.784 679.25 190.404 679.084 190.863 678.753C191.327 678.417 191.559 678.014 191.559 677.545C191.559 677.167 191.427 676.849 191.162 676.594C190.896 676.333 190.489 676.139 189.94 676.011L188.122 675.585C187.123 675.348 186.389 674.982 185.92 674.484C185.456 673.982 185.224 673.355 185.224 672.602C185.224 671.987 185.397 671.442 185.743 670.969C186.093 670.495 186.569 670.124 187.17 669.854C187.776 669.584 188.463 669.449 189.23 669.449C190.309 669.449 191.157 669.686 191.772 670.159C192.393 670.633 192.833 671.258 193.093 672.034ZM203.543 672.034L202.037 672.46C201.942 672.209 201.803 671.965 201.618 671.729C201.438 671.487 201.192 671.288 200.879 671.132C200.567 670.976 200.167 670.898 199.679 670.898C199.011 670.898 198.455 671.052 198.01 671.359C197.57 671.662 197.349 672.048 197.349 672.517C197.349 672.934 197.501 673.263 197.804 673.504C198.107 673.746 198.58 673.947 199.224 674.108L200.844 674.506C201.819 674.742 202.546 675.105 203.024 675.592C203.502 676.075 203.741 676.698 203.741 677.46C203.741 678.085 203.562 678.644 203.202 679.136C202.847 679.629 202.349 680.017 201.71 680.301C201.071 680.585 200.328 680.727 199.48 680.727C198.367 680.727 197.446 680.486 196.717 680.003C195.988 679.52 195.527 678.814 195.332 677.886L196.923 677.489C197.075 678.076 197.361 678.516 197.783 678.81C198.209 679.103 198.765 679.25 199.452 679.25C200.233 679.25 200.853 679.084 201.312 678.753C201.777 678.417 202.009 678.014 202.009 677.545C202.009 677.167 201.876 676.849 201.611 676.594C201.346 676.333 200.938 676.139 200.389 676.011L198.571 675.585C197.572 675.348 196.838 674.982 196.369 674.484C195.905 673.982 195.673 673.355 195.673 672.602C195.673 671.987 195.846 671.442 196.192 670.969C196.542 670.495 197.018 670.124 197.619 669.854C198.225 669.584 198.912 669.449 199.679 669.449C200.759 669.449 201.606 669.686 202.222 670.159C202.842 670.633 203.282 671.258 203.543 672.034Z" fill="#454B60"/>
<path d="M72.7614 727.955H74.8636L79.8068 740.028H79.9773L84.9205 727.955H87.0227V742.5H85.375V731.449H85.233L80.6875 742.5H79.0966L74.5511 731.449H74.4091V742.5H72.7614V727.955ZM94.7589 742.727C93.774 742.727 92.9099 742.493 92.1665 742.024C91.4279 741.555 90.8503 740.9 90.4336 740.057C90.0217 739.214 89.8157 738.229 89.8157 737.102C89.8157 735.966 90.0217 734.974 90.4336 734.126C90.8503 733.279 91.4279 732.621 92.1665 732.152C92.9099 731.683 93.774 731.449 94.7589 731.449C95.7437 731.449 96.6055 731.683 97.3441 732.152C98.0875 732.621 98.6651 733.279 99.0771 734.126C99.4937 734.974 99.7021 735.966 99.7021 737.102C99.7021 738.229 99.4937 739.214 99.0771 740.057C98.6651 740.9 98.0875 741.555 97.3441 742.024C96.6055 742.493 95.7437 742.727 94.7589 742.727ZM94.7589 741.222C95.507 741.222 96.1225 741.03 96.6055 740.646C97.0884 740.263 97.4459 739.759 97.6779 739.134C97.9099 738.509 98.0259 737.831 98.0259 737.102C98.0259 736.373 97.9099 735.694 97.6779 735.064C97.4459 734.434 97.0884 733.925 96.6055 733.537C96.1225 733.149 95.507 732.955 94.7589 732.955C94.0108 732.955 93.3952 733.149 92.9123 733.537C92.4293 733.925 92.0719 734.434 91.8398 735.064C91.6078 735.694 91.4918 736.373 91.4918 737.102C91.4918 737.831 91.6078 738.509 91.8398 739.134C92.0719 739.759 92.4293 740.263 92.9123 740.646C93.3952 741.03 94.0108 741.222 94.7589 741.222ZM102.488 742.5V727.955H104.164V733.324H104.306C104.429 733.134 104.6 732.893 104.817 732.599C105.04 732.301 105.357 732.036 105.769 731.804C106.186 731.567 106.749 731.449 107.46 731.449C108.378 731.449 109.188 731.679 109.888 732.138C110.589 732.597 111.136 733.248 111.529 734.091C111.922 734.934 112.119 735.928 112.119 737.074C112.119 738.229 111.922 739.231 111.529 740.078C111.136 740.921 110.592 741.574 109.896 742.038C109.2 742.498 108.397 742.727 107.488 742.727C106.787 742.727 106.226 742.611 105.805 742.379C105.383 742.143 105.059 741.875 104.832 741.577C104.604 741.274 104.429 741.023 104.306 740.824H104.107V742.5H102.488ZM104.136 737.045C104.136 737.869 104.256 738.596 104.498 739.226C104.739 739.851 105.092 740.341 105.556 740.696C106.02 741.046 106.588 741.222 107.261 741.222C107.961 741.222 108.546 741.037 109.015 740.668C109.488 740.294 109.844 739.792 110.08 739.162C110.322 738.527 110.442 737.822 110.442 737.045C110.442 736.278 110.324 735.587 110.087 734.972C109.855 734.351 109.503 733.861 109.029 733.501C108.56 733.137 107.971 732.955 107.261 732.955C106.579 732.955 106.006 733.127 105.542 733.473C105.078 733.814 104.728 734.292 104.491 734.908C104.254 735.518 104.136 736.231 104.136 737.045ZM114.683 742.5V731.591H116.359V742.5H114.683ZM115.535 729.773C115.208 729.773 114.926 729.661 114.69 729.439C114.458 729.216 114.342 728.949 114.342 728.636C114.342 728.324 114.458 728.056 114.69 727.834C114.926 727.611 115.208 727.5 115.535 727.5C115.862 727.5 116.141 727.611 116.373 727.834C116.61 728.056 116.728 728.324 116.728 728.636C116.728 728.949 116.61 729.216 116.373 729.439C116.141 729.661 115.862 729.773 115.535 729.773ZM121.105 727.955V742.5H119.429V727.955H121.105ZM128.749 742.727C127.697 742.727 126.791 742.495 126.028 742.031C125.271 741.562 124.686 740.909 124.274 740.071C123.867 739.228 123.663 738.248 123.663 737.131C123.663 736.013 123.867 735.028 124.274 734.176C124.686 733.319 125.259 732.652 125.993 732.173C126.732 731.69 127.593 731.449 128.578 731.449C129.146 731.449 129.707 731.544 130.261 731.733C130.815 731.922 131.32 732.23 131.774 732.656C132.229 733.078 132.591 733.636 132.861 734.332C133.131 735.028 133.266 735.885 133.266 736.903V737.614H124.857V736.165H131.561C131.561 735.549 131.438 735 131.192 734.517C130.95 734.034 130.605 733.653 130.155 733.374C129.71 733.094 129.184 732.955 128.578 732.955C127.911 732.955 127.333 733.12 126.845 733.452C126.362 733.778 125.991 734.205 125.73 734.73C125.47 735.256 125.339 735.819 125.339 736.42V737.386C125.339 738.21 125.482 738.909 125.766 739.482C126.054 740.05 126.455 740.483 126.966 740.781C127.477 741.075 128.071 741.222 128.749 741.222C129.189 741.222 129.587 741.16 129.942 741.037C130.302 740.909 130.612 740.72 130.872 740.469C131.133 740.213 131.334 739.896 131.476 739.517L133.095 739.972C132.925 740.521 132.638 741.004 132.236 741.42C131.833 741.832 131.336 742.154 130.744 742.386C130.152 742.614 129.487 742.727 128.749 742.727ZM153.202 727.955V742.5H151.497L143.571 731.08H143.429V742.5H141.668V727.955H143.372L151.327 739.403H151.469V727.955H153.202ZM163.374 738.04V731.591H165.05V742.5H163.374V740.653H163.26C163.005 741.207 162.607 741.679 162.067 742.067C161.527 742.45 160.846 742.642 160.022 742.642C159.34 742.642 158.734 742.493 158.203 742.195C157.673 741.892 157.257 741.437 156.953 740.831C156.65 740.22 156.499 739.451 156.499 738.523V731.591H158.175V738.409C158.175 739.205 158.398 739.839 158.843 740.312C159.292 740.786 159.865 741.023 160.561 741.023C160.978 741.023 161.402 740.916 161.833 740.703C162.268 740.49 162.633 740.163 162.926 739.723C163.225 739.283 163.374 738.722 163.374 738.04ZM168.12 742.5V731.591H169.739V733.295H169.881C170.109 732.713 170.476 732.261 170.982 731.939C171.489 731.612 172.097 731.449 172.808 731.449C173.527 731.449 174.126 731.612 174.604 731.939C175.087 732.261 175.464 732.713 175.734 733.295H175.847C176.127 732.732 176.546 732.285 177.104 731.953C177.663 731.617 178.333 731.449 179.114 731.449C180.09 731.449 180.888 731.754 181.508 732.365C182.128 732.971 182.438 733.916 182.438 735.199V742.5H180.762V735.199C180.762 734.394 180.542 733.819 180.102 733.473C179.661 733.127 179.143 732.955 178.546 732.955C177.779 732.955 177.185 733.187 176.763 733.651C176.342 734.11 176.131 734.692 176.131 735.398V742.5H174.427V735.028C174.427 734.408 174.226 733.909 173.823 733.53C173.421 733.146 172.902 732.955 172.268 732.955C171.832 732.955 171.425 733.071 171.046 733.303C170.672 733.535 170.369 733.857 170.137 734.268C169.91 734.676 169.796 735.147 169.796 735.682V742.5H168.12ZM185.73 742.5V727.955H187.406V733.324H187.548C187.671 733.134 187.842 732.893 188.06 732.599C188.282 732.301 188.599 732.036 189.011 731.804C189.428 731.567 189.991 731.449 190.702 731.449C191.62 731.449 192.43 731.679 193.131 732.138C193.831 732.597 194.378 733.248 194.771 734.091C195.164 734.934 195.361 735.928 195.361 737.074C195.361 738.229 195.164 739.231 194.771 740.078C194.378 740.921 193.834 741.574 193.138 742.038C192.442 742.498 191.639 742.727 190.73 742.727C190.029 742.727 189.468 742.611 189.047 742.379C188.625 742.143 188.301 741.875 188.074 741.577C187.847 741.274 187.671 741.023 187.548 740.824H187.349V742.5H185.73ZM187.378 737.045C187.378 737.869 187.499 738.596 187.74 739.226C187.982 739.851 188.334 740.341 188.798 740.696C189.262 741.046 189.83 741.222 190.503 741.222C191.204 741.222 191.788 741.037 192.257 740.668C192.731 740.294 193.086 739.792 193.322 739.162C193.564 738.527 193.685 737.822 193.685 737.045C193.685 736.278 193.566 735.587 193.33 734.972C193.098 734.351 192.745 733.861 192.271 733.501C191.803 733.137 191.213 732.955 190.503 732.955C189.821 732.955 189.248 733.127 188.784 733.473C188.32 733.814 187.97 734.292 187.733 734.908C187.496 735.518 187.378 736.231 187.378 737.045ZM202.499 742.727C201.447 742.727 200.541 742.495 199.778 742.031C199.021 741.562 198.436 740.909 198.024 740.071C197.617 739.228 197.413 738.248 197.413 737.131C197.413 736.013 197.617 735.028 198.024 734.176C198.436 733.319 199.009 732.652 199.743 732.173C200.482 731.69 201.343 731.449 202.328 731.449C202.896 731.449 203.457 731.544 204.011 731.733C204.565 731.922 205.07 732.23 205.524 732.656C205.979 733.078 206.341 733.636 206.611 734.332C206.881 735.028 207.016 735.885 207.016 736.903V737.614H198.607V736.165H205.311C205.311 735.549 205.188 735 204.942 734.517C204.7 734.034 204.355 733.653 203.905 733.374C203.46 733.094 202.934 732.955 202.328 732.955C201.661 732.955 201.083 733.12 200.595 733.452C200.112 733.778 199.741 734.205 199.48 734.73C199.22 735.256 199.089 735.819 199.089 736.42V737.386C199.089 738.21 199.232 738.909 199.516 739.482C199.804 740.05 200.205 740.483 200.716 740.781C201.227 741.075 201.821 741.222 202.499 741.222C202.939 741.222 203.337 741.16 203.692 741.037C204.052 740.909 204.362 740.72 204.622 740.469C204.883 740.213 205.084 739.896 205.226 739.517L206.845 739.972C206.675 740.521 206.388 741.004 205.986 741.42C205.583 741.832 205.086 742.154 204.494 742.386C203.902 742.614 203.237 742.727 202.499 742.727ZM209.565 742.5V731.591H211.185V733.239H211.298C211.497 732.699 211.857 732.261 212.378 731.925C212.899 731.589 213.486 731.42 214.139 731.42C214.262 731.42 214.416 731.423 214.601 731.428C214.786 731.432 214.925 731.439 215.02 731.449V733.153C214.963 733.139 214.833 733.118 214.629 733.089C214.43 733.056 214.22 733.04 213.997 733.04C213.467 733.04 212.993 733.151 212.577 733.374C212.165 733.591 211.838 733.894 211.597 734.283C211.36 734.666 211.241 735.104 211.241 735.597V742.5H209.565Z" fill="#454B60"/>
<path fill-rule="evenodd" clip-rule="evenodd" d="M342.5 807.6V815C342.5 816.9 340.9 818.4 339 818.4H324.3C322.4 818.4 320.9 816.9 320.9 815V800.3C320.9 798.4 322.4 796.8 324.3 796.8H331.7C331.9 796.8 332.1 797 332.1 797.2C332.1 797.4 331.9 797.6 331.7 797.6H324.3C322.9 797.6 321.6 798.8 321.6 800.3V815C321.6 816.5 322.9 817.7 324.3 817.7H339C340.5 817.7 341.7 816.5 341.7 815V807.6C341.7 807.4 341.9 807.2 342.1 807.2C342.3 807.2 342.5 807.4 342.5 807.6ZM345.1 798.9L343 800.9L332.8 811.1C332.733 811.234 332.633 811.3 332.5 811.3L327.7 812.3C327.7 812.3 327.667 812.3 327.6 812.3C327.3 812.3 327 811.9 327.1 811.6L328 806.8C328 806.667 328.067 806.567 328.2 806.5L339.4 795.3L340.4 794.2C340.8 793.9 341.2 793.7 341.7 793.7C342.1 793.7 342.5 793.9 342.9 794.2L345.1 796.4C345.7 797.1 345.7 798.2 345.1 798.9V798.9ZM341.7 801.2L338.1 797.6L328.8 807L327.9 811.4L332.3 810.6L341.7 801.2ZM344.5 796.9L342.4 794.8C342.2 794.6 341.967 794.5 341.7 794.5C341.433 794.5 341.2 794.6 341 794.8L338.7 797.1L342.2 800.6L344.5 798.3C344.9 797.9 344.9 797.3 344.5 796.9V796.9Z" fill="#454B60"/>
<path d="M72.2 835H359.8" stroke="#454B60" stroke-width="2"/>
<path d="M73.7614 812V797.455H78.6761C79.8125 797.455 80.7453 797.649 81.4744 798.037C82.2036 798.42 82.7434 798.948 83.0938 799.621C83.4441 800.293 83.6193 801.058 83.6193 801.915C83.6193 802.772 83.4441 803.532 83.0938 804.195C82.7434 804.857 82.206 805.378 81.4815 805.757C80.7571 806.131 79.8314 806.318 78.7045 806.318H74.7273V804.727H78.6477C79.4242 804.727 80.0492 804.614 80.5227 804.386C81.0009 804.159 81.3466 803.837 81.5597 803.42C81.7775 802.999 81.8864 802.497 81.8864 801.915C81.8864 801.332 81.7775 800.823 81.5597 800.388C81.3419 799.952 80.9938 799.616 80.5156 799.379C80.0374 799.138 79.4053 799.017 78.6193 799.017H75.5227V812H73.7614ZM80.608 805.466L84.1875 812H82.142L78.6193 805.466H80.608ZM90.7837 812.227C89.7326 812.227 88.8259 811.995 88.0636 811.531C87.306 811.062 86.7212 810.409 86.3093 809.571C85.9021 808.728 85.6985 807.748 85.6985 806.631C85.6985 805.513 85.9021 804.528 86.3093 803.676C86.7212 802.819 87.2942 802.152 88.0281 801.673C88.7667 801.19 89.6284 800.949 90.6133 800.949C91.1815 800.949 91.7425 801.044 92.2965 801.233C92.8505 801.422 93.3548 801.73 93.8093 802.156C94.2638 802.578 94.6261 803.136 94.896 803.832C95.1658 804.528 95.3008 805.385 95.3008 806.403V807.114H86.8917V805.665H93.5962C93.5962 805.049 93.4731 804.5 93.2269 804.017C92.9854 803.534 92.6398 803.153 92.19 802.874C91.7449 802.594 91.2193 802.455 90.6133 802.455C89.9457 802.455 89.368 802.62 88.8803 802.952C88.3974 803.278 88.0257 803.705 87.7653 804.23C87.5049 804.756 87.3746 805.319 87.3746 805.92V806.886C87.3746 807.71 87.5167 808.409 87.8008 808.982C88.0896 809.55 88.4897 809.983 89.0011 810.281C89.5124 810.575 90.1067 810.722 90.7837 810.722C91.2241 810.722 91.6218 810.66 91.9769 810.537C92.3368 810.409 92.6469 810.22 92.9073 809.969C93.1677 809.713 93.369 809.396 93.511 809.017L95.1303 809.472C94.9599 810.021 94.6734 810.504 94.271 810.92C93.8685 811.332 93.3713 811.654 92.7795 811.886C92.1876 812.114 91.5224 812.227 90.7837 812.227ZM102.254 816.318C101.444 816.318 100.748 816.214 100.166 816.006C99.5835 815.802 99.0981 815.532 98.7099 815.196C98.3263 814.865 98.021 814.509 97.7937 814.131L99.1289 813.193C99.2804 813.392 99.4722 813.619 99.7042 813.875C99.9362 814.135 100.253 814.36 100.656 814.55C101.063 814.744 101.596 814.841 102.254 814.841C103.135 814.841 103.861 814.628 104.434 814.202C105.007 813.776 105.294 813.108 105.294 812.199V809.983H105.152C105.029 810.182 104.853 810.428 104.626 810.722C104.404 811.01 104.082 811.268 103.66 811.496C103.243 811.718 102.68 811.83 101.97 811.83C101.089 811.83 100.298 811.621 99.5977 811.205C98.9016 810.788 98.35 810.182 97.9428 809.386C97.5404 808.591 97.3391 807.625 97.3391 806.489C97.3391 805.371 97.5356 804.398 97.9286 803.57C98.3216 802.736 98.8685 802.092 99.5692 801.638C100.27 801.179 101.08 800.949 101.998 800.949C102.708 800.949 103.272 801.067 103.689 801.304C104.11 801.536 104.432 801.801 104.654 802.099C104.882 802.393 105.057 802.634 105.18 802.824H105.35V801.091H106.97V812.312C106.97 813.25 106.757 814.012 106.331 814.599C105.909 815.191 105.341 815.625 104.626 815.899C103.916 816.179 103.125 816.318 102.254 816.318ZM102.197 810.324C102.869 810.324 103.438 810.17 103.902 809.862C104.366 809.554 104.718 809.112 104.96 808.534C105.201 807.956 105.322 807.265 105.322 806.46C105.322 805.674 105.204 804.981 104.967 804.379C104.73 803.778 104.38 803.307 103.916 802.966C103.452 802.625 102.879 802.455 102.197 802.455C101.487 802.455 100.895 802.634 100.422 802.994C99.9528 803.354 99.6 803.837 99.3633 804.443C99.1313 805.049 99.0153 805.722 99.0153 806.46C99.0153 807.218 99.1336 807.888 99.3704 808.47C99.6119 809.048 99.967 809.502 100.436 809.834C100.909 810.161 101.496 810.324 102.197 810.324ZM110.038 812V801.091H111.714V812H110.038ZM110.89 799.273C110.564 799.273 110.282 799.161 110.045 798.939C109.813 798.716 109.697 798.449 109.697 798.136C109.697 797.824 109.813 797.556 110.045 797.334C110.282 797.111 110.564 797 110.89 797C111.217 797 111.496 797.111 111.728 797.334C111.965 797.556 112.083 797.824 112.083 798.136C112.083 798.449 111.965 798.716 111.728 798.939C111.496 799.161 111.217 799.273 110.89 799.273ZM119.216 812.227C118.231 812.227 117.367 811.993 116.624 811.524C115.885 811.055 115.307 810.4 114.891 809.557C114.479 808.714 114.273 807.729 114.273 806.602C114.273 805.466 114.479 804.474 114.891 803.626C115.307 802.779 115.885 802.121 116.624 801.652C117.367 801.183 118.231 800.949 119.216 800.949C120.201 800.949 121.063 801.183 121.801 801.652C122.545 802.121 123.122 802.779 123.534 803.626C123.951 804.474 124.159 805.466 124.159 806.602C124.159 807.729 123.951 808.714 123.534 809.557C123.122 810.4 122.545 811.055 121.801 811.524C121.063 811.993 120.201 812.227 119.216 812.227ZM119.216 810.722C119.964 810.722 120.58 810.53 121.062 810.146C121.545 809.763 121.903 809.259 122.135 808.634C122.367 808.009 122.483 807.331 122.483 806.602C122.483 805.873 122.367 805.194 122.135 804.564C121.903 803.934 121.545 803.425 121.062 803.037C120.58 802.649 119.964 802.455 119.216 802.455C118.468 802.455 117.852 802.649 117.369 803.037C116.886 803.425 116.529 803.934 116.297 804.564C116.065 805.194 115.949 805.873 115.949 806.602C115.949 807.331 116.065 808.009 116.297 808.634C116.529 809.259 116.886 809.763 117.369 810.146C117.852 810.53 118.468 810.722 119.216 810.722ZM128.394 805.438V812H126.718V801.091H128.337V802.795H128.479C128.735 802.241 129.123 801.796 129.644 801.46C130.165 801.119 130.837 800.949 131.661 800.949C132.4 800.949 133.046 801.1 133.6 801.403C134.154 801.702 134.585 802.156 134.892 802.767C135.2 803.373 135.354 804.14 135.354 805.068V812H133.678V805.182C133.678 804.325 133.455 803.657 133.01 803.179C132.565 802.696 131.954 802.455 131.178 802.455C130.643 802.455 130.165 802.571 129.743 802.803C129.327 803.035 128.998 803.373 128.756 803.818C128.515 804.263 128.394 804.803 128.394 805.438Z" fill="#454B60"/>
<path fill-rule="evenodd" clip-rule="evenodd" d="M261.1 253.1C261.1 280.5 238.9 302.7 211.6 302.7C184.2 302.7 162 280.5 162 253.1C162 225.7 184.2 203.5 211.6 203.5C238.9 203.5 261.1 225.7 261.1 253.1ZM240.7 289C240.1 278.2 231.3 269.6 220.4 269.6H202.7C191.8 269.6 183 278.2 182.5 289C190.4 295.5 200.5 299.4 211.6 299.4C222.6 299.4 232.7 295.5 240.7 289ZM257.8 253.1C257.8 227.6 237.1 206.8 211.6 206.8C186 206.8 165.3 227.6 165.3 253.1C165.3 266.1 170.7 277.9 179.4 286.3C181.2 275 190.9 266.3 202.7 266.3H220.4C232.2 266.3 241.9 275 243.7 286.3C252.4 277.9 257.8 266.1 257.8 253.1ZM228.1 243.2C228.1 252.3 220.7 259.7 211.6 259.7C202.4 259.7 195 252.3 195 243.2C195 234 202.4 226.6 211.6 226.6C220.7 226.6 228.1 234 228.1 243.2ZM224.8 243.2C224.8 235.9 218.9 229.9 211.6 229.9C204.3 229.9 198.3 235.9 198.3 243.2C198.3 250.5 204.3 256.4 211.6 256.4C218.9 256.4 224.8 250.5 224.8 243.2Z" fill="#454B60"/>
<path d="M266.2 285C266.2 294.665 258.365 302.5 248.7 302.5C239.035 302.5 231.2 294.665 231.2 285C231.2 275.335 239.035 267.5 248.7 267.5C258.365 267.5 266.2 275.335 266.2 285Z" fill="#454B60"/>
<path fill-rule="evenodd" clip-rule="evenodd" d="M254.417 286.167V290.483C254.417 291.65 253.483 292.525 252.375 292.525H243.742C242.633 292.525 241.7 291.65 241.7 290.483V281.85C241.7 280.742 242.633 279.808 243.742 279.808H248.058C248.175 279.808 248.292 279.925 248.292 280.042C248.292 280.158 248.175 280.275 248.058 280.275H243.742C242.867 280.275 242.167 280.975 242.167 281.85V290.483C242.167 291.358 242.867 292.058 243.742 292.058H252.375C253.25 292.058 253.95 291.358 253.95 290.483V286.167C253.95 286.05 254.067 285.933 254.183 285.933C254.3 285.933 254.417 286.05 254.417 286.167ZM255.933 281.033L254.708 282.258L248.7 288.267C248.661 288.305 248.603 288.325 248.525 288.325L245.725 288.908C245.725 288.908 245.705 288.908 245.667 288.908C245.433 288.908 245.317 288.733 245.317 288.5L245.9 285.7C245.9 285.622 245.939 285.564 246.017 285.525L252.608 278.933L253.192 278.292C253.425 278.117 253.658 278 253.95 278C254.183 278 254.475 278.117 254.65 278.292L255.933 279.575C256.342 279.983 256.342 280.625 255.933 281.033V281.033ZM253.95 282.375L251.85 280.333L246.308 285.817L245.842 288.442L248.408 287.917L253.95 282.375ZM255.642 279.867L254.358 278.583C254.242 278.467 254.106 278.408 253.95 278.408C253.794 278.408 253.658 278.467 253.542 278.583L252.2 279.983L254.3 282.025L255.642 280.683C255.875 280.45 255.875 280.1 255.642 279.867V279.867Z" fill="white"/>
</svg>
