<svg width="441" height="852" viewBox="0 0 441 852" fill="none" xmlns="http://www.w3.org/2000/svg">
<g clip-path="url(#clip0_236_3225)">
<rect width="441" height="852" fill="white"/>
<line y1="-0.5" x2="441.005" y2="-0.5" transform="matrix(0.999991 0.00417269 -0.00492899 0.999988 0 158.449)" stroke="black"/>
<g filter="url(#filter0_d_236_3225)">
<rect x="16" y="210" width="197" height="194" rx="20" fill="#67D2FF"/>
</g>
<path fill-rule="evenodd" clip-rule="evenodd" d="M194.6 240.9V248.2C194.6 250.1 193 251.7 191.1 251.7H176.4C174.5 251.7 173 250.1 173 248.2V233.6C173 231.6 174.5 230.1 176.4 230.1H183.8C184 230.1 184.2 230.3 184.2 230.5C184.2 230.7 184 230.9 183.8 230.9H176.4C175 230.9 173.7 232.1 173.7 233.6V248.2C173.7 249.7 175 250.9 176.4 250.9H191.1C192.6 250.9 193.8 249.7 193.8 248.2V240.9C193.8 240.6 194 240.5 194.2 240.5C194.4 240.5 194.6 240.6 194.6 240.9ZM197.2 232.1L195.1 234.2L184.9 244.4C184.833 244.467 184.733 244.533 184.6 244.6L179.8 245.5C179.8 245.5 179.767 245.5 179.7 245.5C179.4 245.5 179.1 245.2 179.2 244.8L180.1 240.1C180.1 239.967 180.167 239.867 180.3 239.8L191.5 228.5L192.5 227.5C192.9 227.2 193.3 227 193.8 227C194.2 227 194.6 227.2 195 227.5L197.2 229.7C197.8 230.4 197.8 231.5 197.2 232.1V232.1ZM193.8 234.5L190.2 230.9L180.9 240.3L180 244.7L184.4 243.8L193.8 234.5ZM196.6 230.3L194.5 228.1C194.3 227.9 194.067 227.8 193.8 227.8C193.533 227.8 193.3 227.9 193.1 228.1L190.8 230.4L194.3 234L196.6 231.7C197 231.3 197 230.7 196.6 230.3V230.3Z" fill="#36373B"/>
<g filter="url(#filter1_d_236_3225)">
<rect x="228" y="210" width="197" height="194" rx="20" fill="#FF3838"/>
</g>
<path fill-rule="evenodd" clip-rule="evenodd" d="M406.6 240.9V248.2C406.6 250.1 405 251.7 403.1 251.7H388.4C386.5 251.7 385 250.1 385 248.2V233.6C385 231.6 386.5 230.1 388.4 230.1H395.8C396 230.1 396.2 230.3 396.2 230.5C396.2 230.7 396 230.9 395.8 230.9H388.4C387 230.9 385.7 232.1 385.7 233.6V248.2C385.7 249.7 387 250.9 388.4 250.9H403.1C404.6 250.9 405.8 249.7 405.8 248.2V240.9C405.8 240.6 406 240.5 406.2 240.5C406.4 240.5 406.6 240.6 406.6 240.9ZM409.2 232.1L407.1 234.2L396.9 244.4C396.833 244.467 396.733 244.533 396.6 244.6L391.8 245.5C391.8 245.5 391.767 245.5 391.7 245.5C391.4 245.5 391.1 245.2 391.2 244.8L392.1 240.1C392.1 239.967 392.167 239.867 392.3 239.8L403.5 228.5L404.5 227.5C404.9 227.2 405.3 227 405.8 227C406.2 227 406.6 227.2 407 227.5L409.2 229.7C409.8 230.4 409.8 231.5 409.2 232.1V232.1ZM405.8 234.5L402.2 230.9L392.9 240.3L392 244.7L396.4 243.8L405.8 234.5ZM408.6 230.3L406.5 228.1C406.3 227.9 406.067 227.8 405.8 227.8C405.533 227.8 405.3 227.9 405.1 228.1L402.8 230.4L406.3 234L408.6 231.7C409 231.3 409 230.7 408.6 230.3V230.3Z" fill="#36373B"/>
<g filter="url(#filter2_d_236_3225)">
<rect x="16" y="426" width="197" height="194" rx="20" fill="#E4FFB7"/>
</g>
<path fill-rule="evenodd" clip-rule="evenodd" d="M194.6 456.9V464.2C194.6 466.1 193 467.7 191.1 467.7H176.4C174.5 467.7 173 466.1 173 464.2V449.6C173 447.6 174.5 446.1 176.4 446.1H183.8C184 446.1 184.2 446.3 184.2 446.5C184.2 446.7 184 446.9 183.8 446.9H176.4C175 446.9 173.7 448.1 173.7 449.6V464.2C173.7 465.7 175 466.9 176.4 466.9H191.1C192.6 466.9 193.8 465.7 193.8 464.2V456.9C193.8 456.6 194 456.5 194.2 456.5C194.4 456.5 194.6 456.6 194.6 456.9ZM197.2 448.1L195.1 450.2L184.9 460.4C184.833 460.467 184.733 460.533 184.6 460.6L179.8 461.5C179.8 461.5 179.767 461.5 179.7 461.5C179.4 461.5 179.1 461.2 179.2 460.8L180.1 456.1C180.1 455.967 180.167 455.867 180.3 455.8L191.5 444.5L192.5 443.5C192.9 443.2 193.3 443 193.8 443C194.2 443 194.6 443.2 195 443.5L197.2 445.7C197.8 446.4 197.8 447.5 197.2 448.1V448.1ZM193.8 450.5L190.2 446.9L180.9 456.3L180 460.7L184.4 459.8L193.8 450.5ZM196.6 446.3L194.5 444.1C194.3 443.9 194.067 443.8 193.8 443.8C193.533 443.8 193.3 443.9 193.1 444.1L190.8 446.4L194.3 450L196.6 447.7C197 447.3 197 446.7 196.6 446.3V446.3Z" fill="#36373B"/>
<g filter="url(#filter3_d_236_3225)">
<rect x="228" y="426" width="197" height="194" rx="20" fill="#89ED9F"/>
</g>
<path fill-rule="evenodd" clip-rule="evenodd" d="M406.6 456.9V464.2C406.6 466.1 405 467.7 403.1 467.7H388.4C386.5 467.7 385 466.1 385 464.2V449.6C385 447.6 386.5 446.1 388.4 446.1H395.8C396 446.1 396.2 446.3 396.2 446.5C396.2 446.7 396 446.9 395.8 446.9H388.4C387 446.9 385.7 448.1 385.7 449.6V464.2C385.7 465.7 387 466.9 388.4 466.9H403.1C404.6 466.9 405.8 465.7 405.8 464.2V456.9C405.8 456.6 406 456.5 406.2 456.5C406.4 456.5 406.6 456.6 406.6 456.9ZM409.2 448.1L407.1 450.2L396.9 460.4C396.833 460.467 396.733 460.533 396.6 460.6L391.8 461.5C391.8 461.5 391.767 461.5 391.7 461.5C391.4 461.5 391.1 461.2 391.2 460.8L392.1 456.1C392.1 455.967 392.167 455.867 392.3 455.8L403.5 444.5L404.5 443.5C404.9 443.2 405.3 443 405.8 443C406.2 443 406.6 443.2 407 443.5L409.2 445.7C409.8 446.4 409.8 447.5 409.2 448.1V448.1ZM405.8 450.5L402.2 446.9L392.9 456.3L392 460.7L396.4 459.8L405.8 450.5ZM408.6 446.3L406.5 444.1C406.3 443.9 406.067 443.8 405.8 443.8C405.533 443.8 405.3 443.9 405.1 444.1L402.8 446.4L406.3 450L408.6 447.7C409 447.3 409 446.7 408.6 446.3V446.3Z" fill="#36373B"/>
<path d="M180.592 114.82H175.926C175.841 114.217 175.667 113.68 175.404 113.212C175.141 112.736 174.804 112.331 174.392 111.997C173.98 111.663 173.504 111.408 172.964 111.23C172.432 111.053 171.853 110.964 171.228 110.964C170.099 110.964 169.115 111.244 168.277 111.805C167.439 112.359 166.789 113.169 166.327 114.234C165.866 115.293 165.635 116.578 165.635 118.091C165.635 119.646 165.866 120.953 166.327 122.011C166.796 123.07 167.45 123.869 168.288 124.408C169.126 124.948 170.095 125.218 171.196 125.218C171.814 125.218 172.386 125.136 172.911 124.973C173.444 124.81 173.916 124.572 174.328 124.259C174.74 123.94 175.081 123.553 175.351 123.098C175.628 122.643 175.82 122.125 175.926 121.543L180.592 121.564C180.472 122.565 180.17 123.531 179.687 124.462C179.211 125.385 178.568 126.212 177.759 126.944C176.956 127.668 175.997 128.244 174.882 128.67C173.774 129.089 172.521 129.298 171.121 129.298C169.175 129.298 167.435 128.858 165.901 127.977C164.374 127.097 163.167 125.822 162.279 124.153C161.398 122.484 160.958 120.463 160.958 118.091C160.958 115.712 161.406 113.688 162.3 112.018C163.195 110.349 164.41 109.078 165.944 108.205C167.478 107.324 169.204 106.884 171.121 106.884C172.386 106.884 173.558 107.061 174.637 107.416C175.724 107.771 176.686 108.29 177.524 108.972C178.362 109.646 179.044 110.474 179.57 111.454C180.102 112.434 180.443 113.556 180.592 114.82ZM188.481 129.309C187.437 129.309 186.507 129.128 185.69 128.766C184.873 128.396 184.227 127.853 183.751 127.136C183.282 126.411 183.048 125.509 183.048 124.43C183.048 123.521 183.215 122.757 183.549 122.139C183.882 121.521 184.337 121.024 184.912 120.648C185.488 120.271 186.141 119.987 186.873 119.795C187.611 119.604 188.385 119.469 189.195 119.391C190.147 119.291 190.914 119.199 191.496 119.114C192.078 119.021 192.501 118.886 192.764 118.709C193.027 118.531 193.158 118.268 193.158 117.92V117.857C193.158 117.182 192.945 116.66 192.519 116.29C192.1 115.921 191.503 115.737 190.729 115.737C189.912 115.737 189.262 115.918 188.779 116.28C188.297 116.635 187.977 117.082 187.821 117.622L183.623 117.281C183.836 116.287 184.255 115.428 184.88 114.703C185.505 113.972 186.311 113.411 187.299 113.02C188.293 112.622 189.444 112.423 190.75 112.423C191.659 112.423 192.529 112.53 193.36 112.743C194.199 112.956 194.941 113.286 195.587 113.734C196.24 114.181 196.755 114.756 197.132 115.46C197.508 116.156 197.696 116.99 197.696 117.963V129H193.392V126.731H193.265C193.002 127.242 192.65 127.693 192.21 128.084C191.77 128.467 191.24 128.769 190.623 128.989C190.005 129.202 189.291 129.309 188.481 129.309ZM189.781 126.177C190.449 126.177 191.038 126.045 191.549 125.783C192.061 125.513 192.462 125.151 192.753 124.696C193.044 124.241 193.19 123.727 193.19 123.151V121.415C193.048 121.507 192.853 121.592 192.604 121.67C192.363 121.741 192.089 121.809 191.784 121.873C191.478 121.93 191.173 121.983 190.868 122.033C190.562 122.075 190.285 122.114 190.037 122.15C189.504 122.228 189.039 122.352 188.641 122.523C188.243 122.693 187.934 122.924 187.714 123.215C187.494 123.499 187.384 123.854 187.384 124.281C187.384 124.898 187.608 125.371 188.055 125.697C188.51 126.017 189.085 126.177 189.781 126.177ZM209.921 112.636V116.045H200.067V112.636H209.921ZM202.304 108.716H206.842V123.972C206.842 124.391 206.906 124.717 207.034 124.952C207.162 125.179 207.339 125.339 207.567 125.431C207.801 125.523 208.071 125.57 208.376 125.57C208.589 125.57 208.803 125.552 209.016 125.516C209.229 125.474 209.392 125.442 209.506 125.42L210.219 128.798C209.992 128.869 209.673 128.95 209.261 129.043C208.849 129.142 208.348 129.202 207.759 129.224C206.665 129.266 205.706 129.121 204.882 128.787C204.065 128.453 203.43 127.935 202.975 127.232C202.521 126.528 202.297 125.641 202.304 124.568V108.716ZM220.159 129.32C218.476 129.32 217.027 128.979 215.812 128.297C214.605 127.608 213.675 126.635 213.021 125.378C212.368 124.114 212.041 122.619 212.041 120.893C212.041 119.21 212.368 117.732 213.021 116.461C213.675 115.19 214.594 114.199 215.781 113.489C216.974 112.778 218.373 112.423 219.978 112.423C221.058 112.423 222.063 112.597 222.993 112.945C223.93 113.286 224.747 113.801 225.443 114.49C226.146 115.179 226.693 116.045 227.084 117.089C227.474 118.126 227.67 119.341 227.67 120.733V121.979H213.852V119.167H223.398C223.398 118.513 223.256 117.935 222.972 117.43C222.688 116.926 222.293 116.532 221.789 116.248C221.292 115.957 220.713 115.811 220.053 115.811C219.364 115.811 218.753 115.971 218.22 116.29C217.695 116.603 217.283 117.026 216.984 117.558C216.686 118.084 216.533 118.67 216.526 119.316V121.99C216.526 122.8 216.675 123.499 216.974 124.089C217.279 124.678 217.709 125.133 218.263 125.452C218.817 125.772 219.474 125.932 220.234 125.932C220.738 125.932 221.2 125.861 221.619 125.719C222.038 125.577 222.396 125.364 222.695 125.08C222.993 124.795 223.22 124.447 223.376 124.036L227.574 124.312C227.361 125.321 226.924 126.202 226.263 126.955C225.61 127.7 224.765 128.283 223.728 128.702C222.698 129.114 221.509 129.32 220.159 129.32ZM238.004 135.477C236.533 135.477 235.273 135.275 234.222 134.87C233.178 134.472 232.347 133.929 231.729 133.24C231.111 132.551 230.71 131.777 230.525 130.918L234.722 130.353C234.85 130.68 235.053 130.985 235.33 131.269C235.607 131.553 235.972 131.781 236.427 131.951C236.888 132.129 237.45 132.217 238.11 132.217C239.097 132.217 239.911 131.976 240.55 131.493C241.196 131.017 241.519 130.218 241.519 129.096V126.102H241.327C241.129 126.557 240.83 126.987 240.433 127.391C240.035 127.796 239.523 128.126 238.898 128.382C238.273 128.638 237.528 128.766 236.661 128.766C235.433 128.766 234.314 128.482 233.305 127.913C232.304 127.338 231.505 126.461 230.908 125.282C230.319 124.096 230.024 122.597 230.024 120.786C230.024 118.933 230.326 117.384 230.93 116.141C231.533 114.898 232.336 113.968 233.337 113.35C234.346 112.732 235.45 112.423 236.651 112.423C237.567 112.423 238.334 112.58 238.952 112.892C239.57 113.197 240.067 113.581 240.443 114.043C240.827 114.497 241.121 114.945 241.327 115.385H241.498V112.636H246.004V129.16C246.004 130.552 245.663 131.717 244.982 132.654C244.3 133.592 243.355 134.295 242.148 134.763C240.947 135.239 239.566 135.477 238.004 135.477ZM238.099 125.357C238.831 125.357 239.449 125.175 239.953 124.813C240.464 124.444 240.855 123.918 241.125 123.237C241.402 122.548 241.54 121.724 241.54 120.765C241.54 119.806 241.406 118.975 241.136 118.272C240.866 117.562 240.475 117.011 239.964 116.621C239.452 116.23 238.831 116.035 238.099 116.035C237.354 116.035 236.725 116.237 236.214 116.642C235.702 117.04 235.315 117.594 235.053 118.304C234.79 119.014 234.658 119.835 234.658 120.765C234.658 121.71 234.79 122.526 235.053 123.215C235.322 123.897 235.71 124.426 236.214 124.803C236.725 125.172 237.354 125.357 238.099 125.357ZM257.009 129.32C255.354 129.32 253.923 128.968 252.716 128.265C251.516 127.555 250.589 126.567 249.935 125.303C249.282 124.032 248.955 122.558 248.955 120.882C248.955 119.192 249.282 117.714 249.935 116.45C250.589 115.179 251.516 114.192 252.716 113.489C253.923 112.778 255.354 112.423 257.009 112.423C258.664 112.423 260.092 112.778 261.292 113.489C262.499 114.192 263.43 115.179 264.083 116.45C264.737 117.714 265.063 119.192 265.063 120.882C265.063 122.558 264.737 124.032 264.083 125.303C263.43 126.567 262.499 127.555 261.292 128.265C260.092 128.968 258.664 129.32 257.009 129.32ZM257.031 125.804C257.783 125.804 258.412 125.591 258.916 125.165C259.42 124.732 259.8 124.142 260.056 123.396C260.319 122.651 260.45 121.802 260.45 120.85C260.45 119.898 260.319 119.05 260.056 118.304C259.8 117.558 259.42 116.969 258.916 116.536C258.412 116.102 257.783 115.886 257.031 115.886C256.271 115.886 255.631 116.102 255.113 116.536C254.602 116.969 254.214 117.558 253.952 118.304C253.696 119.05 253.568 119.898 253.568 120.85C253.568 121.802 253.696 122.651 253.952 123.396C254.214 124.142 254.602 124.732 255.113 125.165C255.631 125.591 256.271 125.804 257.031 125.804ZM268.014 129V112.636H272.414V115.491H272.585C272.883 114.476 273.384 113.709 274.087 113.19C274.79 112.665 275.599 112.402 276.516 112.402C276.743 112.402 276.988 112.416 277.251 112.445C277.513 112.473 277.744 112.512 277.943 112.562V116.589C277.73 116.525 277.435 116.468 277.059 116.418C276.683 116.369 276.338 116.344 276.026 116.344C275.358 116.344 274.761 116.489 274.236 116.781C273.717 117.065 273.305 117.462 273 117.974C272.702 118.485 272.553 119.075 272.553 119.742V129H268.014ZM283.589 135.136C283.014 135.136 282.474 135.09 281.97 134.998C281.473 134.913 281.061 134.803 280.734 134.668L281.757 131.28C282.29 131.443 282.769 131.532 283.195 131.546C283.629 131.56 284.001 131.461 284.314 131.248C284.634 131.035 284.893 130.673 285.092 130.161L285.358 129.469L279.488 112.636H284.261L287.648 124.653H287.819L291.239 112.636H296.043L289.683 130.768C289.378 131.649 288.962 132.416 288.437 133.07C287.918 133.73 287.261 134.238 286.466 134.593C285.67 134.955 284.712 135.136 283.589 135.136Z" fill="#454B60"/>
</g>
<defs>
<filter id="filter0_d_236_3225" x="12" y="210" width="205" height="202" filterUnits="userSpaceOnUse" color-interpolation-filters="sRGB">
<feFlood flood-opacity="0" result="BackgroundImageFix"/>
<feColorMatrix in="SourceAlpha" type="matrix" values="0 0 0 0 0 0 0 0 0 0 0 0 0 0 0 0 0 0 127 0" result="hardAlpha"/>
<feOffset dy="4"/>
<feGaussianBlur stdDeviation="2"/>
<feComposite in2="hardAlpha" operator="out"/>
<feColorMatrix type="matrix" values="0 0 0 0 0 0 0 0 0 0 0 0 0 0 0 0 0 0 0.25 0"/>
<feBlend mode="normal" in2="BackgroundImageFix" result="effect1_dropShadow_236_3225"/>
<feBlend mode="normal" in="SourceGraphic" in2="effect1_dropShadow_236_3225" result="shape"/>
</filter>
<filter id="filter1_d_236_3225" x="224" y="210" width="205" height="202" filterUnits="userSpaceOnUse" color-interpolation-filters="sRGB">
<feFlood flood-opacity="0" result="BackgroundImageFix"/>
<feColorMatrix in="SourceAlpha" type="matrix" values="0 0 0 0 0 0 0 0 0 0 0 0 0 0 0 0 0 0 127 0" result="hardAlpha"/>
<feOffset dy="4"/>
<feGaussianBlur stdDeviation="2"/>
<feComposite in2="hardAlpha" operator="out"/>
<feColorMatrix type="matrix" values="0 0 0 0 0 0 0 0 0 0 0 0 0 0 0 0 0 0 0.25 0"/>
<feBlend mode="normal" in2="BackgroundImageFix" result="effect1_dropShadow_236_3225"/>
<feBlend mode="normal" in="SourceGraphic" in2="effect1_dropShadow_236_3225" result="shape"/>
</filter>
<filter id="filter2_d_236_3225" x="12" y="426" width="205" height="202" filterUnits="userSpaceOnUse" color-interpolation-filters="sRGB">
<feFlood flood-opacity="0" result="BackgroundImageFix"/>
<feColorMatrix in="SourceAlpha" type="matrix" values="0 0 0 0 0 0 0 0 0 0 0 0 0 0 0 0 0 0 127 0" result="hardAlpha"/>
<feOffset dy="4"/>
<feGaussianBlur stdDeviation="2"/>
<feComposite in2="hardAlpha" operator="out"/>
<feColorMatrix type="matrix" values="0 0 0 0 0 0 0 0 0 0 0 0 0 0 0 0 0 0 0.25 0"/>
<feBlend mode="normal" in2="BackgroundImageFix" result="effect1_dropShadow_236_3225"/>
<feBlend mode="normal" in="SourceGraphic" in2="effect1_dropShadow_236_3225" result="shape"/>
</filter>
<filter id="filter3_d_236_3225" x="224" y="426" width="205" height="202" filterUnits="userSpaceOnUse" color-interpolation-filters="sRGB">
<feFlood flood-opacity="0" result="BackgroundImageFix"/>
<feColorMatrix in="SourceAlpha" type="matrix" values="0 0 0 0 0 0 0 0 0 0 0 0 0 0 0 0 0 0 127 0" result="hardAlpha"/>
<feOffset dy="4"/>
<feGaussianBlur stdDeviation="2"/>
<feComposite in2="hardAlpha" operator="out"/>
<feColorMatrix type="matrix" values="0 0 0 0 0 0 0 0 0 0 0 0 0 0 0 0 0 0 0.25 0"/>
<feBlend mode="normal" in2="BackgroundImageFix" result="effect1_dropShadow_236_3225"/>
<feBlend mode="normal" in="SourceGraphic" in2="effect1_dropShadow_236_3225" result="shape"/>
</filter>
<clipPath id="clip0_236_3225">
<rect width="441" height="852" fill="white"/>
</clipPath>
</defs>
</svg>
