<svg width="441" height="852" viewBox="0 0 441 852" fill="none" xmlns="http://www.w3.org/2000/svg">
<g clip-path="url(#clip0_226_1658)">
<rect width="441" height="852" fill="white"/>
<line y1="-0.5" x2="441.005" y2="-0.5" transform="matrix(0.999991 0.00417269 -0.00492899 0.999988 0 98.4492)" stroke="black"/>
<g filter="url(#filter0_d_226_1658)">
<rect x="16" y="150" width="197" height="194" rx="20" fill="#67D2FF"/>
</g>
<path fill-rule="evenodd" clip-rule="evenodd" d="M194.6 180.9V188.2C194.6 190.1 193 191.7 191.1 191.7H176.4C174.5 191.7 173 190.1 173 188.2V173.6C173 171.6 174.5 170.1 176.4 170.1H183.8C184 170.1 184.2 170.3 184.2 170.5C184.2 170.7 184 170.9 183.8 170.9H176.4C175 170.9 173.7 172.1 173.7 173.6V188.2C173.7 189.7 175 190.9 176.4 190.9H191.1C192.6 190.9 193.8 189.7 193.8 188.2V180.9C193.8 180.6 194 180.5 194.2 180.5C194.4 180.5 194.6 180.6 194.6 180.9ZM197.2 172.1L195.1 174.2L184.9 184.4C184.833 184.467 184.733 184.533 184.6 184.6L179.8 185.5C179.8 185.5 179.767 185.5 179.7 185.5C179.4 185.5 179.1 185.2 179.2 184.8L180.1 180.1C180.1 179.967 180.167 179.867 180.3 179.8L191.5 168.5L192.5 167.5C192.9 167.2 193.3 167 193.8 167C194.2 167 194.6 167.2 195 167.5L197.2 169.7C197.8 170.4 197.8 171.5 197.2 172.1V172.1ZM193.8 174.5L190.2 170.9L180.9 180.3L180 184.7L184.4 183.8L193.8 174.5ZM196.6 170.3L194.5 168.1C194.3 167.9 194.067 167.8 193.8 167.8C193.533 167.8 193.3 167.9 193.1 168.1L190.8 170.4L194.3 174L196.6 171.7C197 171.3 197 170.7 196.6 170.3V170.3Z" fill="#36373B"/>
<g filter="url(#filter1_d_226_1658)">
<rect x="228" y="150" width="197" height="194" rx="20" fill="#FF3838"/>
</g>
<path fill-rule="evenodd" clip-rule="evenodd" d="M406.6 180.9V188.2C406.6 190.1 405 191.7 403.1 191.7H388.4C386.5 191.7 385 190.1 385 188.2V173.6C385 171.6 386.5 170.1 388.4 170.1H395.8C396 170.1 396.2 170.3 396.2 170.5C396.2 170.7 396 170.9 395.8 170.9H388.4C387 170.9 385.7 172.1 385.7 173.6V188.2C385.7 189.7 387 190.9 388.4 190.9H403.1C404.6 190.9 405.8 189.7 405.8 188.2V180.9C405.8 180.6 406 180.5 406.2 180.5C406.4 180.5 406.6 180.6 406.6 180.9ZM409.2 172.1L407.1 174.2L396.9 184.4C396.833 184.467 396.733 184.533 396.6 184.6L391.8 185.5C391.8 185.5 391.767 185.5 391.7 185.5C391.4 185.5 391.1 185.2 391.2 184.8L392.1 180.1C392.1 179.967 392.167 179.867 392.3 179.8L403.5 168.5L404.5 167.5C404.9 167.2 405.3 167 405.8 167C406.2 167 406.6 167.2 407 167.5L409.2 169.7C409.8 170.4 409.8 171.5 409.2 172.1V172.1ZM405.8 174.5L402.2 170.9L392.9 180.3L392 184.7L396.4 183.8L405.8 174.5ZM408.6 170.3L406.5 168.1C406.3 167.9 406.067 167.8 405.8 167.8C405.533 167.8 405.3 167.9 405.1 168.1L402.8 170.4L406.3 174L408.6 171.7C409 171.3 409 170.7 408.6 170.3V170.3Z" fill="#36373B"/>
<g filter="url(#filter2_d_226_1658)">
<rect x="16" y="366" width="197" height="194" rx="20" fill="#E4FFB7"/>
</g>
<path fill-rule="evenodd" clip-rule="evenodd" d="M194.6 396.9V404.2C194.6 406.1 193 407.7 191.1 407.7H176.4C174.5 407.7 173 406.1 173 404.2V389.6C173 387.6 174.5 386.1 176.4 386.1H183.8C184 386.1 184.2 386.3 184.2 386.5C184.2 386.7 184 386.9 183.8 386.9H176.4C175 386.9 173.7 388.1 173.7 389.6V404.2C173.7 405.7 175 406.9 176.4 406.9H191.1C192.6 406.9 193.8 405.7 193.8 404.2V396.9C193.8 396.6 194 396.5 194.2 396.5C194.4 396.5 194.6 396.6 194.6 396.9ZM197.2 388.1L195.1 390.2L184.9 400.4C184.833 400.467 184.733 400.533 184.6 400.6L179.8 401.5C179.8 401.5 179.767 401.5 179.7 401.5C179.4 401.5 179.1 401.2 179.2 400.8L180.1 396.1C180.1 395.967 180.167 395.867 180.3 395.8L191.5 384.5L192.5 383.5C192.9 383.2 193.3 383 193.8 383C194.2 383 194.6 383.2 195 383.5L197.2 385.7C197.8 386.4 197.8 387.5 197.2 388.1V388.1ZM193.8 390.5L190.2 386.9L180.9 396.3L180 400.7L184.4 399.8L193.8 390.5ZM196.6 386.3L194.5 384.1C194.3 383.9 194.067 383.8 193.8 383.8C193.533 383.8 193.3 383.9 193.1 384.1L190.8 386.4L194.3 390L196.6 387.7C197 387.3 197 386.7 196.6 386.3V386.3Z" fill="#36373B"/>
<g filter="url(#filter3_d_226_1658)">
<rect x="228" y="366" width="197" height="194" rx="20" fill="#89ED9F"/>
</g>
<path fill-rule="evenodd" clip-rule="evenodd" d="M406.6 396.9V404.2C406.6 406.1 405 407.7 403.1 407.7H388.4C386.5 407.7 385 406.1 385 404.2V389.6C385 387.6 386.5 386.1 388.4 386.1H395.8C396 386.1 396.2 386.3 396.2 386.5C396.2 386.7 396 386.9 395.8 386.9H388.4C387 386.9 385.7 388.1 385.7 389.6V404.2C385.7 405.7 387 406.9 388.4 406.9H403.1C404.6 406.9 405.8 405.7 405.8 404.2V396.9C405.8 396.6 406 396.5 406.2 396.5C406.4 396.5 406.6 396.6 406.6 396.9ZM409.2 388.1L407.1 390.2L396.9 400.4C396.833 400.467 396.733 400.533 396.6 400.6L391.8 401.5C391.8 401.5 391.767 401.5 391.7 401.5C391.4 401.5 391.1 401.2 391.2 400.8L392.1 396.1C392.1 395.967 392.167 395.867 392.3 395.8L403.5 384.5L404.5 383.5C404.9 383.2 405.3 383 405.8 383C406.2 383 406.6 383.2 407 383.5L409.2 385.7C409.8 386.4 409.8 387.5 409.2 388.1V388.1ZM405.8 390.5L402.2 386.9L392.9 396.3L392 400.7L396.4 399.8L405.8 390.5ZM408.6 386.3L406.5 384.1C406.3 383.9 406.067 383.8 405.8 383.8C405.533 383.8 405.3 383.9 405.1 384.1L402.8 386.4L406.3 390L408.6 387.7C409 387.3 409 386.7 408.6 386.3V386.3Z" fill="#36373B"/>
</g>
<defs>
<filter id="filter0_d_226_1658" x="12" y="150" width="205" height="202" filterUnits="userSpaceOnUse" color-interpolation-filters="sRGB">
<feFlood flood-opacity="0" result="BackgroundImageFix"/>
<feColorMatrix in="SourceAlpha" type="matrix" values="0 0 0 0 0 0 0 0 0 0 0 0 0 0 0 0 0 0 127 0" result="hardAlpha"/>
<feOffset dy="4"/>
<feGaussianBlur stdDeviation="2"/>
<feComposite in2="hardAlpha" operator="out"/>
<feColorMatrix type="matrix" values="0 0 0 0 0 0 0 0 0 0 0 0 0 0 0 0 0 0 0.25 0"/>
<feBlend mode="normal" in2="BackgroundImageFix" result="effect1_dropShadow_226_1658"/>
<feBlend mode="normal" in="SourceGraphic" in2="effect1_dropShadow_226_1658" result="shape"/>
</filter>
<filter id="filter1_d_226_1658" x="224" y="150" width="205" height="202" filterUnits="userSpaceOnUse" color-interpolation-filters="sRGB">
<feFlood flood-opacity="0" result="BackgroundImageFix"/>
<feColorMatrix in="SourceAlpha" type="matrix" values="0 0 0 0 0 0 0 0 0 0 0 0 0 0 0 0 0 0 127 0" result="hardAlpha"/>
<feOffset dy="4"/>
<feGaussianBlur stdDeviation="2"/>
<feComposite in2="hardAlpha" operator="out"/>
<feColorMatrix type="matrix" values="0 0 0 0 0 0 0 0 0 0 0 0 0 0 0 0 0 0 0.25 0"/>
<feBlend mode="normal" in2="BackgroundImageFix" result="effect1_dropShadow_226_1658"/>
<feBlend mode="normal" in="SourceGraphic" in2="effect1_dropShadow_226_1658" result="shape"/>
</filter>
<filter id="filter2_d_226_1658" x="12" y="366" width="205" height="202" filterUnits="userSpaceOnUse" color-interpolation-filters="sRGB">
<feFlood flood-opacity="0" result="BackgroundImageFix"/>
<feColorMatrix in="SourceAlpha" type="matrix" values="0 0 0 0 0 0 0 0 0 0 0 0 0 0 0 0 0 0 127 0" result="hardAlpha"/>
<feOffset dy="4"/>
<feGaussianBlur stdDeviation="2"/>
<feComposite in2="hardAlpha" operator="out"/>
<feColorMatrix type="matrix" values="0 0 0 0 0 0 0 0 0 0 0 0 0 0 0 0 0 0 0.25 0"/>
<feBlend mode="normal" in2="BackgroundImageFix" result="effect1_dropShadow_226_1658"/>
<feBlend mode="normal" in="SourceGraphic" in2="effect1_dropShadow_226_1658" result="shape"/>
</filter>
<filter id="filter3_d_226_1658" x="224" y="366" width="205" height="202" filterUnits="userSpaceOnUse" color-interpolation-filters="sRGB">
<feFlood flood-opacity="0" result="BackgroundImageFix"/>
<feColorMatrix in="SourceAlpha" type="matrix" values="0 0 0 0 0 0 0 0 0 0 0 0 0 0 0 0 0 0 127 0" result="hardAlpha"/>
<feOffset dy="4"/>
<feGaussianBlur stdDeviation="2"/>
<feComposite in2="hardAlpha" operator="out"/>
<feColorMatrix type="matrix" values="0 0 0 0 0 0 0 0 0 0 0 0 0 0 0 0 0 0 0.25 0"/>
<feBlend mode="normal" in2="BackgroundImageFix" result="effect1_dropShadow_226_1658"/>
<feBlend mode="normal" in="SourceGraphic" in2="effect1_dropShadow_226_1658" result="shape"/>
</filter>
<clipPath id="clip0_226_1658">
<rect width="441" height="852" fill="white"/>
</clipPath>
</defs>
</svg>
