<svg width="441" height="996" viewBox="0 0 441 996" fill="none" xmlns="http://www.w3.org/2000/svg">
<g clip-path="url(#clip0_230_2963)">
<rect width="441" height="996" fill="white"/>
<path d="M53.464 121.768H57.112V122.856H53.464V121.768ZM56.36 117.8H57.688V128.392H56.36V117.8ZM48.456 130.84H58.088V131.928H48.456V130.84ZM48.456 127.464H49.784V131.4H48.456V127.464ZM49.48 119.592H50.568V120.76C50.568 123.384 48.936 125.656 46.52 126.552L45.832 125.496C47.992 124.728 49.48 122.808 49.48 120.76V119.592ZM49.736 119.592H50.808V120.744C50.808 122.616 52.216 124.44 54.312 125.176L53.64 126.216C51.288 125.368 49.736 123.192 49.736 120.744V119.592ZM46.248 118.968H53.976V120.04H46.248V118.968ZM66.0868 123.496H68.8228V124.584H66.0868V123.496ZM63.1428 121.48H64.1668V122.232C64.1668 125.112 62.9668 128.024 60.8548 129.288L60.0708 128.28C62.0228 127.144 63.1428 124.6 63.1428 122.232V121.48ZM63.3828 121.48H64.4068V122.232C64.4068 124.536 65.5588 126.92 67.5108 127.976L66.7588 128.968C64.6308 127.784 63.3828 125.048 63.3828 122.232V121.48ZM60.4708 120.44H67.0788V121.544H60.4708V120.44ZM63.1428 118.296H64.4228V121.288H63.1428V118.296ZM71.1908 117.784H72.4708V132.248H71.1908V117.784ZM68.2948 118.12H69.5428V131.512H68.2948V118.12Z" fill="#545F71"/>
<path d="M110.176 118.608H112.304V126.864H110.176V118.608ZM111.712 121.824H114.272V123.568H111.712V121.824ZM105.92 119.456H108.192C108.192 123.392 105.728 126.064 101.312 127.216L100.48 125.536C104.112 124.624 105.92 122.736 105.92 120.512V119.456ZM101.184 119.456H107.2V121.136H101.184V119.456ZM102.688 127.456H112.304V133.264H102.688V127.456ZM110.208 129.136H104.784V131.584H110.208V129.136ZM118.367 119.744H120.095V121.904C120.095 125.568 118.815 129.008 116.015 130.384L114.735 128.672C117.231 127.504 118.367 124.656 118.367 121.904V119.744ZM118.799 119.744H120.495V121.904C120.495 124.56 121.551 127.264 123.919 128.416L122.639 130.112C119.967 128.752 118.799 125.456 118.799 121.904V119.744ZM124.511 118.608H126.655V133.424H124.511V118.608ZM126.175 124.304H128.799V126.08H126.175V124.304ZM134.206 119.584C136.542 119.584 138.286 121.104 138.286 123.232C138.286 125.376 136.542 126.896 134.206 126.896C131.886 126.896 130.11 125.376 130.11 123.232C130.11 121.104 131.886 119.584 134.206 119.584ZM134.206 121.408C133.07 121.408 132.206 122.08 132.206 123.232C132.206 124.4 133.07 125.072 134.206 125.072C135.342 125.072 136.206 124.4 136.206 123.232C136.206 122.08 135.342 121.408 134.206 121.408ZM139.678 118.592H141.806V133.456H139.678V118.592ZM129.758 130.448L129.502 128.736C132.11 128.736 135.742 128.704 138.862 128.24L139.022 129.776C135.806 130.416 132.318 130.448 129.758 130.448ZM156.755 118.608H158.883V126H156.755V118.608ZM158.019 121.44H160.835V123.184H158.019V121.44ZM147.651 119.296H154.707V125.456H147.651V119.296ZM152.611 120.96H149.747V123.792H152.611V120.96ZM149.091 126.592H158.883V130.656H151.235V132.416H149.123V129.12H156.787V128.224H149.091V126.592ZM149.123 131.6H159.315V133.264H149.123V131.6Z" fill="#545F71"/>
<path d="M193.656 125.96H194.984V129.56H193.656V125.96ZM194.328 118.728C197.384 118.728 199.576 120.216 199.576 122.52C199.576 124.824 197.384 126.312 194.328 126.312C191.272 126.312 189.064 124.824 189.064 122.52C189.064 120.216 191.272 118.728 194.328 118.728ZM194.328 119.784C192.024 119.784 190.344 120.872 190.344 122.52C190.344 124.168 192.024 125.256 194.328 125.256C196.616 125.256 198.296 124.168 198.296 122.52C198.296 120.872 196.616 119.784 194.328 119.784ZM187.8 129.304H200.904V130.408H187.8V129.304ZM203.959 121.224H213.767V122.312H203.959V121.224ZM202.183 123.704H215.303V124.792H202.183V123.704ZM203.959 117.992H205.255V121.72H203.959V117.992ZM203.815 126.088H213.639V129.48H205.159V131.352H203.847V128.488H212.311V127.112H203.815V126.088ZM203.847 131.016H214.119V132.056H203.847V131.016ZM230.554 117.768H231.898V132.248H230.554V117.768ZM231.53 123.64H234.202V124.744H231.53V123.64ZM226.858 119.336H228.154C228.154 123.448 226.266 127.16 221.594 129.512L220.858 128.488C224.858 126.456 226.858 123.368 226.858 119.544V119.336ZM221.53 119.336H227.546V120.424H221.53V119.336ZM238.728 119.336H239.816V120.504C239.816 123.16 238.216 125.384 235.784 126.264L235.112 125.208C237.288 124.44 238.728 122.568 238.728 120.504V119.336ZM238.968 119.336H240.056V120.488C240.056 122.376 241.432 124.072 243.56 124.776L242.92 125.816C240.504 125.016 238.968 122.952 238.968 120.488V119.336ZM235.512 118.856H243.24V119.944H235.512V118.856ZM245.064 117.784H246.392V126.504H245.064V117.784ZM246.024 121.448H248.536V122.568H246.024V121.448ZM241.784 126.888C244.728 126.888 246.536 127.864 246.536 129.544C246.536 131.24 244.728 132.216 241.784 132.216C238.84 132.216 237.032 131.24 237.032 129.544C237.032 127.864 238.84 126.888 241.784 126.888ZM241.784 127.96C239.64 127.96 238.328 128.536 238.328 129.544C238.328 130.568 239.64 131.176 241.784 131.176C243.928 131.176 245.24 130.568 245.24 129.544C245.24 128.536 243.928 127.96 241.784 127.96ZM259.611 122.072H260.923V124.28H259.611V122.072ZM259.419 118.664H260.587V119.112C260.587 121.288 257.899 122.68 254.859 122.968L254.427 121.96C257.035 121.752 259.419 120.632 259.419 119.112V118.664ZM259.995 118.664H261.147V119.112C261.147 120.616 263.531 121.752 266.139 121.96L265.707 122.968C262.683 122.68 259.995 121.288 259.995 119.112V118.664ZM254.939 118.232H265.643V119.272H254.939V118.232ZM254.955 126.76H265.611V127.816H254.955V126.76ZM253.739 123.784H266.859V124.856H253.739V123.784ZM260.283 128.52C263.067 128.52 264.619 129.176 264.619 130.424C264.619 131.688 263.067 132.328 260.283 132.328C257.499 132.328 255.931 131.688 255.931 130.424C255.931 129.176 257.499 128.52 260.283 128.52ZM260.283 129.432C258.363 129.432 257.291 129.768 257.291 130.424C257.291 131.08 258.363 131.416 260.283 131.416C262.187 131.416 263.275 131.08 263.275 130.424C263.275 129.768 262.187 129.432 260.283 129.432ZM259.627 125.432H260.939V127.432H259.627V125.432ZM272.186 118.632C274.362 118.632 275.962 120.024 275.962 122.04C275.962 124.056 274.362 125.448 272.186 125.448C270.01 125.448 268.41 124.056 268.41 122.04C268.41 120.024 270.01 118.632 272.186 118.632ZM272.186 119.752C270.746 119.752 269.706 120.68 269.706 122.04C269.706 123.4 270.746 124.328 272.186 124.328C273.626 124.328 274.666 123.4 274.666 122.04C274.666 120.68 273.626 119.752 272.186 119.752ZM278.042 117.784H279.37V126.024H278.042V117.784ZM279.002 121.24H281.514V122.344H279.002V121.24ZM271.61 126.664H272.634V127.448C272.634 129.352 271.466 131.272 269.386 132.072L268.714 131.08C270.538 130.408 271.61 128.84 271.61 127.448V126.664ZM271.898 126.664H272.89V127.448C272.89 128.92 273.738 130.488 275.498 131.192L274.922 132.2C272.826 131.384 271.898 129.384 271.898 127.448V126.664ZM276.954 126.664H277.946V127.448C277.946 129.16 277.002 131.32 274.922 132.2L274.346 131.192C276.09 130.408 276.954 128.712 276.954 127.448V126.664ZM277.21 126.664H278.25V127.448C278.25 128.952 279.306 130.456 281.13 131.08L280.474 132.072C278.362 131.304 277.21 129.464 277.21 127.448V126.664ZM283.369 125.144H284.457C287.129 125.144 288.825 125.048 290.793 124.664L290.921 125.752C288.905 126.136 287.177 126.232 284.457 126.232H283.369V125.144ZM283.369 118.968H289.993V120.056H284.681V125.48H283.369V118.968ZM293.113 117.784H294.441V128.344H293.113V117.784ZM289.065 121.784H293.417V122.856H289.065V121.784ZM285.193 130.936H294.825V132.024H285.193V130.936ZM285.193 127.56H286.521V131.56H285.193V127.56ZM305.179 118.312C307.339 118.312 308.923 119.624 308.923 121.528C308.923 123.416 307.339 124.728 305.179 124.728C303.035 124.728 301.451 123.416 301.451 121.528C301.451 119.624 303.035 118.312 305.179 118.312ZM305.179 119.4C303.787 119.4 302.731 120.28 302.731 121.528C302.731 122.776 303.787 123.64 305.179 123.64C306.587 123.64 307.627 122.776 307.627 121.528C307.627 120.28 306.587 119.4 305.179 119.4ZM311.643 117.784H312.987V125.192H311.643V117.784ZM303.627 125.896H312.987V129.416H304.955V131.592H303.659V128.424H311.675V126.968H303.627V125.896ZM303.659 131H313.467V132.056H303.659V131Z" fill="#545F71"/>
<path d="M343.464 118.376H353.192V123.304H343.464V118.376ZM351.88 119.448H344.76V122.232H351.88V119.448ZM341.784 125.112H354.856V126.184H341.784V125.112ZM347.672 123.016H348.984V125.512H347.672V123.016ZM343.24 127.672H353.24V132.248H351.912V128.76H343.24V127.672ZM359.815 125.624H361.143V129.752H359.815V125.624ZM364.279 125.624H365.591V129.752H364.279V125.624ZM356.199 129.4H369.303V130.504H356.199V129.4ZM357.335 119.112H368.071V120.2H357.335V119.112ZM357.367 124.904H368.055V125.976H357.367V124.904ZM359.591 119.992H360.919V125.128H359.591V119.992ZM364.519 119.992H365.831V125.128H364.519V119.992ZM379.273 119.364V131H377.864V120.841H377.796L374.955 122.727V121.295L377.864 119.364H379.273Z" fill="#545F71"/>
<path d="M409.464 118.376H419.192V123.304H409.464V118.376ZM417.88 119.448H410.76V122.232H417.88V119.448ZM407.784 125.112H420.856V126.184H407.784V125.112ZM413.672 123.016H414.984V125.512H413.672V123.016ZM409.24 127.672H419.24V132.248H417.912V128.76H409.24V127.672ZM425.815 125.624H427.143V129.752H425.815V125.624ZM430.279 125.624H431.591V129.752H430.279V125.624ZM422.199 129.4H435.303V130.504H422.199V129.4ZM423.335 119.112H434.071V120.2H423.335V119.112ZM423.367 124.904H434.055V125.976H423.367V124.904ZM425.591 119.992H426.919V125.128H425.591V119.992ZM430.519 119.992H431.831V125.128H430.519V119.992ZM441.182 131V129.977L445.023 125.773C445.474 125.28 445.845 124.852 446.137 124.489C446.428 124.121 446.644 123.777 446.784 123.455C446.928 123.129 447 122.788 447 122.432C447 122.023 446.902 121.669 446.705 121.369C446.512 121.07 446.246 120.839 445.909 120.676C445.572 120.513 445.193 120.432 444.773 120.432C444.326 120.432 443.936 120.525 443.603 120.71C443.273 120.892 443.017 121.148 442.835 121.477C442.657 121.807 442.568 122.193 442.568 122.636H441.228C441.228 121.955 441.385 121.356 441.699 120.841C442.013 120.326 442.442 119.924 442.983 119.636C443.529 119.348 444.14 119.205 444.818 119.205C445.5 119.205 446.104 119.348 446.631 119.636C447.157 119.924 447.57 120.312 447.87 120.801C448.169 121.29 448.318 121.833 448.318 122.432C448.318 122.86 448.241 123.278 448.085 123.688C447.934 124.093 447.669 124.545 447.29 125.045C446.915 125.542 446.394 126.148 445.728 126.864L443.114 129.659V129.75H448.523V131H441.182Z" fill="#545F71"/>
<line x1="0.00226755" y1="156.5" x2="441.002" y2="158.5" stroke="black"/>
<line x1="0.00226755" y1="156.5" x2="441.002" y2="158.5" stroke="black"/>
<path d="M53.464 121.768H57.112V122.856H53.464V121.768ZM56.36 117.8H57.688V128.392H56.36V117.8ZM48.456 130.84H58.088V131.928H48.456V130.84ZM48.456 127.464H49.784V131.4H48.456V127.464ZM49.48 119.592H50.568V120.76C50.568 123.384 48.936 125.656 46.52 126.552L45.832 125.496C47.992 124.728 49.48 122.808 49.48 120.76V119.592ZM49.736 119.592H50.808V120.744C50.808 122.616 52.216 124.44 54.312 125.176L53.64 126.216C51.288 125.368 49.736 123.192 49.736 120.744V119.592ZM46.248 118.968H53.976V120.04H46.248V118.968ZM66.0868 123.496H68.8228V124.584H66.0868V123.496ZM63.1428 121.48H64.1668V122.232C64.1668 125.112 62.9668 128.024 60.8548 129.288L60.0708 128.28C62.0228 127.144 63.1428 124.6 63.1428 122.232V121.48ZM63.3828 121.48H64.4068V122.232C64.4068 124.536 65.5588 126.92 67.5108 127.976L66.7588 128.968C64.6308 127.784 63.3828 125.048 63.3828 122.232V121.48ZM60.4708 120.44H67.0788V121.544H60.4708V120.44ZM63.1428 118.296H64.4228V121.288H63.1428V118.296ZM71.1908 117.784H72.4708V132.248H71.1908V117.784ZM68.2948 118.12H69.5428V131.512H68.2948V118.12Z" fill="#545F71"/>
<path d="M110.176 118.608H112.304V126.864H110.176V118.608ZM111.712 121.824H114.272V123.568H111.712V121.824ZM105.92 119.456H108.192C108.192 123.392 105.728 126.064 101.312 127.216L100.48 125.536C104.112 124.624 105.92 122.736 105.92 120.512V119.456ZM101.184 119.456H107.2V121.136H101.184V119.456ZM102.688 127.456H112.304V133.264H102.688V127.456ZM110.208 129.136H104.784V131.584H110.208V129.136ZM118.367 119.744H120.095V121.904C120.095 125.568 118.815 129.008 116.015 130.384L114.735 128.672C117.231 127.504 118.367 124.656 118.367 121.904V119.744ZM118.799 119.744H120.495V121.904C120.495 124.56 121.551 127.264 123.919 128.416L122.639 130.112C119.967 128.752 118.799 125.456 118.799 121.904V119.744ZM124.511 118.608H126.655V133.424H124.511V118.608ZM126.175 124.304H128.799V126.08H126.175V124.304ZM134.206 119.584C136.542 119.584 138.286 121.104 138.286 123.232C138.286 125.376 136.542 126.896 134.206 126.896C131.886 126.896 130.11 125.376 130.11 123.232C130.11 121.104 131.886 119.584 134.206 119.584ZM134.206 121.408C133.07 121.408 132.206 122.08 132.206 123.232C132.206 124.4 133.07 125.072 134.206 125.072C135.342 125.072 136.206 124.4 136.206 123.232C136.206 122.08 135.342 121.408 134.206 121.408ZM139.678 118.592H141.806V133.456H139.678V118.592ZM129.758 130.448L129.502 128.736C132.11 128.736 135.742 128.704 138.862 128.24L139.022 129.776C135.806 130.416 132.318 130.448 129.758 130.448ZM156.755 118.608H158.883V126H156.755V118.608ZM158.019 121.44H160.835V123.184H158.019V121.44ZM147.651 119.296H154.707V125.456H147.651V119.296ZM152.611 120.96H149.747V123.792H152.611V120.96ZM149.091 126.592H158.883V130.656H151.235V132.416H149.123V129.12H156.787V128.224H149.091V126.592ZM149.123 131.6H159.315V133.264H149.123V131.6Z" fill="#545F71"/>
<path d="M193.656 125.96H194.984V129.56H193.656V125.96ZM194.328 118.728C197.384 118.728 199.576 120.216 199.576 122.52C199.576 124.824 197.384 126.312 194.328 126.312C191.272 126.312 189.064 124.824 189.064 122.52C189.064 120.216 191.272 118.728 194.328 118.728ZM194.328 119.784C192.024 119.784 190.344 120.872 190.344 122.52C190.344 124.168 192.024 125.256 194.328 125.256C196.616 125.256 198.296 124.168 198.296 122.52C198.296 120.872 196.616 119.784 194.328 119.784ZM187.8 129.304H200.904V130.408H187.8V129.304ZM203.959 121.224H213.767V122.312H203.959V121.224ZM202.183 123.704H215.303V124.792H202.183V123.704ZM203.959 117.992H205.255V121.72H203.959V117.992ZM203.815 126.088H213.639V129.48H205.159V131.352H203.847V128.488H212.311V127.112H203.815V126.088ZM203.847 131.016H214.119V132.056H203.847V131.016ZM230.554 117.768H231.898V132.248H230.554V117.768ZM231.53 123.64H234.202V124.744H231.53V123.64ZM226.858 119.336H228.154C228.154 123.448 226.266 127.16 221.594 129.512L220.858 128.488C224.858 126.456 226.858 123.368 226.858 119.544V119.336ZM221.53 119.336H227.546V120.424H221.53V119.336ZM238.728 119.336H239.816V120.504C239.816 123.16 238.216 125.384 235.784 126.264L235.112 125.208C237.288 124.44 238.728 122.568 238.728 120.504V119.336ZM238.968 119.336H240.056V120.488C240.056 122.376 241.432 124.072 243.56 124.776L242.92 125.816C240.504 125.016 238.968 122.952 238.968 120.488V119.336ZM235.512 118.856H243.24V119.944H235.512V118.856ZM245.064 117.784H246.392V126.504H245.064V117.784ZM246.024 121.448H248.536V122.568H246.024V121.448ZM241.784 126.888C244.728 126.888 246.536 127.864 246.536 129.544C246.536 131.24 244.728 132.216 241.784 132.216C238.84 132.216 237.032 131.24 237.032 129.544C237.032 127.864 238.84 126.888 241.784 126.888ZM241.784 127.96C239.64 127.96 238.328 128.536 238.328 129.544C238.328 130.568 239.64 131.176 241.784 131.176C243.928 131.176 245.24 130.568 245.24 129.544C245.24 128.536 243.928 127.96 241.784 127.96ZM259.611 122.072H260.923V124.28H259.611V122.072ZM259.419 118.664H260.587V119.112C260.587 121.288 257.899 122.68 254.859 122.968L254.427 121.96C257.035 121.752 259.419 120.632 259.419 119.112V118.664ZM259.995 118.664H261.147V119.112C261.147 120.616 263.531 121.752 266.139 121.96L265.707 122.968C262.683 122.68 259.995 121.288 259.995 119.112V118.664ZM254.939 118.232H265.643V119.272H254.939V118.232ZM254.955 126.76H265.611V127.816H254.955V126.76ZM253.739 123.784H266.859V124.856H253.739V123.784ZM260.283 128.52C263.067 128.52 264.619 129.176 264.619 130.424C264.619 131.688 263.067 132.328 260.283 132.328C257.499 132.328 255.931 131.688 255.931 130.424C255.931 129.176 257.499 128.52 260.283 128.52ZM260.283 129.432C258.363 129.432 257.291 129.768 257.291 130.424C257.291 131.08 258.363 131.416 260.283 131.416C262.187 131.416 263.275 131.08 263.275 130.424C263.275 129.768 262.187 129.432 260.283 129.432ZM259.627 125.432H260.939V127.432H259.627V125.432ZM272.186 118.632C274.362 118.632 275.962 120.024 275.962 122.04C275.962 124.056 274.362 125.448 272.186 125.448C270.01 125.448 268.41 124.056 268.41 122.04C268.41 120.024 270.01 118.632 272.186 118.632ZM272.186 119.752C270.746 119.752 269.706 120.68 269.706 122.04C269.706 123.4 270.746 124.328 272.186 124.328C273.626 124.328 274.666 123.4 274.666 122.04C274.666 120.68 273.626 119.752 272.186 119.752ZM278.042 117.784H279.37V126.024H278.042V117.784ZM279.002 121.24H281.514V122.344H279.002V121.24ZM271.61 126.664H272.634V127.448C272.634 129.352 271.466 131.272 269.386 132.072L268.714 131.08C270.538 130.408 271.61 128.84 271.61 127.448V126.664ZM271.898 126.664H272.89V127.448C272.89 128.92 273.738 130.488 275.498 131.192L274.922 132.2C272.826 131.384 271.898 129.384 271.898 127.448V126.664ZM276.954 126.664H277.946V127.448C277.946 129.16 277.002 131.32 274.922 132.2L274.346 131.192C276.09 130.408 276.954 128.712 276.954 127.448V126.664ZM277.21 126.664H278.25V127.448C278.25 128.952 279.306 130.456 281.13 131.08L280.474 132.072C278.362 131.304 277.21 129.464 277.21 127.448V126.664ZM283.369 125.144H284.457C287.129 125.144 288.825 125.048 290.793 124.664L290.921 125.752C288.905 126.136 287.177 126.232 284.457 126.232H283.369V125.144ZM283.369 118.968H289.993V120.056H284.681V125.48H283.369V118.968ZM293.113 117.784H294.441V128.344H293.113V117.784ZM289.065 121.784H293.417V122.856H289.065V121.784ZM285.193 130.936H294.825V132.024H285.193V130.936ZM285.193 127.56H286.521V131.56H285.193V127.56ZM305.179 118.312C307.339 118.312 308.923 119.624 308.923 121.528C308.923 123.416 307.339 124.728 305.179 124.728C303.035 124.728 301.451 123.416 301.451 121.528C301.451 119.624 303.035 118.312 305.179 118.312ZM305.179 119.4C303.787 119.4 302.731 120.28 302.731 121.528C302.731 122.776 303.787 123.64 305.179 123.64C306.587 123.64 307.627 122.776 307.627 121.528C307.627 120.28 306.587 119.4 305.179 119.4ZM311.643 117.784H312.987V125.192H311.643V117.784ZM303.627 125.896H312.987V129.416H304.955V131.592H303.659V128.424H311.675V126.968H303.627V125.896ZM303.659 131H313.467V132.056H303.659V131Z" fill="#545F71"/>
<path d="M343.464 118.376H353.192V123.304H343.464V118.376ZM351.88 119.448H344.76V122.232H351.88V119.448ZM341.784 125.112H354.856V126.184H341.784V125.112ZM347.672 123.016H348.984V125.512H347.672V123.016ZM343.24 127.672H353.24V132.248H351.912V128.76H343.24V127.672ZM359.815 125.624H361.143V129.752H359.815V125.624ZM364.279 125.624H365.591V129.752H364.279V125.624ZM356.199 129.4H369.303V130.504H356.199V129.4ZM357.335 119.112H368.071V120.2H357.335V119.112ZM357.367 124.904H368.055V125.976H357.367V124.904ZM359.591 119.992H360.919V125.128H359.591V119.992ZM364.519 119.992H365.831V125.128H364.519V119.992ZM379.273 119.364V131H377.864V120.841H377.796L374.955 122.727V121.295L377.864 119.364H379.273Z" fill="#545F71"/>
<path d="M409.464 118.376H419.192V123.304H409.464V118.376ZM417.88 119.448H410.76V122.232H417.88V119.448ZM407.784 125.112H420.856V126.184H407.784V125.112ZM413.672 123.016H414.984V125.512H413.672V123.016ZM409.24 127.672H419.24V132.248H417.912V128.76H409.24V127.672ZM425.815 125.624H427.143V129.752H425.815V125.624ZM430.279 125.624H431.591V129.752H430.279V125.624ZM422.199 129.4H435.303V130.504H422.199V129.4ZM423.335 119.112H434.071V120.2H423.335V119.112ZM423.367 124.904H434.055V125.976H423.367V124.904ZM425.591 119.992H426.919V125.128H425.591V119.992ZM430.519 119.992H431.831V125.128H430.519V119.992ZM441.182 131V129.977L445.023 125.773C445.474 125.28 445.845 124.852 446.137 124.489C446.428 124.121 446.644 123.777 446.784 123.455C446.928 123.129 447 122.788 447 122.432C447 122.023 446.902 121.669 446.705 121.369C446.512 121.07 446.246 120.839 445.909 120.676C445.572 120.513 445.193 120.432 444.773 120.432C444.326 120.432 443.936 120.525 443.603 120.71C443.273 120.892 443.017 121.148 442.835 121.477C442.657 121.807 442.568 122.193 442.568 122.636H441.228C441.228 121.955 441.385 121.356 441.699 120.841C442.013 120.326 442.442 119.924 442.983 119.636C443.529 119.348 444.14 119.205 444.818 119.205C445.5 119.205 446.104 119.348 446.631 119.636C447.157 119.924 447.57 120.312 447.87 120.801C448.169 121.29 448.318 121.833 448.318 122.432C448.318 122.86 448.241 123.278 448.085 123.688C447.934 124.093 447.669 124.545 447.29 125.045C446.915 125.542 446.394 126.148 445.728 126.864L443.114 129.659V129.75H448.523V131H441.182Z" fill="#545F71"/>
<circle cx="61" cy="262" r="19.25" stroke="#222222" stroke-linecap="round"/>
<circle cx="54.7501" cy="255.75" r="2.08333" fill="#222222" stroke="#222222" stroke-linecap="round"/>
<circle cx="67.2501" cy="255.75" r="2.08333" fill="#222222" stroke="#222222" stroke-linecap="round"/>
<path d="M67.25 269.291C67.25 272.168 64.4518 274.5 61 274.5C57.5482 274.5 54.75 272.168 54.75 269.291C54.75 266.415 57.5482 264.083 61 264.083C64.4518 264.083 67.25 266.415 67.25 269.291Z" fill="#222222"/>
<path d="M40.9824 293.091V304H39.0062V295.014H38.9423L36.3908 296.644V294.833L39.1021 293.091H40.9824ZM43.4523 304V302.572L47.2396 298.86C47.6018 298.494 47.9036 298.169 48.1451 297.885C48.3866 297.601 48.5677 297.326 48.6884 297.059C48.8092 296.793 48.8695 296.509 48.8695 296.207C48.8695 295.863 48.7914 295.568 48.6352 295.323C48.4789 295.074 48.2641 294.882 47.9906 294.748C47.7172 294.613 47.4065 294.545 47.0585 294.545C46.6998 294.545 46.3855 294.62 46.1156 294.769C45.8457 294.914 45.6362 295.122 45.4871 295.392C45.3415 295.662 45.2687 295.983 45.2687 296.356H43.3884C43.3884 295.664 43.5464 295.062 43.8624 294.55C44.1785 294.039 44.6135 293.643 45.1675 293.363C45.725 293.082 46.3642 292.942 47.0851 292.942C47.8166 292.942 48.4594 293.078 49.0134 293.352C49.5673 293.625 49.997 294 50.3024 294.476C50.6114 294.952 50.7658 295.495 50.7658 296.106C50.7658 296.514 50.6877 296.915 50.5315 297.31C50.3752 297.704 50.1 298.141 49.7058 298.62C49.3152 299.099 48.7665 299.68 48.0599 300.362L46.1795 302.274V302.349H50.931V304H43.4523ZM56.0142 291.85C58.1292 291.85 59.7192 293.17 59.7192 295.03C59.7192 296.875 58.1292 298.195 56.0142 298.195C53.8992 298.195 52.3092 296.875 52.3092 295.03C52.3092 293.17 53.8992 291.85 56.0142 291.85ZM56.0142 293.47C54.9942 293.47 54.2292 294.04 54.2292 295.03C54.2292 296.02 54.9942 296.59 56.0142 296.59C57.0342 296.59 57.7842 296.02 57.7842 295.03C57.7842 294.04 57.0342 293.47 56.0142 293.47ZM61.6392 291.445H63.6492V298.39H61.6392V291.445ZM54.3792 298.96H63.6492V302.77H56.3592V304.45H54.4092V301.33H61.6692V300.505H54.3792V298.96ZM54.4092 303.64H63.9942V305.185H54.4092V303.64ZM70.07 306.317V292.782H73.9212V294.263H71.9237V304.842H73.9212V306.317H70.07ZM76.1071 298.315H85.8721V299.89H76.1071V298.315ZM74.6371 302.2H87.2071V303.805H74.6371V302.2ZM79.9171 299.11H81.9121V302.905H79.9171V299.11ZM76.1071 292.39H85.7521V293.98H78.1321V298.915H76.1071V292.39ZM77.5171 295.33H85.4371V296.89H77.5171V295.33ZM91.7716 292.782V306.317H87.9204V304.842H89.9179V294.263H87.9204V292.782H91.7716Z" fill="black"/>
<rect x="113" y="279" width="293" height="308" rx="20" fill="#D9D9D9"/>
<path d="M122.182 249.445H124.177V257.185H122.182V249.445ZM123.622 252.46H126.022V254.095H123.622V252.46ZM118.192 250.24H120.322C120.322 253.93 118.012 256.435 113.872 257.515L113.092 255.94C116.497 255.085 118.192 253.315 118.192 251.23V250.24ZM113.752 250.24H119.392V251.815H113.752V250.24ZM115.162 257.74H124.177V263.185H115.162V257.74ZM122.212 259.315H117.127V261.61H122.212V259.315ZM129.861 250.51H131.481V252.535C131.481 255.97 130.281 259.195 127.656 260.485L126.456 258.88C128.796 257.785 129.861 255.115 129.861 252.535V250.51ZM130.266 250.51H131.856V252.535C131.856 255.025 132.846 257.56 135.066 258.64L133.866 260.23C131.361 258.955 130.266 255.865 130.266 252.535V250.51ZM135.621 249.445H137.631V263.335H135.621V249.445ZM137.181 254.785H139.641V256.45H137.181V254.785ZM144.71 250.36C146.9 250.36 148.535 251.785 148.535 253.78C148.535 255.79 146.9 257.215 144.71 257.215C142.535 257.215 140.87 255.79 140.87 253.78C140.87 251.785 142.535 250.36 144.71 250.36ZM144.71 252.07C143.645 252.07 142.835 252.7 142.835 253.78C142.835 254.875 143.645 255.505 144.71 255.505C145.775 255.505 146.585 254.875 146.585 253.78C146.585 252.7 145.775 252.07 144.71 252.07ZM149.84 249.43H151.835V263.365H149.84V249.43ZM140.54 260.545L140.3 258.94C142.745 258.94 146.15 258.91 149.075 258.475L149.225 259.915C146.21 260.515 142.94 260.545 140.54 260.545ZM166.099 249.445H168.094V256.375H166.099V249.445ZM167.284 252.1H169.924V253.735H167.284V252.1ZM157.564 250.09H164.179V255.865H157.564V250.09ZM162.214 251.65H159.529V254.305H162.214V251.65ZM158.914 256.93H168.094V260.74H160.924V262.39H158.944V259.3H166.129V258.46H158.914V256.93ZM158.944 261.625H168.499V263.185H158.944V261.625Z" fill="black"/>
<path d="M40.9824 643.091V654H39.0062V645.014H38.9423L36.3908 646.644V644.833L39.1021 643.091H40.9824ZM43.4523 654V652.572L47.2396 648.86C47.6018 648.494 47.9036 648.169 48.1451 647.885C48.3866 647.601 48.5677 647.326 48.6884 647.059C48.8092 646.793 48.8695 646.509 48.8695 646.207C48.8695 645.863 48.7914 645.568 48.6352 645.323C48.4789 645.074 48.2641 644.882 47.9906 644.748C47.7172 644.613 47.4065 644.545 47.0585 644.545C46.6998 644.545 46.3855 644.62 46.1156 644.769C45.8457 644.914 45.6362 645.122 45.4871 645.392C45.3415 645.662 45.2687 645.983 45.2687 646.356H43.3884C43.3884 645.664 43.5464 645.062 43.8624 644.55C44.1785 644.039 44.6135 643.643 45.1675 643.363C45.725 643.082 46.3642 642.942 47.0851 642.942C47.8166 642.942 48.4594 643.078 49.0134 643.352C49.5673 643.625 49.997 644 50.3024 644.476C50.6114 644.952 50.7658 645.495 50.7658 646.106C50.7658 646.514 50.6877 646.915 50.5315 647.31C50.3752 647.704 50.1 648.141 49.7058 648.62C49.3152 649.099 48.7665 649.68 48.0599 650.362L46.1795 652.274V652.349H50.931V654H43.4523ZM56.0142 641.85C58.1292 641.85 59.7192 643.17 59.7192 645.03C59.7192 646.875 58.1292 648.195 56.0142 648.195C53.8992 648.195 52.3092 646.875 52.3092 645.03C52.3092 643.17 53.8992 641.85 56.0142 641.85ZM56.0142 643.47C54.9942 643.47 54.2292 644.04 54.2292 645.03C54.2292 646.02 54.9942 646.59 56.0142 646.59C57.0342 646.59 57.7842 646.02 57.7842 645.03C57.7842 644.04 57.0342 643.47 56.0142 643.47ZM61.6392 641.445H63.6492V648.39H61.6392V641.445ZM54.3792 648.96H63.6492V652.77H56.3592V654.45H54.4092V651.33H61.6692V650.505H54.3792V648.96ZM54.4092 653.64H63.9942V655.185H54.4092V653.64ZM70.07 656.317V642.782H73.9212V644.263H71.9237V654.842H73.9212V656.317H70.07ZM76.1071 648.315H85.8721V649.89H76.1071V648.315ZM74.6371 652.2H87.2071V653.805H74.6371V652.2ZM79.9171 649.11H81.9121V652.905H79.9171V649.11ZM76.1071 642.39H85.7521V643.98H78.1321V648.915H76.1071V642.39ZM77.5171 645.33H85.4371V646.89H77.5171V645.33ZM91.7716 642.782V656.317H87.9204V654.842H89.9179V644.263H87.9204V642.782H91.7716Z" fill="black"/>
<rect x="113" y="629" width="293" height="308" rx="20" fill="#D9D9D9"/>
<path d="M122.182 599.445H124.177V607.185H122.182V599.445ZM123.622 602.46H126.022V604.095H123.622V602.46ZM118.192 600.24H120.322C120.322 603.93 118.012 606.435 113.872 607.515L113.092 605.94C116.497 605.085 118.192 603.315 118.192 601.23V600.24ZM113.752 600.24H119.392V601.815H113.752V600.24ZM115.162 607.74H124.177V613.185H115.162V607.74ZM122.212 609.315H117.127V611.61H122.212V609.315ZM129.861 600.51H131.481V602.535C131.481 605.97 130.281 609.195 127.656 610.485L126.456 608.88C128.796 607.785 129.861 605.115 129.861 602.535V600.51ZM130.266 600.51H131.856V602.535C131.856 605.025 132.846 607.56 135.066 608.64L133.866 610.23C131.361 608.955 130.266 605.865 130.266 602.535V600.51ZM135.621 599.445H137.631V613.335H135.621V599.445ZM137.181 604.785H139.641V606.45H137.181V604.785ZM144.71 600.36C146.9 600.36 148.535 601.785 148.535 603.78C148.535 605.79 146.9 607.215 144.71 607.215C142.535 607.215 140.87 605.79 140.87 603.78C140.87 601.785 142.535 600.36 144.71 600.36ZM144.71 602.07C143.645 602.07 142.835 602.7 142.835 603.78C142.835 604.875 143.645 605.505 144.71 605.505C145.775 605.505 146.585 604.875 146.585 603.78C146.585 602.7 145.775 602.07 144.71 602.07ZM149.84 599.43H151.835V613.365H149.84V599.43ZM140.54 610.545L140.3 608.94C142.745 608.94 146.15 608.91 149.075 608.475L149.225 609.915C146.21 610.515 142.94 610.545 140.54 610.545ZM166.099 599.445H168.094V606.375H166.099V599.445ZM167.284 602.1H169.924V603.735H167.284V602.1ZM157.564 600.09H164.179V605.865H157.564V600.09ZM162.214 601.65H159.529V604.305H162.214V601.65ZM158.914 606.93H168.094V610.74H160.924V612.39H158.944V609.3H166.129V608.46H158.914V606.93ZM158.944 611.625H168.499V613.185H158.944V611.625Z" fill="black"/>
<path d="M40.9824 643.091V654H39.0062V645.014H38.9423L36.3908 646.644V644.833L39.1021 643.091H40.9824ZM43.4523 654V652.572L47.2396 648.86C47.6018 648.494 47.9036 648.169 48.1451 647.885C48.3866 647.601 48.5677 647.326 48.6884 647.059C48.8092 646.793 48.8695 646.509 48.8695 646.207C48.8695 645.863 48.7914 645.568 48.6352 645.323C48.4789 645.074 48.2641 644.882 47.9906 644.748C47.7172 644.613 47.4065 644.545 47.0585 644.545C46.6998 644.545 46.3855 644.62 46.1156 644.769C45.8457 644.914 45.6362 645.122 45.4871 645.392C45.3415 645.662 45.2687 645.983 45.2687 646.356H43.3884C43.3884 645.664 43.5464 645.062 43.8624 644.55C44.1785 644.039 44.6135 643.643 45.1675 643.363C45.725 643.082 46.3642 642.942 47.0851 642.942C47.8166 642.942 48.4594 643.078 49.0134 643.352C49.5673 643.625 49.997 644 50.3024 644.476C50.6114 644.952 50.7658 645.495 50.7658 646.106C50.7658 646.514 50.6877 646.915 50.5315 647.31C50.3752 647.704 50.1 648.141 49.7058 648.62C49.3152 649.099 48.7665 649.68 48.0599 650.362L46.1795 652.274V652.349H50.931V654H43.4523ZM56.0142 641.85C58.1292 641.85 59.7192 643.17 59.7192 645.03C59.7192 646.875 58.1292 648.195 56.0142 648.195C53.8992 648.195 52.3092 646.875 52.3092 645.03C52.3092 643.17 53.8992 641.85 56.0142 641.85ZM56.0142 643.47C54.9942 643.47 54.2292 644.04 54.2292 645.03C54.2292 646.02 54.9942 646.59 56.0142 646.59C57.0342 646.59 57.7842 646.02 57.7842 645.03C57.7842 644.04 57.0342 643.47 56.0142 643.47ZM61.6392 641.445H63.6492V648.39H61.6392V641.445ZM54.3792 648.96H63.6492V652.77H56.3592V654.45H54.4092V651.33H61.6692V650.505H54.3792V648.96ZM54.4092 653.64H63.9942V655.185H54.4092V653.64ZM70.07 656.317V642.782H73.9212V644.263H71.9237V654.842H73.9212V656.317H70.07ZM76.1071 648.315H85.8721V649.89H76.1071V648.315ZM74.6371 652.2H87.2071V653.805H74.6371V652.2ZM79.9171 649.11H81.9121V652.905H79.9171V649.11ZM76.1071 642.39H85.7521V643.98H78.1321V648.915H76.1071V642.39ZM77.5171 645.33H85.4371V646.89H77.5171V645.33ZM91.7716 642.782V656.317H87.9204V654.842H89.9179V644.263H87.9204V642.782H91.7716Z" fill="black"/>
<rect x="113" y="629" width="293" height="308" rx="20" fill="#D9D9D9"/>
<path d="M122.182 599.445H124.177V607.185H122.182V599.445ZM123.622 602.46H126.022V604.095H123.622V602.46ZM118.192 600.24H120.322C120.322 603.93 118.012 606.435 113.872 607.515L113.092 605.94C116.497 605.085 118.192 603.315 118.192 601.23V600.24ZM113.752 600.24H119.392V601.815H113.752V600.24ZM115.162 607.74H124.177V613.185H115.162V607.74ZM122.212 609.315H117.127V611.61H122.212V609.315ZM129.861 600.51H131.481V602.535C131.481 605.97 130.281 609.195 127.656 610.485L126.456 608.88C128.796 607.785 129.861 605.115 129.861 602.535V600.51ZM130.266 600.51H131.856V602.535C131.856 605.025 132.846 607.56 135.066 608.64L133.866 610.23C131.361 608.955 130.266 605.865 130.266 602.535V600.51ZM135.621 599.445H137.631V613.335H135.621V599.445ZM137.181 604.785H139.641V606.45H137.181V604.785ZM144.71 600.36C146.9 600.36 148.535 601.785 148.535 603.78C148.535 605.79 146.9 607.215 144.71 607.215C142.535 607.215 140.87 605.79 140.87 603.78C140.87 601.785 142.535 600.36 144.71 600.36ZM144.71 602.07C143.645 602.07 142.835 602.7 142.835 603.78C142.835 604.875 143.645 605.505 144.71 605.505C145.775 605.505 146.585 604.875 146.585 603.78C146.585 602.7 145.775 602.07 144.71 602.07ZM149.84 599.43H151.835V613.365H149.84V599.43ZM140.54 610.545L140.3 608.94C142.745 608.94 146.15 608.91 149.075 608.475L149.225 609.915C146.21 610.515 142.94 610.545 140.54 610.545ZM166.099 599.445H168.094V606.375H166.099V599.445ZM167.284 602.1H169.924V603.735H167.284V602.1ZM157.564 600.09H164.179V605.865H157.564V600.09ZM162.214 601.65H159.529V604.305H162.214V601.65ZM158.914 606.93H168.094V610.74H160.924V612.39H158.944V609.3H166.129V608.46H158.914V606.93ZM158.944 611.625H168.499V613.185H158.944V611.625Z" fill="black"/>
<circle cx="61" cy="262" r="19.25" stroke="#222222" stroke-linecap="round"/>
<circle cx="54.7501" cy="255.75" r="2.08333" fill="#222222" stroke="#222222" stroke-linecap="round"/>
<circle cx="67.2501" cy="255.75" r="2.08333" fill="#222222" stroke="#222222" stroke-linecap="round"/>
<path d="M67.25 269.291C67.25 272.168 64.4518 274.5 61 274.5C57.5482 274.5 54.75 272.168 54.75 269.291C54.75 266.415 57.5482 264.083 61 264.083C64.4518 264.083 67.25 266.415 67.25 269.291Z" fill="#222222"/>
<path d="M40.9824 293.091V304H39.0062V295.014H38.9423L36.3908 296.644V294.833L39.1021 293.091H40.9824ZM43.4523 304V302.572L47.2396 298.86C47.6018 298.494 47.9036 298.169 48.1451 297.885C48.3866 297.601 48.5677 297.326 48.6884 297.059C48.8092 296.793 48.8695 296.509 48.8695 296.207C48.8695 295.863 48.7914 295.568 48.6352 295.323C48.4789 295.074 48.2641 294.882 47.9906 294.748C47.7172 294.613 47.4065 294.545 47.0585 294.545C46.6998 294.545 46.3855 294.62 46.1156 294.769C45.8457 294.914 45.6362 295.122 45.4871 295.392C45.3415 295.662 45.2687 295.983 45.2687 296.356H43.3884C43.3884 295.664 43.5464 295.062 43.8624 294.55C44.1785 294.039 44.6135 293.643 45.1675 293.363C45.725 293.082 46.3642 292.942 47.0851 292.942C47.8166 292.942 48.4594 293.078 49.0134 293.352C49.5673 293.625 49.997 294 50.3024 294.476C50.6114 294.952 50.7658 295.495 50.7658 296.106C50.7658 296.514 50.6877 296.915 50.5315 297.31C50.3752 297.704 50.1 298.141 49.7058 298.62C49.3152 299.099 48.7665 299.68 48.0599 300.362L46.1795 302.274V302.349H50.931V304H43.4523ZM56.0142 291.85C58.1292 291.85 59.7192 293.17 59.7192 295.03C59.7192 296.875 58.1292 298.195 56.0142 298.195C53.8992 298.195 52.3092 296.875 52.3092 295.03C52.3092 293.17 53.8992 291.85 56.0142 291.85ZM56.0142 293.47C54.9942 293.47 54.2292 294.04 54.2292 295.03C54.2292 296.02 54.9942 296.59 56.0142 296.59C57.0342 296.59 57.7842 296.02 57.7842 295.03C57.7842 294.04 57.0342 293.47 56.0142 293.47ZM61.6392 291.445H63.6492V298.39H61.6392V291.445ZM54.3792 298.96H63.6492V302.77H56.3592V304.45H54.4092V301.33H61.6692V300.505H54.3792V298.96ZM54.4092 303.64H63.9942V305.185H54.4092V303.64ZM70.07 306.317V292.782H73.9212V294.263H71.9237V304.842H73.9212V306.317H70.07ZM76.1071 298.315H85.8721V299.89H76.1071V298.315ZM74.6371 302.2H87.2071V303.805H74.6371V302.2ZM79.9171 299.11H81.9121V302.905H79.9171V299.11ZM76.1071 292.39H85.7521V293.98H78.1321V298.915H76.1071V292.39ZM77.5171 295.33H85.4371V296.89H77.5171V295.33ZM91.7716 292.782V306.317H87.9204V304.842H89.9179V294.263H87.9204V292.782H91.7716Z" fill="black"/>
<rect x="113" y="279" width="293" height="308" rx="20" fill="#D9D9D9"/>
<path d="M122.182 249.445H124.177V257.185H122.182V249.445ZM123.622 252.46H126.022V254.095H123.622V252.46ZM118.192 250.24H120.322C120.322 253.93 118.012 256.435 113.872 257.515L113.092 255.94C116.497 255.085 118.192 253.315 118.192 251.23V250.24ZM113.752 250.24H119.392V251.815H113.752V250.24ZM115.162 257.74H124.177V263.185H115.162V257.74ZM122.212 259.315H117.127V261.61H122.212V259.315ZM129.861 250.51H131.481V252.535C131.481 255.97 130.281 259.195 127.656 260.485L126.456 258.88C128.796 257.785 129.861 255.115 129.861 252.535V250.51ZM130.266 250.51H131.856V252.535C131.856 255.025 132.846 257.56 135.066 258.64L133.866 260.23C131.361 258.955 130.266 255.865 130.266 252.535V250.51ZM135.621 249.445H137.631V263.335H135.621V249.445ZM137.181 254.785H139.641V256.45H137.181V254.785ZM144.71 250.36C146.9 250.36 148.535 251.785 148.535 253.78C148.535 255.79 146.9 257.215 144.71 257.215C142.535 257.215 140.87 255.79 140.87 253.78C140.87 251.785 142.535 250.36 144.71 250.36ZM144.71 252.07C143.645 252.07 142.835 252.7 142.835 253.78C142.835 254.875 143.645 255.505 144.71 255.505C145.775 255.505 146.585 254.875 146.585 253.78C146.585 252.7 145.775 252.07 144.71 252.07ZM149.84 249.43H151.835V263.365H149.84V249.43ZM140.54 260.545L140.3 258.94C142.745 258.94 146.15 258.91 149.075 258.475L149.225 259.915C146.21 260.515 142.94 260.545 140.54 260.545ZM166.099 249.445H168.094V256.375H166.099V249.445ZM167.284 252.1H169.924V253.735H167.284V252.1ZM157.564 250.09H164.179V255.865H157.564V250.09ZM162.214 251.65H159.529V254.305H162.214V251.65ZM158.914 256.93H168.094V260.74H160.924V262.39H158.944V259.3H166.129V258.46H158.914V256.93ZM158.944 261.625H168.499V263.185H158.944V261.625Z" fill="black"/>
<mask id="path-33-inside-1_230_2963" fill="white">
<path d="M104 39C104 34.5817 107.582 31 112 31H346C350.418 31 354 34.5817 354 39V79H104V39Z"/>
</mask>
<path d="M104 39C104 34.5817 107.582 31 112 31H346C350.418 31 354 34.5817 354 39V79H104V39Z" fill="white"/>
<path d="M104 31H354H104ZM354 80H104V78H354V80ZM104 79V31V79ZM354 31V79V31Z" fill="#EEF1F4" mask="url(#path-33-inside-1_230_2963)"/>
<path d="M117.034 61V59.4773L121.074 55.517C121.46 55.1269 121.782 54.7803 122.04 54.4773C122.297 54.1742 122.491 53.8807 122.619 53.5966C122.748 53.3125 122.812 53.0095 122.812 52.6875C122.812 52.3201 122.729 52.0057 122.562 51.7443C122.396 51.4792 122.167 51.2746 121.875 51.1307C121.583 50.9867 121.252 50.9148 120.881 50.9148C120.498 50.9148 120.163 50.9943 119.875 51.1534C119.587 51.3087 119.364 51.5303 119.205 51.8182C119.049 52.1061 118.972 52.4489 118.972 52.8466H116.966C116.966 52.108 117.134 51.4659 117.472 50.9205C117.809 50.375 118.273 49.9527 118.864 49.6534C119.458 49.3542 120.14 49.2045 120.909 49.2045C121.689 49.2045 122.375 49.3504 122.966 49.642C123.557 49.9337 124.015 50.3333 124.341 50.8409C124.67 51.3485 124.835 51.928 124.835 52.5795C124.835 53.0152 124.752 53.4432 124.585 53.8636C124.419 54.2841 124.125 54.75 123.705 55.2614C123.288 55.7727 122.703 56.392 121.949 57.1193L119.943 59.1591V59.2386H125.011V61H117.034ZM130.953 61.2216C130.017 61.2216 129.214 60.9848 128.544 60.5114C127.877 60.0341 127.364 59.3466 127.004 58.4489C126.648 57.5473 126.47 56.4621 126.47 55.1932C126.474 53.9242 126.653 52.8447 127.01 51.9545C127.369 51.0606 127.883 50.3788 128.549 49.9091C129.22 49.4394 130.021 49.2045 130.953 49.2045C131.885 49.2045 132.686 49.4394 133.356 49.9091C134.027 50.3788 134.54 51.0606 134.896 51.9545C135.256 52.8485 135.436 53.928 135.436 55.1932C135.436 56.4659 135.256 57.553 134.896 58.4545C134.54 59.3523 134.027 60.0379 133.356 60.5114C132.689 60.9848 131.888 61.2216 130.953 61.2216ZM130.953 59.4432C131.68 59.4432 132.254 59.0852 132.674 58.3693C133.099 57.6496 133.311 56.5909 133.311 55.1932C133.311 54.2689 133.214 53.4924 133.021 52.8636C132.828 52.2348 132.555 51.7614 132.203 51.4432C131.85 51.1212 131.434 50.9602 130.953 50.9602C130.229 50.9602 129.657 51.3201 129.237 52.0398C128.816 52.7557 128.604 53.8068 128.6 55.1932C128.597 56.1212 128.689 56.9015 128.879 57.5341C129.072 58.1667 129.345 58.6439 129.697 58.9659C130.049 59.2841 130.468 59.4432 130.953 59.4432ZM137.003 61V59.4773L141.043 55.517C141.43 55.1269 141.752 54.7803 142.009 54.4773C142.267 54.1742 142.46 53.8807 142.589 53.5966C142.717 53.3125 142.782 53.0095 142.782 52.6875C142.782 52.3201 142.699 52.0057 142.532 51.7443C142.365 51.4792 142.136 51.2746 141.844 51.1307C141.553 50.9867 141.221 50.9148 140.85 50.9148C140.467 50.9148 140.132 50.9943 139.844 51.1534C139.556 51.3087 139.333 51.5303 139.174 51.8182C139.019 52.1061 138.941 52.4489 138.941 52.8466H136.935C136.935 52.108 137.104 51.4659 137.441 50.9205C137.778 50.375 138.242 49.9527 138.833 49.6534C139.428 49.3542 140.11 49.2045 140.878 49.2045C141.659 49.2045 142.344 49.3504 142.935 49.642C143.526 49.9337 143.985 50.3333 144.31 50.8409C144.64 51.3485 144.805 51.928 144.805 52.5795C144.805 53.0152 144.721 53.4432 144.555 53.8636C144.388 54.2841 144.094 54.75 143.674 55.2614C143.257 55.7727 142.672 56.392 141.918 57.1193L139.913 59.1591V59.2386H144.981V61H137.003ZM146.161 58.8409V57.1648L151.098 49.3636H152.496V51.75H151.644L148.32 57.017V57.108H155.212V58.8409H146.161ZM151.712 61V58.3295L151.735 57.5795V49.3636H153.723V61H151.712ZM160.47 61V49.3636H167.924V51.1307H162.578V54.2898H167.413V56.0568H162.578V61H160.47ZM172.657 61.1705C171.782 61.1705 171.026 60.9886 170.39 60.625C169.757 60.2576 169.27 59.7386 168.929 59.0682C168.589 58.3939 168.418 57.6004 168.418 56.6875C168.418 55.7898 168.589 55.0019 168.929 54.3239C169.274 53.642 169.755 53.1117 170.373 52.733C170.99 52.3504 171.715 52.1591 172.549 52.1591C173.087 52.1591 173.594 52.2462 174.071 52.4205C174.553 52.5909 174.977 52.8561 175.344 53.2159C175.715 53.5758 176.007 54.0341 176.219 54.5909C176.431 55.1439 176.537 55.803 176.537 56.5682V57.1989H169.384V55.8125H174.566C174.562 55.4186 174.477 55.0682 174.31 54.7614C174.143 54.4508 173.91 54.2064 173.611 54.0284C173.316 53.8504 172.971 53.7614 172.577 53.7614C172.157 53.7614 171.787 53.8636 171.469 54.0682C171.151 54.2689 170.903 54.5341 170.725 54.8636C170.551 55.1894 170.462 55.5473 170.458 55.9375V57.1477C170.458 57.6553 170.551 58.0909 170.736 58.4545C170.922 58.8144 171.181 59.0909 171.515 59.2841C171.848 59.4735 172.238 59.5682 172.685 59.5682C172.984 59.5682 173.255 59.5265 173.498 59.4432C173.74 59.3561 173.95 59.2292 174.128 59.0625C174.306 58.8958 174.441 58.6894 174.532 58.4432L176.452 58.6591C176.331 59.1667 176.1 59.6098 175.759 59.9886C175.422 60.3636 174.99 60.6553 174.464 60.8636C173.937 61.0682 173.335 61.1705 172.657 61.1705ZM178.048 61V49.3636H180.105V53.7159H180.19C180.296 53.5038 180.446 53.2784 180.639 53.0398C180.832 52.7973 181.094 52.5909 181.423 52.4205C181.753 52.2462 182.173 52.1591 182.685 52.1591C183.359 52.1591 183.967 52.3314 184.509 52.6761C185.054 53.017 185.486 53.5227 185.804 54.1932C186.126 54.8598 186.287 55.678 186.287 56.6477C186.287 57.6061 186.13 58.4205 185.815 59.0909C185.501 59.7614 185.073 60.2727 184.531 60.625C183.99 60.9773 183.376 61.1534 182.69 61.1534C182.19 61.1534 181.776 61.0701 181.446 60.9034C181.117 60.7367 180.851 60.536 180.651 60.3011C180.454 60.0625 180.3 59.8371 180.19 59.625H180.071V61H178.048ZM180.065 56.6364C180.065 57.2008 180.145 57.6951 180.304 58.1193C180.467 58.5436 180.7 58.875 181.003 59.1136C181.31 59.3485 181.681 59.4659 182.117 59.4659C182.571 59.4659 182.952 59.3447 183.259 59.1023C183.565 58.8561 183.796 58.5208 183.952 58.0966C184.111 57.6686 184.19 57.1818 184.19 56.6364C184.19 56.0947 184.113 55.6136 183.957 55.1932C183.802 54.7727 183.571 54.4432 183.264 54.2045C182.957 53.9659 182.575 53.8466 182.117 53.8466C181.677 53.8466 181.304 53.9621 180.997 54.1932C180.69 54.4242 180.457 54.7481 180.298 55.1648C180.143 55.5814 180.065 56.072 180.065 56.6364ZM187.716 61V52.2727H189.71V53.7273H189.801C189.96 53.2235 190.233 52.8352 190.619 52.5625C191.009 52.286 191.454 52.1477 191.954 52.1477C192.068 52.1477 192.195 52.1534 192.335 52.1648C192.479 52.1723 192.598 52.1856 192.693 52.2045V54.0966C192.606 54.0663 192.467 54.0398 192.278 54.017C192.092 53.9905 191.913 53.9773 191.738 53.9773C191.363 53.9773 191.026 54.0587 190.727 54.2216C190.431 54.3807 190.199 54.6023 190.028 54.8864C189.858 55.1705 189.772 55.4981 189.772 55.8693V61H187.716ZM199.302 57.3295V52.2727H201.359V61H199.364V59.4489H199.273C199.076 59.9375 198.753 60.3371 198.302 60.6477C197.855 60.9583 197.304 61.1136 196.648 61.1136C196.076 61.1136 195.571 60.9867 195.131 60.733C194.696 60.4754 194.355 60.1023 194.109 59.6136C193.862 59.1212 193.739 58.5265 193.739 57.8295V52.2727H195.796V57.5114C195.796 58.0644 195.948 58.5038 196.251 58.8295C196.554 59.1553 196.951 59.3182 197.444 59.3182C197.747 59.3182 198.04 59.2443 198.325 59.0966C198.609 58.9489 198.842 58.7292 199.023 58.4375C199.209 58.142 199.302 57.7727 199.302 57.3295ZM205.665 61.1761C205.112 61.1761 204.614 61.0777 204.171 60.8807C203.731 60.6799 203.383 60.3845 203.125 59.9943C202.871 59.6042 202.745 59.1231 202.745 58.5511C202.745 58.0587 202.836 57.6515 203.017 57.3295C203.199 57.0076 203.447 56.75 203.762 56.5568C204.076 56.3636 204.43 56.2178 204.824 56.1193C205.222 56.017 205.633 55.9432 206.057 55.8977C206.568 55.8447 206.983 55.7973 207.301 55.7557C207.62 55.7102 207.851 55.642 207.995 55.5511C208.142 55.4564 208.216 55.3106 208.216 55.1136V55.0795C208.216 54.6515 208.089 54.3201 207.836 54.0852C207.582 53.8504 207.216 53.733 206.739 53.733C206.235 53.733 205.836 53.8428 205.54 54.0625C205.248 54.2822 205.051 54.5417 204.949 54.8409L203.029 54.5682C203.18 54.0379 203.43 53.5947 203.779 53.2386C204.127 52.8788 204.553 52.6098 205.057 52.4318C205.561 52.25 206.118 52.1591 206.728 52.1591C207.148 52.1591 207.567 52.2083 207.983 52.3068C208.4 52.4053 208.781 52.5682 209.125 52.7955C209.47 53.0189 209.746 53.3239 209.955 53.7102C210.167 54.0966 210.273 54.5795 210.273 55.1591V61H208.296V59.8011H208.228C208.103 60.0436 207.926 60.2708 207.699 60.483C207.476 60.6913 207.193 60.8598 206.853 60.9886C206.515 61.1136 206.12 61.1761 205.665 61.1761ZM206.199 59.6648C206.612 59.6648 206.97 59.5833 207.273 59.4205C207.576 59.2538 207.809 59.0341 207.972 58.7614C208.139 58.4886 208.222 58.1913 208.222 57.8693V56.8409C208.157 56.8939 208.048 56.9432 207.892 56.9886C207.741 57.0341 207.57 57.0739 207.381 57.108C207.192 57.142 207.004 57.1723 206.818 57.1989C206.633 57.2254 206.472 57.2481 206.336 57.267C206.029 57.3087 205.754 57.3769 205.512 57.4716C205.269 57.5663 205.078 57.6989 204.938 57.8693C204.798 58.036 204.728 58.2519 204.728 58.517C204.728 58.8958 204.866 59.1818 205.142 59.375C205.419 59.5682 205.771 59.6648 206.199 59.6648ZM212.021 61V52.2727H214.016V53.7273H214.106C214.266 53.2235 214.538 52.8352 214.925 52.5625C215.315 52.286 215.76 52.1477 216.26 52.1477C216.373 52.1477 216.5 52.1534 216.641 52.1648C216.784 52.1723 216.904 52.1856 216.998 52.2045V54.0966C216.911 54.0663 216.773 54.0398 216.584 54.017C216.398 53.9905 216.218 53.9773 216.044 53.9773C215.669 53.9773 215.332 54.0587 215.033 54.2216C214.737 54.3807 214.504 54.6023 214.334 54.8864C214.163 55.1705 214.078 55.4981 214.078 55.8693V61H212.021ZM219.589 64.2727C219.309 64.2727 219.049 64.25 218.811 64.2045C218.576 64.1629 218.388 64.1136 218.248 64.0568L218.725 62.4545C219.025 62.5417 219.292 62.5833 219.526 62.5795C219.761 62.5758 219.968 62.5019 220.146 62.358C220.328 62.2178 220.481 61.983 220.606 61.6534L220.782 61.1818L217.617 52.2727H219.799L221.811 58.8636H221.901L223.919 52.2727H226.106L222.612 62.0568C222.449 62.5189 222.233 62.9148 221.964 63.2443C221.695 63.5777 221.365 63.8314 220.975 64.0057C220.589 64.1837 220.127 64.2727 219.589 64.2727Z" fill="#545F71"/>
<path d="M326 52L330 48L334 52M334 58L330 62L326 58" stroke="#545F71" stroke-width="2" stroke-linecap="round" stroke-linejoin="round"/>
</g>
<defs>
<clipPath id="clip0_230_2963">
<rect width="441" height="996" fill="white"/>
</clipPath>
</defs>
</svg>
