<svg width="375" height="876" viewBox="0 0 375 876" fill="none" xmlns="http://www.w3.org/2000/svg">
<rect width="375" height="876" fill="white"/>
<rect x="26" y="181" width="315" height="55" rx="27.5" fill="#D8DADC"/>
<rect x="38" y="188" width="139.787" height="40" rx="20" fill="white"/>
<path d="M87.688 214.595H91.592V215.779H86.232V204.627H87.688V214.595ZM96.9623 215.923C96.1409 215.923 95.3943 215.737 94.7223 215.363C94.0609 214.99 93.5383 214.462 93.1543 213.779C92.7809 213.086 92.5943 212.286 92.5943 211.379C92.5943 210.483 92.7863 209.694 93.1703 209.011C93.5649 208.318 94.0983 207.79 94.7703 207.427C95.4423 207.054 96.1943 206.867 97.0263 206.867C97.8583 206.867 98.6103 207.054 99.2823 207.427C99.9543 207.79 100.482 208.313 100.866 208.995C101.261 209.678 101.458 210.473 101.458 211.379C101.458 212.286 101.256 213.086 100.85 213.779C100.456 214.462 99.9169 214.99 99.2343 215.363C98.5516 215.737 97.7943 215.923 96.9623 215.923ZM96.9623 214.643C97.4849 214.643 97.9756 214.521 98.4343 214.275C98.8929 214.03 99.2609 213.662 99.5383 213.171C99.8263 212.681 99.9703 212.083 99.9703 211.379C99.9703 210.675 99.8316 210.078 99.5543 209.587C99.2769 209.097 98.9143 208.734 98.4663 208.499C98.0183 208.254 97.5329 208.131 97.0103 208.131C96.4769 208.131 95.9863 208.254 95.5383 208.499C95.1009 208.734 94.7489 209.097 94.4823 209.587C94.2156 210.078 94.0823 210.675 94.0823 211.379C94.0823 212.094 94.2103 212.697 94.4663 213.187C94.7329 213.678 95.0849 214.046 95.5223 214.291C95.9596 214.526 96.4396 214.643 96.9623 214.643ZM106.989 206.867C107.746 206.867 108.407 207.033 108.973 207.363C109.549 207.694 109.975 208.11 110.253 208.611V207.011H111.725V215.971C111.725 216.771 111.554 217.481 111.213 218.099C110.871 218.729 110.381 219.219 109.741 219.571C109.111 219.923 108.375 220.099 107.533 220.099C106.381 220.099 105.421 219.827 104.653 219.283C103.885 218.739 103.431 217.998 103.293 217.059H104.733C104.893 217.593 105.223 218.019 105.725 218.339C106.226 218.67 106.829 218.835 107.533 218.835C108.333 218.835 108.983 218.585 109.485 218.083C109.997 217.582 110.253 216.878 110.253 215.971V214.131C109.965 214.643 109.538 215.07 108.973 215.411C108.407 215.753 107.746 215.923 106.989 215.923C106.21 215.923 105.501 215.731 104.861 215.347C104.231 214.963 103.735 214.425 103.373 213.731C103.01 213.038 102.829 212.249 102.829 211.363C102.829 210.467 103.01 209.683 103.373 209.011C103.735 208.329 104.231 207.801 104.861 207.427C105.501 207.054 106.21 206.867 106.989 206.867ZM110.253 211.379C110.253 210.718 110.119 210.142 109.853 209.651C109.586 209.161 109.223 208.787 108.765 208.531C108.317 208.265 107.821 208.131 107.277 208.131C106.733 208.131 106.237 208.259 105.789 208.515C105.341 208.771 104.983 209.145 104.717 209.635C104.45 210.126 104.317 210.702 104.317 211.363C104.317 212.035 104.45 212.622 104.717 213.123C104.983 213.614 105.341 213.993 105.789 214.259C106.237 214.515 106.733 214.643 107.277 214.643C107.821 214.643 108.317 214.515 108.765 214.259C109.223 213.993 109.586 213.614 109.853 213.123C110.119 212.622 110.253 212.041 110.253 211.379ZM114.937 205.587C114.66 205.587 114.425 205.491 114.233 205.299C114.041 205.107 113.945 204.873 113.945 204.595C113.945 204.318 114.041 204.083 114.233 203.891C114.425 203.699 114.66 203.603 114.937 203.603C115.204 203.603 115.428 203.699 115.609 203.891C115.801 204.083 115.897 204.318 115.897 204.595C115.897 204.873 115.801 205.107 115.609 205.299C115.428 205.491 115.204 205.587 114.937 205.587ZM115.641 207.011V215.779H114.185V207.011H115.641ZM122.395 206.851C123.461 206.851 124.325 207.177 124.987 207.827C125.648 208.467 125.979 209.395 125.979 210.611V215.779H124.539V210.819C124.539 209.945 124.32 209.278 123.883 208.819C123.445 208.35 122.848 208.115 122.091 208.115C121.323 208.115 120.709 208.355 120.251 208.835C119.803 209.315 119.579 210.014 119.579 210.931V215.779H118.123V207.011H119.579V208.259C119.867 207.811 120.256 207.465 120.747 207.219C121.248 206.974 121.797 206.851 122.395 206.851Z" fill="black"/>
<path d="M228.756 215.779L226.1 211.219H224.34V215.779H222.884V204.627H226.484C227.327 204.627 228.036 204.771 228.612 205.059C229.199 205.347 229.636 205.737 229.924 206.227C230.212 206.718 230.356 207.278 230.356 207.907C230.356 208.675 230.132 209.353 229.684 209.939C229.247 210.526 228.585 210.915 227.7 211.107L230.5 215.779H228.756ZM224.34 210.051H226.484C227.273 210.051 227.865 209.859 228.26 209.475C228.655 209.081 228.852 208.558 228.852 207.907C228.852 207.246 228.655 206.734 228.26 206.371C227.876 206.009 227.284 205.827 226.484 205.827H224.34V210.051ZM240.618 211.059C240.618 211.337 240.602 211.63 240.57 211.939H233.562C233.616 212.803 233.909 213.481 234.442 213.971C234.986 214.451 235.642 214.691 236.41 214.691C237.04 214.691 237.562 214.547 237.978 214.259C238.405 213.961 238.704 213.566 238.874 213.075H240.442C240.208 213.918 239.738 214.606 239.034 215.139C238.33 215.662 237.456 215.923 236.41 215.923C235.578 215.923 234.832 215.737 234.17 215.363C233.52 214.99 233.008 214.462 232.634 213.779C232.261 213.086 232.074 212.286 232.074 211.379C232.074 210.473 232.256 209.678 232.618 208.995C232.981 208.313 233.488 207.79 234.138 207.427C234.8 207.054 235.557 206.867 236.41 206.867C237.242 206.867 237.978 207.049 238.618 207.411C239.258 207.774 239.749 208.275 240.09 208.915C240.442 209.545 240.618 210.259 240.618 211.059ZM239.114 210.755C239.114 210.201 238.992 209.726 238.746 209.331C238.501 208.926 238.165 208.622 237.738 208.419C237.322 208.206 236.858 208.099 236.346 208.099C235.61 208.099 234.981 208.334 234.458 208.803C233.946 209.273 233.653 209.923 233.578 210.755H239.114ZM246.156 206.867C246.914 206.867 247.575 207.033 248.14 207.363C248.716 207.694 249.143 208.11 249.42 208.611V207.011H250.892V215.971C250.892 216.771 250.722 217.481 250.38 218.099C250.039 218.729 249.548 219.219 248.908 219.571C248.279 219.923 247.543 220.099 246.7 220.099C245.548 220.099 244.588 219.827 243.82 219.283C243.052 218.739 242.599 217.998 242.46 217.059H243.9C244.06 217.593 244.391 218.019 244.892 218.339C245.394 218.67 245.996 218.835 246.7 218.835C247.5 218.835 248.151 218.585 248.652 218.083C249.164 217.582 249.42 216.878 249.42 215.971V214.131C249.132 214.643 248.706 215.07 248.14 215.411C247.575 215.753 246.914 215.923 246.156 215.923C245.378 215.923 244.668 215.731 244.028 215.347C243.399 214.963 242.903 214.425 242.54 213.731C242.178 213.038 241.996 212.249 241.996 211.363C241.996 210.467 242.178 209.683 242.54 209.011C242.903 208.329 243.399 207.801 244.028 207.427C244.668 207.054 245.378 206.867 246.156 206.867ZM249.42 211.379C249.42 210.718 249.287 210.142 249.02 209.651C248.754 209.161 248.391 208.787 247.932 208.531C247.484 208.265 246.988 208.131 246.444 208.131C245.9 208.131 245.404 208.259 244.956 208.515C244.508 208.771 244.151 209.145 243.884 209.635C243.618 210.126 243.484 210.702 243.484 211.363C243.484 212.035 243.618 212.622 243.884 213.123C244.151 213.614 244.508 213.993 244.956 214.259C245.404 214.515 245.9 214.643 246.444 214.643C246.988 214.643 247.484 214.515 247.932 214.259C248.391 213.993 248.754 213.614 249.02 213.123C249.287 212.622 249.42 212.041 249.42 211.379ZM254.105 205.587C253.828 205.587 253.593 205.491 253.401 205.299C253.209 205.107 253.113 204.873 253.113 204.595C253.113 204.318 253.209 204.083 253.401 203.891C253.593 203.699 253.828 203.603 254.105 203.603C254.372 203.603 254.596 203.699 254.777 203.891C254.969 204.083 255.065 204.318 255.065 204.595C255.065 204.873 254.969 205.107 254.777 205.299C254.596 205.491 254.372 205.587 254.105 205.587ZM254.809 207.011V215.779H253.353V207.011H254.809ZM260.394 215.923C259.722 215.923 259.12 215.811 258.586 215.587C258.053 215.353 257.632 215.033 257.322 214.627C257.013 214.211 256.842 213.737 256.81 213.203H258.314C258.357 213.641 258.56 213.998 258.922 214.275C259.296 214.553 259.781 214.691 260.378 214.691C260.933 214.691 261.37 214.569 261.69 214.323C262.01 214.078 262.17 213.769 262.17 213.395C262.17 213.011 262 212.729 261.658 212.547C261.317 212.355 260.789 212.169 260.074 211.987C259.424 211.817 258.89 211.646 258.474 211.475C258.069 211.294 257.717 211.033 257.418 210.691C257.13 210.339 256.986 209.881 256.986 209.315C256.986 208.867 257.12 208.457 257.386 208.083C257.653 207.71 258.032 207.417 258.522 207.203C259.013 206.979 259.573 206.867 260.202 206.867C261.173 206.867 261.957 207.113 262.554 207.603C263.152 208.094 263.472 208.766 263.514 209.619H262.058C262.026 209.161 261.84 208.793 261.498 208.515C261.168 208.238 260.72 208.099 260.154 208.099C259.632 208.099 259.216 208.211 258.906 208.435C258.597 208.659 258.442 208.953 258.442 209.315C258.442 209.603 258.533 209.843 258.714 210.035C258.906 210.217 259.141 210.366 259.418 210.483C259.706 210.59 260.101 210.713 260.602 210.851C261.232 211.022 261.744 211.193 262.138 211.363C262.533 211.523 262.869 211.769 263.146 212.099C263.434 212.43 263.584 212.862 263.594 213.395C263.594 213.875 263.461 214.307 263.194 214.691C262.928 215.075 262.549 215.379 262.058 215.603C261.578 215.817 261.024 215.923 260.394 215.923ZM267.426 208.211V213.379C267.426 213.806 267.516 214.11 267.698 214.291C267.879 214.462 268.194 214.547 268.642 214.547H269.714V215.779H268.402C267.591 215.779 266.983 215.593 266.578 215.219C266.172 214.846 265.97 214.233 265.97 213.379V208.211H264.834V207.011H265.97V204.803H267.426V207.011H269.714V208.211H267.426ZM279.478 211.059C279.478 211.337 279.462 211.63 279.43 211.939H272.422C272.475 212.803 272.769 213.481 273.302 213.971C273.846 214.451 274.502 214.691 275.27 214.691C275.899 214.691 276.422 214.547 276.838 214.259C277.265 213.961 277.563 213.566 277.734 213.075H279.302C279.067 213.918 278.598 214.606 277.894 215.139C277.19 215.662 276.315 215.923 275.27 215.923C274.438 215.923 273.691 215.737 273.03 215.363C272.379 214.99 271.867 214.462 271.494 213.779C271.121 213.086 270.934 212.286 270.934 211.379C270.934 210.473 271.115 209.678 271.478 208.995C271.841 208.313 272.347 207.79 272.998 207.427C273.659 207.054 274.417 206.867 275.27 206.867C276.102 206.867 276.838 207.049 277.478 207.411C278.118 207.774 278.609 208.275 278.95 208.915C279.302 209.545 279.478 210.259 279.478 211.059ZM277.974 210.755C277.974 210.201 277.851 209.726 277.606 209.331C277.361 208.926 277.025 208.622 276.598 208.419C276.182 208.206 275.718 208.099 275.206 208.099C274.47 208.099 273.841 208.334 273.318 208.803C272.806 209.273 272.513 209.923 272.438 210.755H277.974ZM282.856 208.435C283.112 207.934 283.474 207.545 283.944 207.267C284.424 206.99 285.005 206.851 285.688 206.851V208.355H285.304C283.672 208.355 282.856 209.241 282.856 211.011V215.779H281.4V207.011H282.856V208.435Z" fill="black"/>
<path d="M123.248 127.848L120.016 139H118.384L115.792 130.024L113.104 139L111.488 139.016L108.368 127.848H109.92L112.352 137.304L115.04 127.848H116.672L119.232 137.272L121.68 127.848H123.248ZM132.841 134.28C132.841 134.557 132.825 134.851 132.793 135.16H125.785C125.839 136.024 126.132 136.701 126.665 137.192C127.209 137.672 127.865 137.912 128.633 137.912C129.263 137.912 129.785 137.768 130.201 137.48C130.628 137.181 130.927 136.787 131.097 136.296H132.665C132.431 137.139 131.961 137.827 131.257 138.36C130.553 138.883 129.679 139.144 128.633 139.144C127.801 139.144 127.055 138.957 126.393 138.584C125.743 138.211 125.231 137.683 124.857 137C124.484 136.307 124.297 135.507 124.297 134.6C124.297 133.693 124.479 132.899 124.841 132.216C125.204 131.533 125.711 131.011 126.361 130.648C127.023 130.275 127.78 130.088 128.633 130.088C129.465 130.088 130.201 130.269 130.841 130.632C131.481 130.995 131.972 131.496 132.313 132.136C132.665 132.765 132.841 133.48 132.841 134.28ZM131.337 133.976C131.337 133.421 131.215 132.947 130.969 132.552C130.724 132.147 130.388 131.843 129.961 131.64C129.545 131.427 129.081 131.32 128.569 131.32C127.833 131.32 127.204 131.555 126.681 132.024C126.169 132.493 125.876 133.144 125.801 133.976H131.337ZM136.219 127.16V139H134.763V127.16H136.219ZM138.157 134.6C138.157 133.693 138.338 132.904 138.701 132.232C139.063 131.549 139.565 131.021 140.205 130.648C140.855 130.275 141.597 130.088 142.429 130.088C143.506 130.088 144.391 130.349 145.085 130.872C145.789 131.395 146.253 132.12 146.477 133.048H144.909C144.759 132.515 144.466 132.093 144.029 131.784C143.602 131.475 143.069 131.32 142.429 131.32C141.597 131.32 140.925 131.608 140.413 132.184C139.901 132.749 139.645 133.555 139.645 134.6C139.645 135.656 139.901 136.472 140.413 137.048C140.925 137.624 141.597 137.912 142.429 137.912C143.069 137.912 143.602 137.763 144.029 137.464C144.455 137.165 144.749 136.739 144.909 136.184H146.477C146.242 137.08 145.773 137.8 145.069 138.344C144.365 138.877 143.485 139.144 142.429 139.144C141.597 139.144 140.855 138.957 140.205 138.584C139.565 138.211 139.063 137.683 138.701 137C138.338 136.317 138.157 135.517 138.157 134.6ZM152.244 139.144C151.422 139.144 150.676 138.957 150.004 138.584C149.342 138.211 148.82 137.683 148.436 137C148.062 136.307 147.876 135.507 147.876 134.6C147.876 133.704 148.068 132.915 148.452 132.232C148.846 131.539 149.38 131.011 150.052 130.648C150.724 130.275 151.476 130.088 152.308 130.088C153.14 130.088 153.892 130.275 154.564 130.648C155.236 131.011 155.764 131.533 156.148 132.216C156.542 132.899 156.74 133.693 156.74 134.6C156.74 135.507 156.537 136.307 156.132 137C155.737 137.683 155.198 138.211 154.516 138.584C153.833 138.957 153.076 139.144 152.244 139.144ZM152.244 137.864C152.766 137.864 153.257 137.741 153.716 137.496C154.174 137.251 154.542 136.883 154.82 136.392C155.108 135.901 155.252 135.304 155.252 134.6C155.252 133.896 155.113 133.299 154.836 132.808C154.558 132.317 154.196 131.955 153.748 131.72C153.3 131.475 152.814 131.352 152.292 131.352C151.758 131.352 151.268 131.475 150.82 131.72C150.382 131.955 150.03 132.317 149.764 132.808C149.497 133.299 149.364 133.896 149.364 134.6C149.364 135.315 149.492 135.917 149.748 136.408C150.014 136.899 150.366 137.267 150.804 137.512C151.241 137.747 151.721 137.864 152.244 137.864ZM169.198 130.072C169.881 130.072 170.489 130.216 171.022 130.504C171.555 130.781 171.977 131.203 172.286 131.768C172.595 132.333 172.75 133.021 172.75 133.832V139H171.31V134.04C171.31 133.165 171.091 132.499 170.654 132.04C170.227 131.571 169.646 131.336 168.91 131.336C168.153 131.336 167.55 131.581 167.102 132.072C166.654 132.552 166.43 133.251 166.43 134.168V139H164.99V134.04C164.99 133.165 164.771 132.499 164.334 132.04C163.907 131.571 163.326 131.336 162.59 131.336C161.833 131.336 161.23 131.581 160.782 132.072C160.334 132.552 160.11 133.251 160.11 134.168V139H158.654V130.232H160.11V131.496C160.398 131.037 160.782 130.685 161.262 130.44C161.753 130.195 162.291 130.072 162.878 130.072C163.614 130.072 164.265 130.237 164.83 130.568C165.395 130.899 165.817 131.384 166.094 132.024C166.339 131.405 166.745 130.925 167.31 130.584C167.875 130.243 168.505 130.072 169.198 130.072ZM183.138 134.28C183.138 134.557 183.122 134.851 183.09 135.16H176.082C176.136 136.024 176.429 136.701 176.962 137.192C177.506 137.672 178.162 137.912 178.93 137.912C179.56 137.912 180.082 137.768 180.498 137.48C180.925 137.181 181.224 136.787 181.394 136.296H182.962C182.728 137.139 182.258 137.827 181.554 138.36C180.85 138.883 179.976 139.144 178.93 139.144C178.098 139.144 177.352 138.957 176.69 138.584C176.04 138.211 175.528 137.683 175.154 137C174.781 136.307 174.594 135.507 174.594 134.6C174.594 133.693 174.776 132.899 175.138 132.216C175.501 131.533 176.008 131.011 176.658 130.648C177.32 130.275 178.077 130.088 178.93 130.088C179.762 130.088 180.498 130.269 181.138 130.632C181.778 130.995 182.269 131.496 182.61 132.136C182.962 132.765 183.138 133.48 183.138 134.28ZM181.634 133.976C181.634 133.421 181.512 132.947 181.266 132.552C181.021 132.147 180.685 131.843 180.258 131.64C179.842 131.427 179.378 131.32 178.866 131.32C178.13 131.32 177.501 131.555 176.978 132.024C176.466 132.493 176.173 133.144 176.098 133.976H181.634ZM191.102 131.432V136.6C191.102 137.027 191.192 137.331 191.374 137.512C191.555 137.683 191.87 137.768 192.318 137.768H193.39V139H192.078C191.267 139 190.659 138.813 190.254 138.44C189.848 138.067 189.646 137.453 189.646 136.6V131.432H188.51V130.232H189.646V128.024H191.102V130.232H193.39V131.432H191.102ZM198.978 139.144C198.157 139.144 197.41 138.957 196.738 138.584C196.077 138.211 195.554 137.683 195.17 137C194.797 136.307 194.61 135.507 194.61 134.6C194.61 133.704 194.802 132.915 195.186 132.232C195.581 131.539 196.114 131.011 196.786 130.648C197.458 130.275 198.21 130.088 199.042 130.088C199.874 130.088 200.626 130.275 201.298 130.648C201.97 131.011 202.498 131.533 202.882 132.216C203.277 132.899 203.474 133.693 203.474 134.6C203.474 135.507 203.271 136.307 202.866 137C202.471 137.683 201.933 138.211 201.25 138.584C200.567 138.957 199.81 139.144 198.978 139.144ZM198.978 137.864C199.501 137.864 199.991 137.741 200.45 137.496C200.909 137.251 201.277 136.883 201.554 136.392C201.842 135.901 201.986 135.304 201.986 134.6C201.986 133.896 201.847 133.299 201.57 132.808C201.293 132.317 200.93 131.955 200.482 131.72C200.034 131.475 199.549 131.352 199.026 131.352C198.493 131.352 198.002 131.475 197.554 131.72C197.117 131.955 196.765 132.317 196.498 132.808C196.231 133.299 196.098 133.896 196.098 134.6C196.098 135.315 196.226 135.917 196.482 136.408C196.749 136.899 197.101 137.267 197.538 137.512C197.975 137.747 198.455 137.864 198.978 137.864ZM211.782 137.52H216.662V139H209.962V125.06H211.782V137.52ZM224.915 139.14C223.621 139.14 222.441 138.84 221.375 138.24C220.308 137.627 219.461 136.78 218.835 135.7C218.221 134.607 217.915 133.38 217.915 132.02C217.915 130.66 218.221 129.44 218.835 128.36C219.461 127.267 220.308 126.42 221.375 125.82C222.441 125.207 223.621 124.9 224.915 124.9C226.221 124.9 227.408 125.207 228.475 125.82C229.541 126.42 230.381 127.26 230.995 128.34C231.608 129.42 231.915 130.647 231.915 132.02C231.915 133.393 231.608 134.62 230.995 135.7C230.381 136.78 229.541 137.627 228.475 138.24C227.408 138.84 226.221 139.14 224.915 139.14ZM224.915 137.56C225.888 137.56 226.761 137.333 227.535 136.88C228.321 136.427 228.935 135.78 229.375 134.94C229.828 134.1 230.055 133.127 230.055 132.02C230.055 130.9 229.828 129.927 229.375 129.1C228.935 128.26 228.328 127.613 227.555 127.16C226.781 126.707 225.901 126.48 224.915 126.48C223.928 126.48 223.048 126.707 222.275 127.16C221.501 127.613 220.888 128.26 220.435 129.1C219.995 129.927 219.775 130.9 219.775 132.02C219.775 133.127 219.995 134.1 220.435 134.94C220.888 135.78 221.501 136.427 222.275 136.88C223.061 137.333 223.941 137.56 224.915 137.56ZM244.877 129.1C244.491 128.287 243.931 127.66 243.197 127.22C242.464 126.767 241.611 126.54 240.637 126.54C239.664 126.54 238.784 126.767 237.997 127.22C237.224 127.66 236.611 128.3 236.157 129.14C235.717 129.967 235.497 130.927 235.497 132.02C235.497 133.113 235.717 134.073 236.157 134.9C236.611 135.727 237.224 136.367 237.997 136.82C238.784 137.26 239.664 137.48 240.637 137.48C241.997 137.48 243.117 137.073 243.997 136.26C244.877 135.447 245.391 134.347 245.537 132.96H239.977V131.48H247.477V132.88C247.371 134.027 247.011 135.08 246.397 136.04C245.784 136.987 244.977 137.74 243.977 138.3C242.977 138.847 241.864 139.12 240.637 139.12C239.344 139.12 238.164 138.82 237.097 138.22C236.031 137.607 235.184 136.76 234.557 135.68C233.944 134.6 233.637 133.38 233.637 132.02C233.637 130.66 233.944 129.44 234.557 128.36C235.184 127.267 236.031 126.42 237.097 125.82C238.164 125.207 239.344 124.9 240.637 124.9C242.117 124.9 243.424 125.267 244.557 126C245.704 126.733 246.537 127.767 247.057 129.1H244.877ZM256.204 139.14C254.91 139.14 253.73 138.84 252.664 138.24C251.597 137.627 250.75 136.78 250.124 135.7C249.51 134.607 249.204 133.38 249.204 132.02C249.204 130.66 249.51 129.44 250.124 128.36C250.75 127.267 251.597 126.42 252.664 125.82C253.73 125.207 254.91 124.9 256.204 124.9C257.51 124.9 258.697 125.207 259.764 125.82C260.83 126.42 261.67 127.26 262.284 128.34C262.897 129.42 263.204 130.647 263.204 132.02C263.204 133.393 262.897 134.62 262.284 135.7C261.67 136.78 260.83 137.627 259.764 138.24C258.697 138.84 257.51 139.14 256.204 139.14ZM256.204 137.56C257.177 137.56 258.05 137.333 258.824 136.88C259.61 136.427 260.224 135.78 260.664 134.94C261.117 134.1 261.344 133.127 261.344 132.02C261.344 130.9 261.117 129.927 260.664 129.1C260.224 128.26 259.617 127.613 258.844 127.16C258.07 126.707 257.19 126.48 256.204 126.48C255.217 126.48 254.337 126.707 253.564 127.16C252.79 127.613 252.177 128.26 251.724 129.1C251.284 129.927 251.064 130.9 251.064 132.02C251.064 133.127 251.284 134.1 251.724 134.94C252.177 135.78 252.79 136.427 253.564 136.88C254.35 137.333 255.23 137.56 256.204 137.56Z" fill="black"/>
<rect x="26.5" y="336.5" width="316.148" height="53" rx="26.5" fill="white" stroke="#9E896A"/>
<path d="M28.544 306.72V313.488C28.544 314.597 28.7893 315.419 29.28 315.952C29.7707 316.475 30.448 316.736 31.312 316.736C32.1653 316.736 32.832 316.469 33.312 315.936C33.792 315.403 34.032 314.587 34.032 313.488V306.72H35.488V313.488C35.488 315.024 35.104 316.181 34.336 316.96C33.5787 317.728 32.56 318.112 31.28 318.112C30.0107 318.112 28.992 317.728 28.224 316.96C27.4667 316.181 27.088 315.024 27.088 313.488V306.72H28.544ZM40.4981 309.104C41.4901 309.104 42.2848 309.365 42.8821 309.888C43.4901 310.4 43.8581 311.093 43.9861 311.968H42.5941C42.5301 311.445 42.3115 311.019 41.9381 310.688C41.5755 310.347 41.0848 310.176 40.4661 310.176C39.9435 310.176 39.5328 310.304 39.2341 310.56C38.9461 310.805 38.8021 311.141 38.8021 311.568C38.8021 311.888 38.8981 312.149 39.0901 312.352C39.2928 312.544 39.5381 312.693 39.8261 312.8C40.1248 312.896 40.5301 313.003 41.0421 313.12C41.6928 313.269 42.2155 313.424 42.6101 313.584C43.0155 313.733 43.3568 313.979 43.6341 314.32C43.9221 314.661 44.0661 315.12 44.0661 315.696C44.0661 316.411 43.7941 316.992 43.2501 317.44C42.7168 317.888 42.0021 318.112 41.1061 318.112C40.0608 318.112 39.2075 317.861 38.5461 317.36C37.8848 316.859 37.4955 316.16 37.3781 315.264H38.7861C38.8395 315.797 39.0688 316.229 39.4741 316.56C39.8901 316.891 40.4341 317.056 41.1061 317.056C41.6075 317.056 41.9968 316.928 42.2741 316.672C42.5621 316.416 42.7061 316.08 42.7061 315.664C42.7061 315.323 42.6048 315.051 42.4021 314.848C42.1995 314.645 41.9488 314.491 41.6501 314.384C41.3515 314.277 40.9408 314.165 40.4181 314.048C39.7675 313.899 39.2448 313.749 38.8501 313.6C38.4661 313.451 38.1355 313.216 37.8581 312.896C37.5915 312.565 37.4581 312.123 37.4581 311.568C37.4581 310.832 37.7301 310.24 38.2741 309.792C38.8181 309.333 39.5595 309.104 40.4981 309.104ZM54.0918 313.12C54.0918 313.429 54.0704 313.696 54.0278 313.92H47.0038C47.0358 314.923 47.3184 315.675 47.8518 316.176C48.3958 316.677 49.0571 316.928 49.8358 316.928C50.5398 316.928 51.1264 316.752 51.5958 316.4C52.0758 316.037 52.3691 315.557 52.4758 314.96H54.0278C53.9211 315.568 53.6811 316.112 53.3078 316.592C52.9451 317.072 52.4704 317.445 51.8838 317.712C51.2971 317.979 50.6358 318.112 49.8998 318.112C49.0571 318.112 48.3104 317.931 47.6598 317.568C47.0091 317.205 46.4971 316.688 46.1238 316.016C45.7611 315.333 45.5798 314.533 45.5798 313.616C45.5798 312.699 45.7611 311.899 46.1238 311.216C46.4971 310.533 47.0091 310.011 47.6598 309.648C48.3104 309.285 49.0571 309.104 49.8998 309.104C50.7531 309.104 51.4944 309.285 52.1238 309.648C52.7638 310.011 53.2491 310.496 53.5798 311.104C53.9211 311.712 54.0918 312.384 54.0918 313.12ZM52.6198 313.216C52.6518 312.565 52.5451 312.021 52.2998 311.584C52.0544 311.147 51.7184 310.821 51.2918 310.608C50.8651 310.395 50.4011 310.288 49.8998 310.288C49.0998 310.288 48.4278 310.539 47.8838 311.04C47.3398 311.531 47.0464 312.256 47.0038 313.216H52.6198ZM57.4521 310.992C57.7401 310.384 58.1615 309.915 58.7161 309.584C59.2708 309.243 59.9321 309.072 60.7001 309.072V310.656H60.2521C59.4308 310.656 58.7588 310.869 58.2361 311.296C57.7135 311.712 57.4521 312.405 57.4521 313.376V318H55.9961V309.216H57.4521V310.992ZM70.7139 309.072C71.7379 309.072 72.5645 309.403 73.1939 310.064C73.8232 310.715 74.1379 311.659 74.1379 312.896V318H72.6819V313.024C72.6819 312.149 72.4579 311.477 72.0099 311.008C71.5619 310.539 70.9539 310.304 70.1859 310.304C69.3859 310.304 68.7459 310.565 68.2659 311.088C67.7859 311.6 67.5459 312.352 67.5459 313.344V318H66.0899V309.216H67.5459V311.296C67.7699 310.581 68.1645 310.032 68.7299 309.648C69.3059 309.264 69.9672 309.072 70.7139 309.072ZM79.9711 309.104C80.8245 309.104 81.5445 309.317 82.1311 309.744C82.7285 310.171 83.1445 310.741 83.3791 311.456V309.216H84.8351V318H83.3791V315.76C83.1445 316.475 82.7285 317.045 82.1311 317.472C81.5445 317.899 80.8245 318.112 79.9711 318.112C79.1925 318.112 78.4991 317.931 77.8911 317.568C77.2831 317.205 76.8031 316.688 76.4511 316.016C76.1098 315.333 75.9391 314.533 75.9391 313.616C75.9391 312.699 76.1098 311.899 76.4511 311.216C76.8031 310.533 77.2831 310.011 77.8911 309.648C78.4991 309.285 79.1925 309.104 79.9711 309.104ZM80.3871 310.4C79.4911 310.4 78.7711 310.688 78.2271 311.264C77.6938 311.829 77.4271 312.613 77.4271 313.616C77.4271 314.619 77.6938 315.408 78.2271 315.984C78.7711 316.549 79.4911 316.832 80.3871 316.832C80.9631 316.832 81.4751 316.699 81.9231 316.432C82.3818 316.165 82.7391 315.792 82.9951 315.312C83.2511 314.821 83.3791 314.256 83.3791 313.616C83.3791 312.976 83.2511 312.411 82.9951 311.92C82.7391 311.429 82.3818 311.056 81.9231 310.8C81.4751 310.533 80.9631 310.4 80.3871 310.4ZM97.9524 309.072C98.9764 309.072 99.7977 309.403 100.416 310.064C101.046 310.715 101.36 311.659 101.36 312.896V318H99.9044V313.024C99.9044 312.16 99.691 311.499 99.2644 311.04C98.8484 310.581 98.2724 310.352 97.5364 310.352C96.7684 310.352 96.1497 310.608 95.6804 311.12C95.2217 311.621 94.9924 312.363 94.9924 313.344V318H93.5364V313.024C93.5364 312.16 93.323 311.499 92.8964 311.04C92.4697 310.581 91.8937 310.352 91.1684 310.352C90.3897 310.352 89.7657 310.608 89.2964 311.12C88.8377 311.621 88.6084 312.363 88.6084 313.344V318H87.1524V309.216H88.6084V311.216C88.8217 310.523 89.2004 309.995 89.7444 309.632C90.299 309.259 90.9337 309.072 91.6484 309.072C92.395 309.072 93.0404 309.264 93.5844 309.648C94.139 310.021 94.5337 310.576 94.7684 311.312C95.0137 310.597 95.4244 310.048 96.0004 309.664C96.5764 309.269 97.227 309.072 97.9524 309.072ZM111.701 313.12C111.701 313.429 111.68 313.696 111.637 313.92H104.613C104.645 314.923 104.928 315.675 105.461 316.176C106.005 316.677 106.666 316.928 107.445 316.928C108.149 316.928 108.736 316.752 109.205 316.4C109.685 316.037 109.978 315.557 110.085 314.96H111.637C111.53 315.568 111.29 316.112 110.917 316.592C110.554 317.072 110.08 317.445 109.493 317.712C108.906 317.979 108.245 318.112 107.509 318.112C106.666 318.112 105.92 317.931 105.269 317.568C104.618 317.205 104.106 316.688 103.733 316.016C103.37 315.333 103.189 314.533 103.189 313.616C103.189 312.699 103.37 311.899 103.733 311.216C104.106 310.533 104.618 310.011 105.269 309.648C105.92 309.285 106.666 309.104 107.509 309.104C108.362 309.104 109.104 309.285 109.733 309.648C110.373 310.011 110.858 310.496 111.189 311.104C111.53 311.712 111.701 312.384 111.701 313.12ZM110.229 313.216C110.261 312.565 110.154 312.021 109.909 311.584C109.664 311.147 109.328 310.821 108.901 310.608C108.474 310.395 108.01 310.288 107.509 310.288C106.709 310.288 106.037 310.539 105.493 311.04C104.949 311.531 104.656 312.256 104.613 313.216H110.229Z" fill="black"/>
<path d="M51.205 358.28V362.27H55.33V363.095H51.205V367.13H55.78V368H50.14V357.425H55.78V358.28H51.205ZM61.7057 359.66C62.6557 359.66 63.4257 359.965 64.0157 360.575C64.6157 361.175 64.9157 362.06 64.9157 363.23V368H63.8807V363.305C63.8807 362.415 63.6557 361.735 63.2057 361.265C62.7557 360.785 62.1407 360.545 61.3607 360.545C60.5407 360.545 59.8857 360.81 59.3957 361.34C58.9157 361.86 58.6757 362.63 58.6757 363.65V368H57.6107V359.81H58.6757V361.82C58.8857 361.12 59.2657 360.585 59.8157 360.215C60.3657 359.845 60.9957 359.66 61.7057 359.66ZM70.8522 367.07V368H69.8772C69.0872 368 68.4972 367.815 68.1072 367.445C67.7172 367.065 67.5222 366.43 67.5222 365.54V360.725H66.2772V359.81H67.5222V357.74H68.5872V359.81H70.8372V360.725H68.5872V365.555C68.5872 366.135 68.6922 366.535 68.9022 366.755C69.1122 366.965 69.4822 367.07 70.0122 367.07H70.8522ZM76.1514 367.235C76.8914 367.235 77.5114 367.05 78.0114 366.68C78.5114 366.31 78.8114 365.81 78.9114 365.18H80.0214C79.8714 366.05 79.4564 366.755 78.7764 367.295C78.0964 367.835 77.2364 368.105 76.1964 368.105C75.4164 368.105 74.7214 367.94 74.1114 367.61C73.5114 367.27 73.0414 366.785 72.7014 366.155C72.3614 365.515 72.1914 364.765 72.1914 363.905C72.1914 363.045 72.3614 362.3 72.7014 361.67C73.0414 361.03 73.5114 360.545 74.1114 360.215C74.7214 359.875 75.4164 359.705 76.1964 359.705C76.9964 359.705 77.6864 359.875 78.2664 360.215C78.8564 360.545 79.3014 360.99 79.6014 361.55C79.9114 362.11 80.0664 362.72 80.0664 363.38C80.0664 363.66 80.0464 363.915 80.0064 364.145H73.2264C73.2364 364.835 73.3764 365.415 73.6464 365.885C73.9264 366.345 74.2864 366.685 74.7264 366.905C75.1664 367.125 75.6414 367.235 76.1514 367.235ZM76.1964 360.56C75.6664 360.56 75.1814 360.67 74.7414 360.89C74.3014 361.11 73.9414 361.45 73.6614 361.91C73.3914 362.36 73.2464 362.925 73.2264 363.605H79.0164C79.0564 362.935 78.9464 362.37 78.6864 361.91C78.4264 361.45 78.0764 361.11 77.6364 360.89C77.1964 360.67 76.7164 360.56 76.1964 360.56ZM83.0214 361.505C83.2614 360.915 83.6464 360.46 84.1764 360.14C84.7064 359.82 85.3514 359.66 86.1114 359.66V360.8H85.7664C84.9764 360.8 84.3214 361.015 83.8014 361.445C83.2814 361.865 83.0214 362.555 83.0214 363.515V368H81.9564V359.81H83.0214V361.505ZM91.6296 359.81L94.4796 366.635L97.1046 359.81H98.2746L93.4596 371.87H92.2596L93.9096 367.91L90.4596 359.81H91.6296ZM103.313 359.705C104.093 359.705 104.788 359.875 105.398 360.215C106.018 360.545 106.503 361.03 106.853 361.67C107.203 362.3 107.378 363.045 107.378 363.905C107.378 364.765 107.203 365.51 106.853 366.14C106.503 366.77 106.018 367.255 105.398 367.595C104.788 367.935 104.093 368.105 103.313 368.105C102.533 368.105 101.833 367.935 101.213 367.595C100.593 367.255 100.103 366.77 99.7428 366.14C99.3928 365.5 99.2178 364.755 99.2178 363.905C99.2178 363.045 99.3928 362.3 99.7428 361.67C100.103 361.03 100.593 360.545 101.213 360.215C101.833 359.875 102.533 359.705 103.313 359.705ZM103.313 360.62C102.773 360.62 102.273 360.74 101.813 360.98C101.353 361.22 100.983 361.59 100.703 362.09C100.423 362.58 100.283 363.185 100.283 363.905C100.283 364.625 100.423 365.23 100.703 365.72C100.983 366.21 101.353 366.575 101.813 366.815C102.273 367.055 102.773 367.175 103.313 367.175C103.843 367.175 104.333 367.055 104.783 366.815C105.243 366.575 105.613 366.21 105.893 365.72C106.173 365.23 106.313 364.625 106.313 363.905C106.313 363.185 106.173 362.58 105.893 362.09C105.613 361.59 105.243 361.22 104.783 360.98C104.333 360.74 103.843 360.62 103.313 360.62ZM116.326 359.81V368H115.276V365.975C115.066 366.685 114.686 367.225 114.136 367.595C113.586 367.965 112.956 368.15 112.246 368.15C111.286 368.15 110.506 367.85 109.906 367.25C109.316 366.64 109.021 365.75 109.021 364.58V359.81H110.071V364.49C110.071 365.39 110.296 366.08 110.746 366.56C111.196 367.03 111.811 367.265 112.591 367.265C113.411 367.265 114.061 367.005 114.541 366.485C115.031 365.955 115.276 365.18 115.276 364.16V359.81H116.326ZM119.686 361.505C119.926 360.915 120.311 360.46 120.841 360.14C121.371 359.82 122.016 359.66 122.776 359.66V360.8H122.431C121.641 360.8 120.986 361.015 120.466 361.445C119.946 361.865 119.686 362.555 119.686 363.515V368H118.621V359.81H119.686V361.505ZM129.06 357.425V363.83C129.06 364.96 129.305 365.79 129.795 366.32C130.295 366.85 130.975 367.115 131.835 367.115C132.695 367.115 133.365 366.85 133.845 366.32C134.335 365.79 134.58 364.96 134.58 363.83V357.425H135.63V363.83C135.63 365.26 135.285 366.33 134.595 367.04C133.905 367.75 132.98 368.105 131.82 368.105C130.66 368.105 129.735 367.75 129.045 367.04C128.355 366.33 128.01 365.26 128.01 363.83V357.425H129.06ZM140.33 359.705C141.22 359.705 141.935 359.94 142.475 360.41C143.015 360.88 143.345 361.515 143.465 362.315H142.46C142.4 361.785 142.18 361.35 141.8 361.01C141.43 360.66 140.93 360.485 140.3 360.485C139.76 360.485 139.335 360.62 139.025 360.89C138.725 361.15 138.575 361.5 138.575 361.94C138.575 362.27 138.67 362.535 138.86 362.735C139.06 362.935 139.305 363.09 139.595 363.2C139.885 363.3 140.275 363.405 140.765 363.515C141.365 363.655 141.845 363.8 142.205 363.95C142.575 364.09 142.89 364.315 143.15 364.625C143.41 364.935 143.54 365.355 143.54 365.885C143.54 366.535 143.295 367.07 142.805 367.49C142.325 367.9 141.685 368.105 140.885 368.105C139.945 368.105 139.175 367.875 138.575 367.415C137.975 366.945 137.62 366.305 137.51 365.495H138.53C138.59 366.035 138.825 366.475 139.235 366.815C139.645 367.155 140.2 367.325 140.9 367.325C141.42 367.325 141.825 367.19 142.115 366.92C142.405 366.65 142.55 366.3 142.55 365.87C142.55 365.52 142.45 365.24 142.25 365.03C142.05 364.82 141.8 364.665 141.5 364.565C141.21 364.455 140.81 364.34 140.3 364.22C139.71 364.08 139.235 363.94 138.875 363.8C138.525 363.66 138.225 363.445 137.975 363.155C137.725 362.855 137.6 362.45 137.6 361.94C137.6 361.27 137.845 360.73 138.335 360.32C138.825 359.91 139.49 359.705 140.33 359.705ZM149.027 367.235C149.767 367.235 150.387 367.05 150.887 366.68C151.387 366.31 151.687 365.81 151.787 365.18H152.897C152.747 366.05 152.332 366.755 151.652 367.295C150.972 367.835 150.112 368.105 149.072 368.105C148.292 368.105 147.597 367.94 146.987 367.61C146.387 367.27 145.917 366.785 145.577 366.155C145.237 365.515 145.067 364.765 145.067 363.905C145.067 363.045 145.237 362.3 145.577 361.67C145.917 361.03 146.387 360.545 146.987 360.215C147.597 359.875 148.292 359.705 149.072 359.705C149.872 359.705 150.562 359.875 151.142 360.215C151.732 360.545 152.177 360.99 152.477 361.55C152.787 362.11 152.942 362.72 152.942 363.38C152.942 363.66 152.922 363.915 152.882 364.145H146.102C146.112 364.835 146.252 365.415 146.522 365.885C146.802 366.345 147.162 366.685 147.602 366.905C148.042 367.125 148.517 367.235 149.027 367.235ZM149.072 360.56C148.542 360.56 148.057 360.67 147.617 360.89C147.177 361.11 146.817 361.45 146.537 361.91C146.267 362.36 146.122 362.925 146.102 363.605H151.892C151.932 362.935 151.822 362.37 151.562 361.91C151.302 361.45 150.952 361.11 150.512 360.89C150.072 360.67 149.592 360.56 149.072 360.56ZM155.897 361.505C156.137 360.915 156.522 360.46 157.052 360.14C157.582 359.82 158.227 359.66 158.987 359.66V360.8H158.642C157.852 360.8 157.197 361.015 156.677 361.445C156.157 361.865 155.897 362.555 155.897 363.515V368H154.832V359.81H155.897V361.505ZM168.376 359.66C169.326 359.66 170.096 359.965 170.686 360.575C171.286 361.175 171.586 362.06 171.586 363.23V368H170.551V363.305C170.551 362.415 170.326 361.735 169.876 361.265C169.426 360.785 168.811 360.545 168.031 360.545C167.211 360.545 166.556 360.81 166.066 361.34C165.586 361.86 165.346 362.63 165.346 363.65V368H164.281V359.81H165.346V361.82C165.556 361.12 165.936 360.585 166.486 360.215C167.036 359.845 167.666 359.66 168.376 359.66ZM177.252 359.705C178.082 359.705 178.787 359.92 179.367 360.35C179.957 360.78 180.362 361.35 180.582 362.06V359.81H181.617V368H180.582V365.75C180.362 366.46 179.957 367.03 179.367 367.46C178.787 367.89 178.082 368.105 177.252 368.105C176.512 368.105 175.847 367.935 175.257 367.595C174.677 367.255 174.222 366.77 173.892 366.14C173.572 365.5 173.412 364.755 173.412 363.905C173.412 363.045 173.572 362.3 173.892 361.67C174.222 361.03 174.677 360.545 175.257 360.215C175.837 359.875 176.502 359.705 177.252 359.705ZM177.522 360.635C176.602 360.635 175.862 360.93 175.302 361.52C174.752 362.1 174.477 362.895 174.477 363.905C174.477 364.915 174.752 365.715 175.302 366.305C175.862 366.885 176.602 367.175 177.522 367.175C178.102 367.175 178.622 367.04 179.082 366.77C179.552 366.5 179.917 366.12 180.177 365.63C180.447 365.13 180.582 364.555 180.582 363.905C180.582 363.255 180.447 362.685 180.177 362.195C179.917 361.695 179.552 361.31 179.082 361.04C178.622 360.77 178.102 360.635 177.522 360.635ZM193.84 359.66C194.78 359.66 195.54 359.965 196.12 360.575C196.71 361.175 197.005 362.06 197.005 363.23V368H195.955V363.305C195.955 362.425 195.74 361.75 195.31 361.28C194.89 360.81 194.31 360.575 193.57 360.575C192.78 360.575 192.15 360.835 191.68 361.355C191.21 361.875 190.975 362.64 190.975 363.65V368H189.94V363.305C189.94 362.425 189.725 361.75 189.295 361.28C188.875 360.81 188.295 360.575 187.555 360.575C186.765 360.575 186.135 360.835 185.665 361.355C185.195 361.875 184.96 362.64 184.96 363.65V368H183.895V359.81H184.96V361.76C185.16 361.07 185.52 360.55 186.04 360.2C186.57 359.84 187.18 359.66 187.87 359.66C188.59 359.66 189.21 359.85 189.73 360.23C190.25 360.61 190.61 361.17 190.81 361.91C191.03 361.18 191.415 360.625 191.965 360.245C192.515 359.855 193.14 359.66 193.84 359.66ZM202.787 367.235C203.527 367.235 204.147 367.05 204.647 366.68C205.147 366.31 205.447 365.81 205.547 365.18H206.657C206.507 366.05 206.092 366.755 205.412 367.295C204.732 367.835 203.872 368.105 202.832 368.105C202.052 368.105 201.357 367.94 200.747 367.61C200.147 367.27 199.677 366.785 199.337 366.155C198.997 365.515 198.827 364.765 198.827 363.905C198.827 363.045 198.997 362.3 199.337 361.67C199.677 361.03 200.147 360.545 200.747 360.215C201.357 359.875 202.052 359.705 202.832 359.705C203.632 359.705 204.322 359.875 204.902 360.215C205.492 360.545 205.937 360.99 206.237 361.55C206.547 362.11 206.702 362.72 206.702 363.38C206.702 363.66 206.682 363.915 206.642 364.145H199.862C199.872 364.835 200.012 365.415 200.282 365.885C200.562 366.345 200.922 366.685 201.362 366.905C201.802 367.125 202.277 367.235 202.787 367.235ZM202.832 360.56C202.302 360.56 201.817 360.67 201.377 360.89C200.937 361.11 200.577 361.45 200.297 361.91C200.027 362.36 199.882 362.925 199.862 363.605H205.652C205.692 362.935 205.582 362.37 205.322 361.91C205.062 361.45 204.712 361.11 204.272 360.89C203.832 360.67 203.352 360.56 202.832 360.56Z" fill="#ACACAC"/>
<rect x="26.5" y="456.5" width="316.148" height="53" rx="26.5" fill="white" stroke="#9E896A"/>
<path d="M28.624 433.456V438H27.168V426.72H30.752C32.0427 426.72 33.008 427.024 33.648 427.632C34.288 428.229 34.608 429.051 34.608 430.096C34.608 431.152 34.2773 431.979 33.616 432.576C32.9547 433.163 32 433.456 30.752 433.456H28.624ZM30.624 432.24C31.5093 432.24 32.144 432.053 32.528 431.68C32.9227 431.307 33.12 430.779 33.12 430.096C33.12 429.392 32.9227 428.859 32.528 428.496C32.144 428.123 31.5093 427.936 30.624 427.936H28.624V432.24H30.624ZM39.9086 429.104C40.762 429.104 41.482 429.317 42.0686 429.744C42.666 430.171 43.082 430.741 43.3166 431.456V429.216H44.7726V438H43.3166V435.76C43.082 436.475 42.666 437.045 42.0686 437.472C41.482 437.899 40.762 438.112 39.9086 438.112C39.13 438.112 38.4366 437.931 37.8286 437.568C37.2206 437.205 36.7406 436.688 36.3886 436.016C36.0473 435.333 35.8766 434.533 35.8766 433.616C35.8766 432.699 36.0473 431.899 36.3886 431.216C36.7406 430.533 37.2206 430.011 37.8286 429.648C38.4366 429.285 39.13 429.104 39.9086 429.104ZM40.3246 430.4C39.4286 430.4 38.7086 430.688 38.1646 431.264C37.6313 431.829 37.3646 432.613 37.3646 433.616C37.3646 434.619 37.6313 435.408 38.1646 435.984C38.7086 436.549 39.4286 436.832 40.3246 436.832C40.9006 436.832 41.4126 436.699 41.8606 436.432C42.3193 436.165 42.6766 435.792 42.9326 435.312C43.1886 434.821 43.3166 434.256 43.3166 433.616C43.3166 432.976 43.1886 432.411 42.9326 431.92C42.6766 431.429 42.3193 431.056 41.8606 430.8C41.4126 430.533 40.9006 430.4 40.3246 430.4ZM49.8419 429.104C50.8339 429.104 51.6285 429.365 52.2259 429.888C52.8339 430.4 53.2019 431.093 53.3299 431.968H51.9379C51.8739 431.445 51.6552 431.019 51.2819 430.688C50.9192 430.347 50.4285 430.176 49.8099 430.176C49.2872 430.176 48.8765 430.304 48.5779 430.56C48.2899 430.805 48.1459 431.141 48.1459 431.568C48.1459 431.888 48.2419 432.149 48.4339 432.352C48.6365 432.544 48.8819 432.693 49.1699 432.8C49.4685 432.896 49.8739 433.003 50.3859 433.12C51.0365 433.269 51.5592 433.424 51.9539 433.584C52.3592 433.733 52.7005 433.979 52.9779 434.32C53.2659 434.661 53.4099 435.12 53.4099 435.696C53.4099 436.411 53.1379 436.992 52.5939 437.44C52.0605 437.888 51.3459 438.112 50.4499 438.112C49.4045 438.112 48.5512 437.861 47.8899 437.36C47.2285 436.859 46.8392 436.16 46.7219 435.264H48.1299C48.1832 435.797 48.4125 436.229 48.8179 436.56C49.2339 436.891 49.7779 437.056 50.4499 437.056C50.9512 437.056 51.3405 436.928 51.6179 436.672C51.9059 436.416 52.0499 436.08 52.0499 435.664C52.0499 435.323 51.9485 435.051 51.7459 434.848C51.5432 434.645 51.2925 434.491 50.9939 434.384C50.6952 434.277 50.2845 434.165 49.7619 434.048C49.1112 433.899 48.5885 433.749 48.1939 433.6C47.8099 433.451 47.4792 433.216 47.2019 432.896C46.9352 432.565 46.8019 432.123 46.8019 431.568C46.8019 430.832 47.0739 430.24 47.6179 429.792C48.1619 429.333 48.9032 429.104 49.8419 429.104ZM58.1075 429.104C59.0995 429.104 59.8942 429.365 60.4915 429.888C61.0995 430.4 61.4675 431.093 61.5955 431.968H60.2035C60.1395 431.445 59.9208 431.019 59.5475 430.688C59.1848 430.347 58.6942 430.176 58.0755 430.176C57.5528 430.176 57.1422 430.304 56.8435 430.56C56.5555 430.805 56.4115 431.141 56.4115 431.568C56.4115 431.888 56.5075 432.149 56.6995 432.352C56.9022 432.544 57.1475 432.693 57.4355 432.8C57.7342 432.896 58.1395 433.003 58.6515 433.12C59.3022 433.269 59.8248 433.424 60.2195 433.584C60.6248 433.733 60.9662 433.979 61.2435 434.32C61.5315 434.661 61.6755 435.12 61.6755 435.696C61.6755 436.411 61.4035 436.992 60.8595 437.44C60.3262 437.888 59.6115 438.112 58.7155 438.112C57.6702 438.112 56.8168 437.861 56.1555 437.36C55.4942 436.859 55.1048 436.16 54.9875 435.264H56.3955C56.4488 435.797 56.6782 436.229 57.0835 436.56C57.4995 436.891 58.0435 437.056 58.7155 437.056C59.2168 437.056 59.6062 436.928 59.8835 436.672C60.1715 436.416 60.3155 436.08 60.3155 435.664C60.3155 435.323 60.2142 435.051 60.0115 434.848C59.8088 434.645 59.5582 434.491 59.2595 434.384C58.9608 434.277 58.5502 434.165 58.0275 434.048C57.3768 433.899 56.8542 433.749 56.4595 433.6C56.0755 433.451 55.7448 433.216 55.4675 432.896C55.2008 432.565 55.0675 432.123 55.0675 431.568C55.0675 430.832 55.3395 430.24 55.8835 429.792C56.4275 429.333 57.1688 429.104 58.1075 429.104ZM75.6851 429.216L73.1571 438H71.5891L69.1731 430.848L66.7411 438H65.1571L62.6611 429.216H64.1331L66.0051 436.608L68.4371 429.216H69.9571L72.4051 436.592L74.2931 429.216H75.6851ZM81.027 429.104C81.8697 429.104 82.6217 429.285 83.283 429.648C83.955 430.011 84.4777 430.533 84.851 431.216C85.235 431.899 85.427 432.699 85.427 433.616C85.427 434.533 85.235 435.333 84.851 436.016C84.4777 436.688 83.955 437.205 83.283 437.568C82.6217 437.931 81.8697 438.112 81.027 438.112C80.1843 438.112 79.427 437.931 78.755 437.568C78.0937 437.205 77.571 436.688 77.187 436.016C76.803 435.333 76.611 434.533 76.611 433.616C76.611 432.699 76.803 431.899 77.187 431.216C77.571 430.533 78.0937 430.011 78.755 429.648C79.427 429.285 80.1843 429.104 81.027 429.104ZM81.027 430.384C80.5043 430.384 80.019 430.501 79.571 430.736C79.1337 430.971 78.7763 431.333 78.499 431.824C78.2323 432.304 78.099 432.901 78.099 433.616C78.099 434.32 78.2323 434.917 78.499 435.408C78.7763 435.888 79.1337 436.245 79.571 436.48C80.019 436.715 80.5043 436.832 81.027 436.832C81.5497 436.832 82.0297 436.715 82.467 436.48C82.915 436.245 83.2723 435.888 83.539 435.408C83.8163 434.917 83.955 434.32 83.955 433.616C83.955 432.901 83.8163 432.304 83.539 431.824C83.2723 431.333 82.915 430.971 82.467 430.736C82.0297 430.501 81.5497 430.384 81.027 430.384ZM88.7803 430.992C89.0683 430.384 89.4896 429.915 90.0443 429.584C90.5989 429.243 91.2603 429.072 92.0283 429.072V430.656H91.5803C90.7589 430.656 90.0869 430.869 89.5643 431.296C89.0416 431.712 88.7803 432.405 88.7803 433.376V438H87.3243V429.216H88.7803V430.992ZM97.0649 429.104C97.9182 429.104 98.6382 429.317 99.2249 429.744C99.8222 430.171 100.238 430.741 100.473 431.456V426.16H101.929V438H100.473V435.76C100.238 436.475 99.8222 437.045 99.2249 437.472C98.6382 437.899 97.9182 438.112 97.0649 438.112C96.2862 438.112 95.5929 437.931 94.9849 437.568C94.3769 437.205 93.8969 436.688 93.5449 436.016C93.2035 435.333 93.0329 434.533 93.0329 433.616C93.0329 432.699 93.2035 431.899 93.5449 431.216C93.8969 430.533 94.3769 430.011 94.9849 429.648C95.5929 429.285 96.2862 429.104 97.0649 429.104ZM97.4809 430.4C96.5849 430.4 95.8649 430.688 95.3209 431.264C94.7875 431.829 94.5209 432.613 94.5209 433.616C94.5209 434.619 94.7875 435.408 95.3209 435.984C95.8649 436.549 96.5849 436.832 97.4809 436.832C98.0569 436.832 98.5689 436.699 99.0169 436.432C99.4755 436.165 99.8329 435.792 100.089 435.312C100.345 434.821 100.473 434.256 100.473 433.616C100.473 432.976 100.345 432.411 100.089 431.92C99.8329 431.429 99.4755 431.056 99.0169 430.8C98.5689 430.533 98.0569 430.4 97.4809 430.4Z" fill="black"/>
<path d="M51.205 478.28V482.27H55.33V483.095H51.205V487.13H55.78V488H50.14V477.425H55.78V478.28H51.205ZM61.7057 479.66C62.6557 479.66 63.4257 479.965 64.0157 480.575C64.6157 481.175 64.9157 482.06 64.9157 483.23V488H63.8807V483.305C63.8807 482.415 63.6557 481.735 63.2057 481.265C62.7557 480.785 62.1407 480.545 61.3607 480.545C60.5407 480.545 59.8857 480.81 59.3957 481.34C58.9157 481.86 58.6757 482.63 58.6757 483.65V488H57.6107V479.81H58.6757V481.82C58.8857 481.12 59.2657 480.585 59.8157 480.215C60.3657 479.845 60.9957 479.66 61.7057 479.66ZM70.8522 487.07V488H69.8772C69.0872 488 68.4972 487.815 68.1072 487.445C67.7172 487.065 67.5222 486.43 67.5222 485.54V480.725H66.2772V479.81H67.5222V477.74H68.5872V479.81H70.8372V480.725H68.5872V485.555C68.5872 486.135 68.6922 486.535 68.9022 486.755C69.1122 486.965 69.4822 487.07 70.0122 487.07H70.8522ZM76.1514 487.235C76.8914 487.235 77.5114 487.05 78.0114 486.68C78.5114 486.31 78.8114 485.81 78.9114 485.18H80.0214C79.8714 486.05 79.4564 486.755 78.7764 487.295C78.0964 487.835 77.2364 488.105 76.1964 488.105C75.4164 488.105 74.7214 487.94 74.1114 487.61C73.5114 487.27 73.0414 486.785 72.7014 486.155C72.3614 485.515 72.1914 484.765 72.1914 483.905C72.1914 483.045 72.3614 482.3 72.7014 481.67C73.0414 481.03 73.5114 480.545 74.1114 480.215C74.7214 479.875 75.4164 479.705 76.1964 479.705C76.9964 479.705 77.6864 479.875 78.2664 480.215C78.8564 480.545 79.3014 480.99 79.6014 481.55C79.9114 482.11 80.0664 482.72 80.0664 483.38C80.0664 483.66 80.0464 483.915 80.0064 484.145H73.2264C73.2364 484.835 73.3764 485.415 73.6464 485.885C73.9264 486.345 74.2864 486.685 74.7264 486.905C75.1664 487.125 75.6414 487.235 76.1514 487.235ZM76.1964 480.56C75.6664 480.56 75.1814 480.67 74.7414 480.89C74.3014 481.11 73.9414 481.45 73.6614 481.91C73.3914 482.36 73.2464 482.925 73.2264 483.605H79.0164C79.0564 482.935 78.9464 482.37 78.6864 481.91C78.4264 481.45 78.0764 481.11 77.6364 480.89C77.1964 480.67 76.7164 480.56 76.1964 480.56ZM83.0214 481.505C83.2614 480.915 83.6464 480.46 84.1764 480.14C84.7064 479.82 85.3514 479.66 86.1114 479.66V480.8H85.7664C84.9764 480.8 84.3214 481.015 83.8014 481.445C83.2814 481.865 83.0214 482.555 83.0214 483.515V488H81.9564V479.81H83.0214V481.505ZM91.6296 479.81L94.4796 486.635L97.1046 479.81H98.2746L93.4596 491.87H92.2596L93.9096 487.91L90.4596 479.81H91.6296ZM103.313 479.705C104.093 479.705 104.788 479.875 105.398 480.215C106.018 480.545 106.503 481.03 106.853 481.67C107.203 482.3 107.378 483.045 107.378 483.905C107.378 484.765 107.203 485.51 106.853 486.14C106.503 486.77 106.018 487.255 105.398 487.595C104.788 487.935 104.093 488.105 103.313 488.105C102.533 488.105 101.833 487.935 101.213 487.595C100.593 487.255 100.103 486.77 99.7428 486.14C99.3928 485.5 99.2178 484.755 99.2178 483.905C99.2178 483.045 99.3928 482.3 99.7428 481.67C100.103 481.03 100.593 480.545 101.213 480.215C101.833 479.875 102.533 479.705 103.313 479.705ZM103.313 480.62C102.773 480.62 102.273 480.74 101.813 480.98C101.353 481.22 100.983 481.59 100.703 482.09C100.423 482.58 100.283 483.185 100.283 483.905C100.283 484.625 100.423 485.23 100.703 485.72C100.983 486.21 101.353 486.575 101.813 486.815C102.273 487.055 102.773 487.175 103.313 487.175C103.843 487.175 104.333 487.055 104.783 486.815C105.243 486.575 105.613 486.21 105.893 485.72C106.173 485.23 106.313 484.625 106.313 483.905C106.313 483.185 106.173 482.58 105.893 482.09C105.613 481.59 105.243 481.22 104.783 480.98C104.333 480.74 103.843 480.62 103.313 480.62ZM116.326 479.81V488H115.276V485.975C115.066 486.685 114.686 487.225 114.136 487.595C113.586 487.965 112.956 488.15 112.246 488.15C111.286 488.15 110.506 487.85 109.906 487.25C109.316 486.64 109.021 485.75 109.021 484.58V479.81H110.071V484.49C110.071 485.39 110.296 486.08 110.746 486.56C111.196 487.03 111.811 487.265 112.591 487.265C113.411 487.265 114.061 487.005 114.541 486.485C115.031 485.955 115.276 485.18 115.276 484.16V479.81H116.326ZM119.686 481.505C119.926 480.915 120.311 480.46 120.841 480.14C121.371 479.82 122.016 479.66 122.776 479.66V480.8H122.431C121.641 480.8 120.986 481.015 120.466 481.445C119.946 481.865 119.686 482.555 119.686 483.515V488H118.621V479.81H119.686V481.505ZM129.135 483.59V488H128.07V477.425H131.235C132.425 477.425 133.31 477.7 133.89 478.25C134.48 478.8 134.775 479.555 134.775 480.515C134.775 481.495 134.47 482.255 133.86 482.795C133.26 483.325 132.385 483.59 131.235 483.59H129.135ZM131.145 482.69C132.055 482.69 132.71 482.505 133.11 482.135C133.51 481.755 133.71 481.215 133.71 480.515C133.71 479.795 133.51 479.25 133.11 478.88C132.71 478.5 132.055 478.31 131.145 478.31H129.135V482.69H131.145ZM139.884 479.705C140.714 479.705 141.419 479.92 141.999 480.35C142.589 480.78 142.994 481.35 143.214 482.06V479.81H144.249V488H143.214V485.75C142.994 486.46 142.589 487.03 141.999 487.46C141.419 487.89 140.714 488.105 139.884 488.105C139.144 488.105 138.479 487.935 137.889 487.595C137.309 487.255 136.854 486.77 136.524 486.14C136.204 485.5 136.044 484.755 136.044 483.905C136.044 483.045 136.204 482.3 136.524 481.67C136.854 481.03 137.309 480.545 137.889 480.215C138.469 479.875 139.134 479.705 139.884 479.705ZM140.154 480.635C139.234 480.635 138.494 480.93 137.934 481.52C137.384 482.1 137.109 482.895 137.109 483.905C137.109 484.915 137.384 485.715 137.934 486.305C138.494 486.885 139.234 487.175 140.154 487.175C140.734 487.175 141.254 487.04 141.714 486.77C142.184 486.5 142.549 486.12 142.809 485.63C143.079 485.13 143.214 484.555 143.214 483.905C143.214 483.255 143.079 482.685 142.809 482.195C142.549 481.695 142.184 481.31 141.714 481.04C141.254 480.77 140.734 480.635 140.154 480.635ZM149.002 479.705C149.892 479.705 150.607 479.94 151.147 480.41C151.687 480.88 152.017 481.515 152.137 482.315H151.132C151.072 481.785 150.852 481.35 150.472 481.01C150.102 480.66 149.602 480.485 148.972 480.485C148.432 480.485 148.007 480.62 147.697 480.89C147.397 481.15 147.247 481.5 147.247 481.94C147.247 482.27 147.342 482.535 147.532 482.735C147.732 482.935 147.977 483.09 148.267 483.2C148.557 483.3 148.947 483.405 149.437 483.515C150.037 483.655 150.517 483.8 150.877 483.95C151.247 484.09 151.562 484.315 151.822 484.625C152.082 484.935 152.212 485.355 152.212 485.885C152.212 486.535 151.967 487.07 151.477 487.49C150.997 487.9 150.357 488.105 149.557 488.105C148.617 488.105 147.847 487.875 147.247 487.415C146.647 486.945 146.292 486.305 146.182 485.495H147.202C147.262 486.035 147.497 486.475 147.907 486.815C148.317 487.155 148.872 487.325 149.572 487.325C150.092 487.325 150.497 487.19 150.787 486.92C151.077 486.65 151.222 486.3 151.222 485.87C151.222 485.52 151.122 485.24 150.922 485.03C150.722 484.82 150.472 484.665 150.172 484.565C149.882 484.455 149.482 484.34 148.972 484.22C148.382 484.08 147.907 483.94 147.547 483.8C147.197 483.66 146.897 483.445 146.647 483.155C146.397 482.855 146.272 482.45 146.272 481.94C146.272 481.27 146.517 480.73 147.007 480.32C147.497 479.91 148.162 479.705 149.002 479.705ZM156.604 479.705C157.494 479.705 158.209 479.94 158.749 480.41C159.289 480.88 159.619 481.515 159.739 482.315H158.734C158.674 481.785 158.454 481.35 158.074 481.01C157.704 480.66 157.204 480.485 156.574 480.485C156.034 480.485 155.609 480.62 155.299 480.89C154.999 481.15 154.849 481.5 154.849 481.94C154.849 482.27 154.944 482.535 155.134 482.735C155.334 482.935 155.579 483.09 155.869 483.2C156.159 483.3 156.549 483.405 157.039 483.515C157.639 483.655 158.119 483.8 158.479 483.95C158.849 484.09 159.164 484.315 159.424 484.625C159.684 484.935 159.814 485.355 159.814 485.885C159.814 486.535 159.569 487.07 159.079 487.49C158.599 487.9 157.959 488.105 157.159 488.105C156.219 488.105 155.449 487.875 154.849 487.415C154.249 486.945 153.894 486.305 153.784 485.495H154.804C154.864 486.035 155.099 486.475 155.509 486.815C155.919 487.155 156.474 487.325 157.174 487.325C157.694 487.325 158.099 487.19 158.389 486.92C158.679 486.65 158.824 486.3 158.824 485.87C158.824 485.52 158.724 485.24 158.524 485.03C158.324 484.82 158.074 484.665 157.774 484.565C157.484 484.455 157.084 484.34 156.574 484.22C155.984 484.08 155.509 483.94 155.149 483.8C154.799 483.66 154.499 483.445 154.249 483.155C153.999 482.855 153.874 482.45 153.874 481.94C153.874 481.27 154.119 480.73 154.609 480.32C155.099 479.91 155.764 479.705 156.604 479.705ZM172.802 479.81L170.387 488H169.277L166.817 481.04L164.327 488H163.232L160.817 479.81H161.882L163.832 486.905L166.292 479.81H167.372L169.847 486.905L171.782 479.81H172.802ZM177.859 479.705C178.639 479.705 179.334 479.875 179.944 480.215C180.564 480.545 181.049 481.03 181.399 481.67C181.749 482.3 181.924 483.045 181.924 483.905C181.924 484.765 181.749 485.51 181.399 486.14C181.049 486.77 180.564 487.255 179.944 487.595C179.334 487.935 178.639 488.105 177.859 488.105C177.079 488.105 176.379 487.935 175.759 487.595C175.139 487.255 174.649 486.77 174.289 486.14C173.939 485.5 173.764 484.755 173.764 483.905C173.764 483.045 173.939 482.3 174.289 481.67C174.649 481.03 175.139 480.545 175.759 480.215C176.379 479.875 177.079 479.705 177.859 479.705ZM177.859 480.62C177.319 480.62 176.819 480.74 176.359 480.98C175.899 481.22 175.529 481.59 175.249 482.09C174.969 482.58 174.829 483.185 174.829 483.905C174.829 484.625 174.969 485.23 175.249 485.72C175.529 486.21 175.899 486.575 176.359 486.815C176.819 487.055 177.319 487.175 177.859 487.175C178.389 487.175 178.879 487.055 179.329 486.815C179.789 486.575 180.159 486.21 180.439 485.72C180.719 485.23 180.859 484.625 180.859 483.905C180.859 483.185 180.719 482.58 180.439 482.09C180.159 481.59 179.789 481.22 179.329 480.98C178.879 480.74 178.389 480.62 177.859 480.62ZM184.872 481.505C185.112 480.915 185.497 480.46 186.027 480.14C186.557 479.82 187.202 479.66 187.962 479.66V480.8H187.617C186.827 480.8 186.172 481.015 185.652 481.445C185.132 481.865 184.872 482.555 184.872 483.515V488H183.807V479.81H184.872V481.505ZM192.809 479.705C193.639 479.705 194.344 479.92 194.924 480.35C195.514 480.78 195.914 481.35 196.124 482.06V476.9H197.174V488H196.124V485.75C195.914 486.46 195.514 487.03 194.924 487.46C194.344 487.89 193.639 488.105 192.809 488.105C192.069 488.105 191.404 487.935 190.814 487.595C190.234 487.255 189.779 486.77 189.449 486.14C189.129 485.5 188.969 484.755 188.969 483.905C188.969 483.045 189.129 482.3 189.449 481.67C189.779 481.03 190.234 480.545 190.814 480.215C191.394 479.875 192.059 479.705 192.809 479.705ZM193.079 480.635C192.159 480.635 191.419 480.93 190.859 481.52C190.309 482.1 190.034 482.895 190.034 483.905C190.034 484.915 190.309 485.715 190.859 486.305C191.419 486.885 192.159 487.175 193.079 487.175C193.659 487.175 194.179 487.04 194.639 486.77C195.109 486.5 195.474 486.12 195.734 485.63C196.004 485.13 196.139 484.555 196.139 483.905C196.139 483.255 196.004 482.685 195.734 482.195C195.474 481.695 195.109 481.31 194.639 481.04C194.179 480.77 193.659 480.635 193.079 480.635Z" fill="#ACACAC"/>
<g clip-path="url(#clip0_226_1385)">
<path d="M316.072 480.15L317.951 482.727L317.96 482.592C317.96 481.238 317.158 480.138 316.171 480.138L316.072 480.15Z" fill="black"/>
<path d="M316.17 478.501C317.816 478.501 319.152 480.333 319.152 482.591C319.152 483.119 319.075 483.622 318.941 484.084L320.685 486.476C321.586 485.446 322.295 484.112 322.734 482.591C321.699 479 319.155 476.456 316.171 476.456C315.336 476.456 314.536 476.661 313.794 477.029L315.082 478.791C315.419 478.611 315.786 478.501 316.17 478.501Z" fill="black"/>
<path d="M310.207 476.272L311.566 478.137L311.838 478.51C310.854 479.565 310.076 480.968 309.61 482.591C310.642 486.182 313.189 488.726 316.171 488.726C317.095 488.726 317.978 488.481 318.786 488.035L319.039 488.383L320.778 490.771L321.538 489.733L310.967 475.229L310.207 476.272ZM313.505 480.792L314.426 482.056C314.399 482.232 314.381 482.407 314.381 482.591C314.381 483.945 315.184 485.045 316.171 485.045C316.305 485.045 316.433 485.021 316.558 484.984L317.48 486.248C317.083 486.518 316.642 486.681 316.171 486.681C314.525 486.681 313.189 484.849 313.189 482.591C313.189 481.945 313.308 481.34 313.505 480.792Z" fill="black"/>
</g>
<rect x="31.5" y="538.5" width="11" height="11" fill="white" stroke="black"/>
<path d="M54.448 548L52.132 544.472H50.764V548H49.912V539.54H52.504C53.456 539.54 54.164 539.764 54.628 540.212C55.1 540.66 55.336 541.264 55.336 542.024C55.336 542.728 55.136 543.288 54.736 543.704C54.344 544.12 53.772 544.368 53.02 544.448L55.408 548H54.448ZM50.764 543.836H52.444C53.804 543.836 54.484 543.248 54.484 542.072C54.484 540.872 53.804 540.272 52.444 540.272H50.764V543.836ZM59.6 547.388C60.192 547.388 60.688 547.24 61.088 546.944C61.488 546.648 61.728 546.248 61.808 545.744H62.696C62.576 546.44 62.244 547.004 61.7 547.436C61.156 547.868 60.468 548.084 59.636 548.084C59.012 548.084 58.456 547.952 57.968 547.688C57.488 547.416 57.112 547.028 56.84 546.524C56.568 546.012 56.432 545.412 56.432 544.724C56.432 544.036 56.568 543.44 56.84 542.936C57.112 542.424 57.488 542.036 57.968 541.772C58.456 541.5 59.012 541.364 59.636 541.364C60.276 541.364 60.828 541.5 61.292 541.772C61.764 542.036 62.12 542.392 62.36 542.84C62.608 543.288 62.732 543.776 62.732 544.304C62.732 544.528 62.716 544.732 62.684 544.916H57.26C57.268 545.468 57.38 545.932 57.596 546.308C57.82 546.676 58.108 546.948 58.46 547.124C58.812 547.3 59.192 547.388 59.6 547.388ZM59.636 542.048C59.212 542.048 58.824 542.136 58.472 542.312C58.12 542.488 57.832 542.76 57.608 543.128C57.392 543.488 57.276 543.94 57.26 544.484H61.892C61.924 543.948 61.836 543.496 61.628 543.128C61.42 542.76 61.14 542.488 60.788 542.312C60.436 542.136 60.052 542.048 59.636 542.048ZM72.2 541.328C72.952 541.328 73.56 541.572 74.024 542.06C74.496 542.54 74.732 543.248 74.732 544.184V548H73.892V544.244C73.892 543.54 73.72 543 73.376 542.624C73.04 542.248 72.576 542.06 71.984 542.06C71.352 542.06 70.848 542.268 70.472 542.684C70.096 543.1 69.908 543.712 69.908 544.52V548H69.08V544.244C69.08 543.54 68.908 543 68.564 542.624C68.228 542.248 67.764 542.06 67.172 542.06C66.54 542.06 66.036 542.268 65.66 542.684C65.284 543.1 65.096 543.712 65.096 544.52V548H64.244V541.448H65.096V543.008C65.256 542.456 65.544 542.04 65.96 541.76C66.384 541.472 66.872 541.328 67.424 541.328C68 541.328 68.496 541.48 68.912 541.784C69.328 542.088 69.616 542.536 69.776 543.128C69.952 542.544 70.26 542.1 70.7 541.796C71.14 541.484 71.64 541.328 72.2 541.328ZM79.3578 547.388C79.9498 547.388 80.4458 547.24 80.8458 546.944C81.2458 546.648 81.4858 546.248 81.5658 545.744H82.4538C82.3338 546.44 82.0018 547.004 81.4578 547.436C80.9138 547.868 80.2258 548.084 79.3938 548.084C78.7698 548.084 78.2138 547.952 77.7258 547.688C77.2458 547.416 76.8698 547.028 76.5978 546.524C76.3258 546.012 76.1898 545.412 76.1898 544.724C76.1898 544.036 76.3258 543.44 76.5978 542.936C76.8698 542.424 77.2458 542.036 77.7258 541.772C78.2138 541.5 78.7698 541.364 79.3938 541.364C80.0338 541.364 80.5858 541.5 81.0498 541.772C81.5218 542.036 81.8778 542.392 82.1178 542.84C82.3658 543.288 82.4898 543.776 82.4898 544.304C82.4898 544.528 82.4738 544.732 82.4418 544.916H77.0178C77.0258 545.468 77.1378 545.932 77.3538 546.308C77.5778 546.676 77.8658 546.948 78.2178 547.124C78.5698 547.3 78.9498 547.388 79.3578 547.388ZM79.3938 542.048C78.9698 542.048 78.5818 542.136 78.2298 542.312C77.8778 542.488 77.5898 542.76 77.3658 543.128C77.1498 543.488 77.0338 543.94 77.0178 544.484H81.6498C81.6818 543.948 81.5938 543.496 81.3858 543.128C81.1778 542.76 80.8978 542.488 80.5458 542.312C80.1938 542.136 79.8098 542.048 79.3938 542.048ZM91.9578 541.328C92.7098 541.328 93.3178 541.572 93.7818 542.06C94.2538 542.54 94.4898 543.248 94.4898 544.184V548H93.6498V544.244C93.6498 543.54 93.4778 543 93.1338 542.624C92.7978 542.248 92.3338 542.06 91.7418 542.06C91.1098 542.06 90.6058 542.268 90.2298 542.684C89.8538 543.1 89.6658 543.712 89.6658 544.52V548H88.8378V544.244C88.8378 543.54 88.6658 543 88.3218 542.624C87.9858 542.248 87.5218 542.06 86.9298 542.06C86.2978 542.06 85.7938 542.268 85.4178 542.684C85.0418 543.1 84.8538 543.712 84.8538 544.52V548H84.0018V541.448H84.8538V543.008C85.0138 542.456 85.3018 542.04 85.7178 541.76C86.1418 541.472 86.6298 541.328 87.1818 541.328C87.7578 541.328 88.2538 541.48 88.6698 541.784C89.0858 542.088 89.3738 542.536 89.5338 543.128C89.7098 542.544 90.0178 542.1 90.4578 541.796C90.8978 541.484 91.3978 541.328 91.9578 541.328ZM99.1157 547.388C99.7077 547.388 100.204 547.24 100.604 546.944C101.004 546.648 101.244 546.248 101.324 545.744H102.212C102.092 546.44 101.76 547.004 101.216 547.436C100.672 547.868 99.9837 548.084 99.1517 548.084C98.5277 548.084 97.9717 547.952 97.4837 547.688C97.0037 547.416 96.6277 547.028 96.3557 546.524C96.0837 546.012 95.9477 545.412 95.9477 544.724C95.9477 544.036 96.0837 543.44 96.3557 542.936C96.6277 542.424 97.0037 542.036 97.4837 541.772C97.9717 541.5 98.5277 541.364 99.1517 541.364C99.7917 541.364 100.344 541.5 100.808 541.772C101.28 542.036 101.636 542.392 101.876 542.84C102.124 543.288 102.248 543.776 102.248 544.304C102.248 544.528 102.232 544.732 102.2 544.916H96.7757C96.7837 545.468 96.8957 545.932 97.1117 546.308C97.3357 546.676 97.6237 546.948 97.9757 547.124C98.3277 547.3 98.7077 547.388 99.1157 547.388ZM99.1517 542.048C98.7277 542.048 98.3397 542.136 97.9877 542.312C97.6357 542.488 97.3477 542.76 97.1237 543.128C96.9077 543.488 96.7917 543.94 96.7757 544.484H101.408C101.44 543.948 101.352 543.496 101.144 543.128C100.936 542.76 100.656 542.488 100.304 542.312C99.9517 542.136 99.5677 542.048 99.1517 542.048ZM107.264 541.364C107.864 541.364 108.392 541.5 108.848 541.772C109.312 542.036 109.672 542.424 109.928 542.936C110.192 543.44 110.324 544.036 110.324 544.724C110.324 545.404 110.192 546 109.928 546.512C109.672 547.016 109.312 547.404 108.848 547.676C108.384 547.948 107.856 548.084 107.264 548.084C106.592 548.084 106.024 547.912 105.56 547.568C105.096 547.224 104.776 546.768 104.6 546.2V548H103.76V539.12H104.6V543.248C104.776 542.68 105.096 542.224 105.56 541.88C106.024 541.536 106.592 541.364 107.264 541.364ZM107.036 542.108C106.572 542.108 106.152 542.216 105.776 542.432C105.408 542.648 105.12 542.956 104.912 543.356C104.704 543.748 104.6 544.204 104.6 544.724C104.6 545.244 104.704 545.704 104.912 546.104C105.12 546.496 105.408 546.8 105.776 547.016C106.152 547.232 106.572 547.34 107.036 547.34C107.78 547.34 108.372 547.108 108.812 546.644C109.252 546.172 109.472 545.532 109.472 544.724C109.472 543.916 109.252 543.28 108.812 542.816C108.372 542.344 107.78 542.108 107.036 542.108ZM112.686 542.804C112.878 542.332 113.186 541.968 113.61 541.712C114.034 541.456 114.55 541.328 115.158 541.328V542.24H114.882C114.25 542.24 113.726 542.412 113.31 542.756C112.894 543.092 112.686 543.644 112.686 544.412V548H111.834V541.448H112.686V542.804ZM127.348 541.328C128.1 541.328 128.708 541.572 129.172 542.06C129.644 542.54 129.88 543.248 129.88 544.184V548H129.04V544.244C129.04 543.54 128.868 543 128.524 542.624C128.188 542.248 127.724 542.06 127.132 542.06C126.5 542.06 125.996 542.268 125.62 542.684C125.244 543.1 125.056 543.712 125.056 544.52V548H124.228V544.244C124.228 543.54 124.056 543 123.712 542.624C123.376 542.248 122.912 542.06 122.32 542.06C121.688 542.06 121.184 542.268 120.808 542.684C120.432 543.1 120.244 543.712 120.244 544.52V548H119.392V541.448H120.244V543.008C120.404 542.456 120.692 542.04 121.108 541.76C121.532 541.472 122.02 541.328 122.572 541.328C123.148 541.328 123.644 541.48 124.06 541.784C124.476 542.088 124.764 542.536 124.924 543.128C125.1 542.544 125.408 542.1 125.848 541.796C126.288 541.484 126.788 541.328 127.348 541.328ZM134.506 547.388C135.098 547.388 135.594 547.24 135.994 546.944C136.394 546.648 136.634 546.248 136.714 545.744H137.602C137.482 546.44 137.15 547.004 136.606 547.436C136.062 547.868 135.374 548.084 134.542 548.084C133.918 548.084 133.362 547.952 132.874 547.688C132.394 547.416 132.018 547.028 131.746 546.524C131.474 546.012 131.338 545.412 131.338 544.724C131.338 544.036 131.474 543.44 131.746 542.936C132.018 542.424 132.394 542.036 132.874 541.772C133.362 541.5 133.918 541.364 134.542 541.364C135.182 541.364 135.734 541.5 136.198 541.772C136.67 542.036 137.026 542.392 137.266 542.84C137.514 543.288 137.638 543.776 137.638 544.304C137.638 544.528 137.622 544.732 137.59 544.916H132.166C132.174 545.468 132.286 545.932 132.502 546.308C132.726 546.676 133.014 546.948 133.366 547.124C133.718 547.3 134.098 547.388 134.506 547.388ZM134.542 542.048C134.118 542.048 133.73 542.136 133.378 542.312C133.026 542.488 132.738 542.76 132.514 543.128C132.298 543.488 132.182 543.94 132.166 544.484H136.798C136.83 543.948 136.742 543.496 136.534 543.128C136.326 542.76 136.046 542.488 135.694 542.312C135.342 542.136 134.958 542.048 134.542 542.048Z" fill="black"/>
<path d="M229.508 539.54V540.224H225.764V543.452H229.004V544.112H225.764V548H224.912V539.54H229.508ZM233.829 541.364C234.453 541.364 235.009 541.5 235.497 541.772C235.993 542.036 236.381 542.424 236.661 542.936C236.941 543.44 237.081 544.036 237.081 544.724C237.081 545.412 236.941 546.008 236.661 546.512C236.381 547.016 235.993 547.404 235.497 547.676C235.009 547.948 234.453 548.084 233.829 548.084C233.205 548.084 232.645 547.948 232.149 547.676C231.653 547.404 231.261 547.016 230.973 546.512C230.693 546 230.553 545.404 230.553 544.724C230.553 544.036 230.693 543.44 230.973 542.936C231.261 542.424 231.653 542.036 232.149 541.772C232.645 541.5 233.205 541.364 233.829 541.364ZM233.829 542.096C233.397 542.096 232.997 542.192 232.629 542.384C232.261 542.576 231.965 542.872 231.741 543.272C231.517 543.664 231.405 544.148 231.405 544.724C231.405 545.3 231.517 545.784 231.741 546.176C231.965 546.568 232.261 546.86 232.629 547.052C232.997 547.244 233.397 547.34 233.829 547.34C234.253 547.34 234.645 547.244 235.005 547.052C235.373 546.86 235.669 546.568 235.893 546.176C236.117 545.784 236.229 545.3 236.229 544.724C236.229 544.148 236.117 543.664 235.893 543.272C235.669 542.872 235.373 542.576 235.005 542.384C234.645 542.192 234.253 542.096 233.829 542.096ZM239.44 542.804C239.632 542.332 239.94 541.968 240.364 541.712C240.788 541.456 241.304 541.328 241.912 541.328V542.24H241.636C241.004 542.24 240.48 542.412 240.064 542.756C239.648 543.092 239.44 543.644 239.44 544.412V548H238.588V541.448H239.44V542.804ZM245.789 541.364C246.453 541.364 247.017 541.536 247.481 541.88C247.953 542.224 248.277 542.68 248.453 543.248V541.448H249.281V548.156C249.281 548.764 249.153 549.296 248.897 549.752C248.641 550.216 248.285 550.572 247.829 550.82C247.373 551.076 246.853 551.204 246.269 551.204C245.413 551.204 244.709 550.996 244.157 550.58C243.613 550.172 243.257 549.616 243.089 548.912H243.929C244.073 549.392 244.337 549.772 244.721 550.052C245.113 550.332 245.613 550.472 246.221 550.472C246.637 550.472 247.013 550.38 247.349 550.196C247.693 550.02 247.961 549.756 248.153 549.404C248.353 549.052 248.453 548.636 248.453 548.156V546.2C248.277 546.768 247.953 547.224 247.481 547.568C247.017 547.912 246.453 548.084 245.789 548.084C245.197 548.084 244.665 547.948 244.193 547.676C243.729 547.404 243.365 547.016 243.101 546.512C242.845 546 242.717 545.404 242.717 544.724C242.717 544.036 242.845 543.44 243.101 542.936C243.365 542.424 243.729 542.036 244.193 541.772C244.657 541.5 245.189 541.364 245.789 541.364ZM246.005 542.108C245.269 542.108 244.677 542.344 244.229 542.816C243.789 543.28 243.569 543.916 243.569 544.724C243.569 545.532 243.789 546.172 244.229 546.644C244.677 547.108 245.269 547.34 246.005 547.34C246.469 547.34 246.885 547.232 247.253 547.016C247.629 546.8 247.921 546.496 248.129 546.104C248.345 545.704 248.453 545.244 248.453 544.724C248.453 544.204 248.345 543.748 248.129 543.356C247.921 542.956 247.629 542.648 247.253 542.432C246.885 542.216 246.469 542.108 246.005 542.108ZM254.067 541.364C254.691 541.364 255.247 541.5 255.735 541.772C256.231 542.036 256.619 542.424 256.899 542.936C257.179 543.44 257.319 544.036 257.319 544.724C257.319 545.412 257.179 546.008 256.899 546.512C256.619 547.016 256.231 547.404 255.735 547.676C255.247 547.948 254.691 548.084 254.067 548.084C253.443 548.084 252.883 547.948 252.387 547.676C251.891 547.404 251.499 547.016 251.211 546.512C250.931 546 250.791 545.404 250.791 544.724C250.791 544.036 250.931 543.44 251.211 542.936C251.499 542.424 251.891 542.036 252.387 541.772C252.883 541.5 253.443 541.364 254.067 541.364ZM254.067 542.096C253.635 542.096 253.235 542.192 252.867 542.384C252.499 542.576 252.203 542.872 251.979 543.272C251.755 543.664 251.643 544.148 251.643 544.724C251.643 545.3 251.755 545.784 251.979 546.176C252.203 546.568 252.499 546.86 252.867 547.052C253.235 547.244 253.635 547.34 254.067 547.34C254.491 547.34 254.883 547.244 255.243 547.052C255.611 546.86 255.907 546.568 256.131 546.176C256.355 545.784 256.467 545.3 256.467 544.724C256.467 544.148 256.355 543.664 256.131 543.272C255.907 542.872 255.611 542.576 255.243 542.384C254.883 542.192 254.491 542.096 254.067 542.096ZM261.802 547.256V548H261.022C260.39 548 259.918 547.852 259.606 547.556C259.294 547.252 259.138 546.744 259.138 546.032V542.18H258.142V541.448H259.138V539.792H259.99V541.448H261.79V542.18H259.99V546.044C259.99 546.508 260.074 546.828 260.242 547.004C260.41 547.172 260.706 547.256 261.13 547.256H261.802ZM267.155 544.472V548H266.303V539.54H268.835C269.787 539.54 270.495 539.76 270.959 540.2C271.431 540.64 271.667 541.244 271.667 542.012C271.667 542.796 271.423 543.404 270.935 543.836C270.455 544.26 269.755 544.472 268.835 544.472H267.155ZM268.763 543.752C269.491 543.752 270.015 543.604 270.335 543.308C270.655 543.004 270.815 542.572 270.815 542.012C270.815 541.436 270.655 541 270.335 540.704C270.015 540.4 269.491 540.248 268.763 540.248H267.155V543.752H268.763ZM275.754 541.364C276.418 541.364 276.982 541.536 277.446 541.88C277.918 542.224 278.242 542.68 278.418 543.248V541.448H279.246V548H278.418V546.2C278.242 546.768 277.918 547.224 277.446 547.568C276.982 547.912 276.418 548.084 275.754 548.084C275.162 548.084 274.63 547.948 274.158 547.676C273.694 547.404 273.33 547.016 273.066 546.512C272.81 546 272.682 545.404 272.682 544.724C272.682 544.036 272.81 543.44 273.066 542.936C273.33 542.424 273.694 542.036 274.158 541.772C274.622 541.5 275.154 541.364 275.754 541.364ZM275.97 542.108C275.234 542.108 274.642 542.344 274.194 542.816C273.754 543.28 273.534 543.916 273.534 544.724C273.534 545.532 273.754 546.172 274.194 546.644C274.642 547.108 275.234 547.34 275.97 547.34C276.434 547.34 276.85 547.232 277.218 547.016C277.594 546.8 277.886 546.496 278.094 546.104C278.31 545.704 278.418 545.244 278.418 544.724C278.418 544.204 278.31 543.748 278.094 543.356C277.886 542.956 277.594 542.648 277.218 542.432C276.85 542.216 276.434 542.108 275.97 542.108ZM283.048 541.364C283.76 541.364 284.332 541.552 284.764 541.928C285.196 542.304 285.46 542.812 285.556 543.452H284.752C284.704 543.028 284.528 542.68 284.224 542.408C283.928 542.128 283.528 541.988 283.024 541.988C282.592 541.988 282.252 542.096 282.004 542.312C281.764 542.52 281.644 542.8 281.644 543.152C281.644 543.416 281.72 543.628 281.872 543.788C282.032 543.948 282.228 544.072 282.46 544.16C282.692 544.24 283.004 544.324 283.396 544.412C283.876 544.524 284.26 544.64 284.548 544.76C284.844 544.872 285.096 545.052 285.304 545.3C285.512 545.548 285.616 545.884 285.616 546.308C285.616 546.828 285.42 547.256 285.028 547.592C284.644 547.92 284.132 548.084 283.492 548.084C282.74 548.084 282.124 547.9 281.644 547.532C281.164 547.156 280.88 546.644 280.792 545.996H281.608C281.656 546.428 281.844 546.78 282.172 547.052C282.5 547.324 282.944 547.46 283.504 547.46C283.92 547.46 284.244 547.352 284.476 547.136C284.708 546.92 284.824 546.64 284.824 546.296C284.824 546.016 284.744 545.792 284.584 545.624C284.424 545.456 284.224 545.332 283.984 545.252C283.752 545.164 283.432 545.072 283.024 544.976C282.552 544.864 282.172 544.752 281.884 544.64C281.604 544.528 281.364 544.356 281.164 544.124C280.964 543.884 280.864 543.56 280.864 543.152C280.864 542.616 281.06 542.184 281.452 541.856C281.844 541.528 282.376 541.364 283.048 541.364ZM289.13 541.364C289.842 541.364 290.414 541.552 290.846 541.928C291.278 542.304 291.542 542.812 291.638 543.452H290.834C290.786 543.028 290.61 542.68 290.306 542.408C290.01 542.128 289.61 541.988 289.106 541.988C288.674 541.988 288.334 542.096 288.086 542.312C287.846 542.52 287.726 542.8 287.726 543.152C287.726 543.416 287.802 543.628 287.954 543.788C288.114 543.948 288.31 544.072 288.542 544.16C288.774 544.24 289.086 544.324 289.478 544.412C289.958 544.524 290.342 544.64 290.63 544.76C290.926 544.872 291.178 545.052 291.386 545.3C291.594 545.548 291.698 545.884 291.698 546.308C291.698 546.828 291.502 547.256 291.11 547.592C290.726 547.92 290.214 548.084 289.574 548.084C288.822 548.084 288.206 547.9 287.726 547.532C287.246 547.156 286.962 546.644 286.874 545.996H287.69C287.738 546.428 287.926 546.78 288.254 547.052C288.582 547.324 289.026 547.46 289.586 547.46C290.002 547.46 290.326 547.352 290.558 547.136C290.79 546.92 290.906 546.64 290.906 546.296C290.906 546.016 290.826 545.792 290.666 545.624C290.506 545.456 290.306 545.332 290.066 545.252C289.834 545.164 289.514 545.072 289.106 544.976C288.634 544.864 288.254 544.752 287.966 544.64C287.686 544.528 287.446 544.356 287.246 544.124C287.046 543.884 286.946 543.56 286.946 543.152C286.946 542.616 287.142 542.184 287.534 541.856C287.926 541.528 288.458 541.364 289.13 541.364ZM302.088 541.448L300.156 548H299.268L297.3 542.432L295.308 548H294.432L292.5 541.448H293.352L294.912 547.124L296.88 541.448H297.744L299.724 547.124L301.272 541.448H302.088ZM306.134 541.364C306.758 541.364 307.314 541.5 307.802 541.772C308.298 542.036 308.686 542.424 308.966 542.936C309.246 543.44 309.386 544.036 309.386 544.724C309.386 545.412 309.246 546.008 308.966 546.512C308.686 547.016 308.298 547.404 307.802 547.676C307.314 547.948 306.758 548.084 306.134 548.084C305.51 548.084 304.95 547.948 304.454 547.676C303.958 547.404 303.566 547.016 303.278 546.512C302.998 546 302.858 545.404 302.858 544.724C302.858 544.036 302.998 543.44 303.278 542.936C303.566 542.424 303.958 542.036 304.454 541.772C304.95 541.5 305.51 541.364 306.134 541.364ZM306.134 542.096C305.702 542.096 305.302 542.192 304.934 542.384C304.566 542.576 304.27 542.872 304.046 543.272C303.822 543.664 303.71 544.148 303.71 544.724C303.71 545.3 303.822 545.784 304.046 546.176C304.27 546.568 304.566 546.86 304.934 547.052C305.302 547.244 305.702 547.34 306.134 547.34C306.558 547.34 306.95 547.244 307.31 547.052C307.678 546.86 307.974 546.568 308.198 546.176C308.422 545.784 308.534 545.3 308.534 544.724C308.534 544.148 308.422 543.664 308.198 543.272C307.974 542.872 307.678 542.576 307.31 542.384C306.95 542.192 306.558 542.096 306.134 542.096ZM311.744 542.804C311.936 542.332 312.244 541.968 312.668 541.712C313.092 541.456 313.608 541.328 314.216 541.328V542.24H313.94C313.308 542.24 312.784 542.412 312.368 542.756C311.952 543.092 311.744 543.644 311.744 544.412V548H310.892V541.448H311.744V542.804ZM318.094 541.364C318.758 541.364 319.322 541.536 319.786 541.88C320.258 542.224 320.578 542.68 320.746 543.248V539.12H321.586V548H320.746V546.2C320.578 546.768 320.258 547.224 319.786 547.568C319.322 547.912 318.758 548.084 318.094 548.084C317.502 548.084 316.97 547.948 316.498 547.676C316.034 547.404 315.67 547.016 315.406 546.512C315.15 546 315.022 545.404 315.022 544.724C315.022 544.036 315.15 543.44 315.406 542.936C315.67 542.424 316.034 542.036 316.498 541.772C316.962 541.5 317.494 541.364 318.094 541.364ZM318.31 542.108C317.574 542.108 316.982 542.344 316.534 542.816C316.094 543.28 315.874 543.916 315.874 544.724C315.874 545.532 316.094 546.172 316.534 546.644C316.982 547.108 317.574 547.34 318.31 547.34C318.774 547.34 319.19 547.232 319.558 547.016C319.934 546.8 320.226 546.496 320.434 546.104C320.65 545.704 320.758 545.244 320.758 544.724C320.758 544.204 320.65 543.748 320.434 543.356C320.226 542.956 319.934 542.648 319.558 542.432C319.19 542.216 318.774 542.108 318.31 542.108ZM328.613 539.276C329.381 539.276 329.993 539.492 330.449 539.924C330.913 540.348 331.145 540.932 331.145 541.676C331.145 542.548 330.881 543.192 330.353 543.608C329.825 544.024 329.093 544.24 328.157 544.256V545.768H327.353V543.668H327.749C328.517 543.668 329.137 543.528 329.609 543.248C330.081 542.968 330.317 542.444 330.317 541.676C330.317 541.148 330.161 540.736 329.849 540.44C329.537 540.136 329.117 539.984 328.589 539.984C328.037 539.984 327.593 540.14 327.257 540.452C326.921 540.756 326.753 541.156 326.753 541.652H325.949C325.941 541.18 326.049 540.764 326.273 540.404C326.497 540.044 326.813 539.768 327.221 539.576C327.629 539.376 328.093 539.276 328.613 539.276ZM328.313 546.92V548H327.209V546.92H328.313Z" fill="black"/>
<rect x="38" y="645" width="310" height="49" rx="15" fill="black"/>
<path d="M178.121 673.816H182.025V675H176.665V663.848H178.121V673.816ZM187.396 675.144C186.574 675.144 185.828 674.957 185.156 674.584C184.494 674.211 183.972 673.683 183.588 673C183.214 672.307 183.028 671.507 183.028 670.6C183.028 669.704 183.22 668.915 183.604 668.232C183.998 667.539 184.532 667.011 185.204 666.648C185.876 666.275 186.628 666.088 187.46 666.088C188.292 666.088 189.044 666.275 189.716 666.648C190.388 667.011 190.916 667.533 191.3 668.216C191.694 668.899 191.892 669.693 191.892 670.6C191.892 671.507 191.689 672.307 191.284 673C190.889 673.683 190.35 674.211 189.668 674.584C188.985 674.957 188.228 675.144 187.396 675.144ZM187.396 673.864C187.918 673.864 188.409 673.741 188.868 673.496C189.326 673.251 189.694 672.883 189.972 672.392C190.26 671.901 190.404 671.304 190.404 670.6C190.404 669.896 190.265 669.299 189.988 668.808C189.71 668.317 189.348 667.955 188.9 667.72C188.452 667.475 187.966 667.352 187.444 667.352C186.91 667.352 186.42 667.475 185.972 667.72C185.534 667.955 185.182 668.317 184.916 668.808C184.649 669.299 184.516 669.896 184.516 670.6C184.516 671.315 184.644 671.917 184.9 672.408C185.166 672.899 185.518 673.267 185.956 673.512C186.393 673.747 186.873 673.864 187.396 673.864ZM197.422 666.088C198.179 666.088 198.841 666.253 199.406 666.584C199.982 666.915 200.409 667.331 200.686 667.832V666.232H202.158V675.192C202.158 675.992 201.987 676.701 201.646 677.32C201.305 677.949 200.814 678.44 200.174 678.792C199.545 679.144 198.809 679.32 197.966 679.32C196.814 679.32 195.854 679.048 195.086 678.504C194.318 677.96 193.865 677.219 193.726 676.28H195.166C195.326 676.813 195.657 677.24 196.158 677.56C196.659 677.891 197.262 678.056 197.966 678.056C198.766 678.056 199.417 677.805 199.918 677.304C200.43 676.803 200.686 676.099 200.686 675.192V673.352C200.398 673.864 199.971 674.291 199.406 674.632C198.841 674.973 198.179 675.144 197.422 675.144C196.643 675.144 195.934 674.952 195.294 674.568C194.665 674.184 194.169 673.645 193.806 672.952C193.443 672.259 193.262 671.469 193.262 670.584C193.262 669.688 193.443 668.904 193.806 668.232C194.169 667.549 194.665 667.021 195.294 666.648C195.934 666.275 196.643 666.088 197.422 666.088ZM200.686 670.6C200.686 669.939 200.553 669.363 200.286 668.872C200.019 668.381 199.657 668.008 199.198 667.752C198.75 667.485 198.254 667.352 197.71 667.352C197.166 667.352 196.67 667.48 196.222 667.736C195.774 667.992 195.417 668.365 195.15 668.856C194.883 669.347 194.75 669.923 194.75 670.584C194.75 671.256 194.883 671.843 195.15 672.344C195.417 672.835 195.774 673.213 196.222 673.48C196.67 673.736 197.166 673.864 197.71 673.864C198.254 673.864 198.75 673.736 199.198 673.48C199.657 673.213 200.019 672.835 200.286 672.344C200.553 671.843 200.686 671.261 200.686 670.6ZM205.37 664.808C205.093 664.808 204.858 664.712 204.666 664.52C204.474 664.328 204.378 664.093 204.378 663.816C204.378 663.539 204.474 663.304 204.666 663.112C204.858 662.92 205.093 662.824 205.37 662.824C205.637 662.824 205.861 662.92 206.042 663.112C206.234 663.304 206.33 663.539 206.33 663.816C206.33 664.093 206.234 664.328 206.042 664.52C205.861 664.712 205.637 664.808 205.37 664.808ZM206.074 666.232V675H204.618V666.232H206.074ZM212.828 666.072C213.895 666.072 214.759 666.397 215.42 667.048C216.081 667.688 216.412 668.616 216.412 669.832V675H214.972V670.04C214.972 669.165 214.753 668.499 214.316 668.04C213.879 667.571 213.281 667.336 212.524 667.336C211.756 667.336 211.143 667.576 210.684 668.056C210.236 668.536 210.012 669.235 210.012 670.152V675H208.556V666.232H210.012V667.48C210.3 667.032 210.689 666.685 211.18 666.44C211.681 666.195 212.231 666.072 212.828 666.072Z" fill="white"/>
<defs>
<clipPath id="clip0_226_1385">
<rect width="13.1233" height="18" fill="white" transform="translate(309.61 474)"/>
</clipPath>
</defs>
</svg>
